<svg xmlns="http://www.w3.org/2000/svg" version="1.1" xmlns:xlink="http://www.w3.org/1999/xlink" width="319" height="266.4"><svg version="1.1" id="SvgjsSvg1006" xmlns="http://www.w3.org/2000/svg" xmlns:xlink="http://www.w3.org/1999/xlink" x="0px" y="0px" viewBox="0 0 319 266.4" style="enable-background:new 0 0 319 266.4;" xml:space="preserve">
<style type="text/css">
	.st0{fill:#445439;}
</style>
<g>
	<g>
		<path class="st0" d="M185.6,109c-0.9,0.9-1.8,1.8-2,3.4c1.3-0.1,2-0.9,2.7-1.6c2.8-2.4,5.6-4.9,8.3-7.4
			c10.6-9.6,21.1-19.3,30.4-30.2c5.9-6.9,12.2-13.5,18.9-19.7c3.6-3.4,6.5-7.4,10-10.8c0.5-0.5,1.3-1.2,0.8-1.9
			c-0.8-0.8-1.4,0.3-2,0.7c-1.3,1.1-2.6,2.1-3.8,3.3c-10.9,11.4-22,22.6-33.5,33.4C205.1,88.1,195.6,98.8,185.6,109z"></path>
		<path class="st0" d="M158.4,100.9c0.9-1,0.7-2,0.8-3c0.3-3.7,0.5-7.4,0.8-11.1c0.9-14.3,1.5-28.5,0.5-42.8
			c-0.6-9.1-0.8-18.2-0.4-27.3c0.2-4.9-0.5-9.8-0.5-14.7c0-0.7,0.1-1.8-0.8-1.9c-1.1,0-0.8,1.2-0.9,1.9c-0.2,1.7-0.4,3.4-0.3,5
			c0.3,15.8,0.2,31.5-0.3,47.3c-0.5,14.3,0.2,28.6,0.3,42.9C157.5,98.3,157.4,99.7,158.4,100.9z"></path>
		<path class="st0" d="M241.1,102c-9.6,3.3-18.4,8.4-27.8,12.1c-6.7,2.6-13.3,5.3-19.6,8.6c-0.8,0.4-1.7,0.6-2.2,1.7
			c1.8,0.3,3.2-0.5,4.6-1.1c10.4-4.6,21.4-7.9,31.9-12.2c17.7-7.2,35.6-14.2,53.3-21.3c2-0.8,3.7-2.2,5.6-3.2
			c0.3-0.2,0.7-0.3,0.6-0.7c-0.1-0.5-0.6-0.4-1-0.3c-1.4,0.2-2.7,0.6-4.1,1.1c-9.7,3.8-19.1,8.5-29.2,11.2
			C249,98.9,245.1,100.6,241.1,102z"></path>
		<path class="st0" d="M67.6,46.1c8.2,9,16.5,17.9,25.1,26.6c11.5,11.5,22.4,23.5,34.6,34.3c1.9,1.7,3.8,3.3,6.3,4.8
			c-3.5-7.4-63.5-66.7-67.5-68.2C66.1,44.9,67,45.4,67.6,46.1z"></path>
		<path class="st0" d="M42.8,92c7.2,3.1,14.7,5.7,21.8,9.1c5.1,2.4,10.2,4.9,15.4,7.1c13.3,5.7,27.2,9.6,40.9,14.2
			c1.6,0.5,3.2,1.2,5.1,1.1c-0.6-1.1-1.5-1.3-2.3-1.6c-3.5-1.3-7-2.5-10.4-3.8c-6.8-2.7-13.4-6-20.2-8.8
			C81.3,104.6,69,101,57.3,96.1c-4.7-2-9.2-4.2-14.2-5.4c-0.8-0.2-2.1-1.2-2.4-0.2C40.3,91.5,42,91.7,42.8,92z"></path>
		<path class="st0" d="M171.8,103.7c1.8-1.9,2.4-4.2,3.4-6.2c5-10.2,10.7-20.1,15.5-30.5c3.8-8.3,6.8-17,10.8-25.3
			c2.2-4.6,4.4-9.2,6.6-13.8c0.2-0.5,0.9-1.2,0-1.5c-0.6-0.3-0.9,0.4-1.2,0.8c-0.3,0.4-0.5,0.8-0.8,1.2c-2.1,3.4-3.6,7.1-5.2,10.7
			c-2.9,6.9-7.1,13.1-10.5,19.8c-6.7,13.4-12.5,27.2-18,41.1C172,101,171.4,102.1,171.8,103.7z"></path>
		<path class="st0" d="M122,39.4c2.8,9.5,4.9,19.2,8,28.6c3.6,10.8,7,21.7,12.2,31.8c0.5,1,0.9,2.1,1.9,2.9
			c0.3-4.1-22.5-72.6-25.6-76.8c-0.7,1.7,0,3.3,0.4,4.8C119.7,33.6,121.1,36.4,122,39.4z"></path>
		<path class="st0" d="M272.3,115.1c-3.3-1.9-75.9,11.4-80.4,14.8C219.2,125.6,245.8,121.3,272.3,115.1z"></path>
		<path class="st0" d="M243.3,80.3c-3.4,2.3-6.8,4.7-10.2,6.9c-12.6,8-25.2,15.9-37.6,24.1c-2.5,1.6-4.7,3.6-6.7,5.8
			c19.9-11,39.2-22.8,56.9-37.2C244.5,79.2,243.9,79.8,243.3,80.3z"></path>
		<path class="st0" d="M69.9,77.7c19.6,14.5,38.8,29.5,60.6,40.7c-19.2-15-40.1-27.6-60-41.6C70.4,77.1,70.1,77.4,69.9,77.7z"></path>
		<path class="st0" d="M216.3,52.8c-3.1,1.4-37.6,50.8-38.3,54.8C192.6,90.7,204.1,71.5,216.3,52.8z"></path>
		<path class="st0" d="M166.9,100.1c2.7-7.7,3.5-15.9,4.9-23.9c2-11.2,3.8-22.4,6.4-33.5c0.5-2.3,0.7-4.7,1.2-7.7
			c-2.9,2.8-14.8,62.9-13.7,67.6C166.5,101.9,166.6,100.9,166.9,100.1z"></path>
		<path class="st0" d="M46.1,116.4c26.7,5.3,53.3,9.8,80.4,13.7C120.1,126.9,50.6,115.1,46.1,116.4z"></path>
		<path class="st0" d="M139.7,108.2c-10.5-21.6-25.2-40-38.3-59.4C101,51,136.3,105.5,139.7,108.2z"></path>
		<path class="st0" d="M151.1,103.3c-1.4-23.1-5.4-45.4-9.5-67.6c-0.5,1.6,7.3,61.4,8.2,64.7C150,101.3,150.1,102.2,151.1,103.3z"></path>
		<path class="st0" d="M318.9,140.1c-0.3-6.7-0.4-10.1-0.5-11.8c-0.1-1.7-0.1-1.7-0.1-1.7c-14,5.6-14.4,5.8-14.4,5.8
			c-16,6.4-45,4.1-63.9,6.8c-4.4,0.7-39.3,6.3-59.3,34.2c-18.3,25.5-14.3,55.7-12.6,65.2c-3.3,4.6-6.2,8.9-8.6,12.8
			c-2.4-3.9-5.3-8.2-8.6-12.8c1.7-9.6,5.7-39.7-12.6-65.2c-20.1-27.9-54.9-33.6-59.3-34.2c-18.9-2.8-47.8-0.5-63.9-6.8
			c0,0-0.3-0.1-14.4-5.8c0,0,0,0-0.1,1.7c-0.1,1.7-0.2,5.1-0.5,11.8c-1,23.9,6.5,47.6,21.2,68.5c16.2,23.2,37,41.1,61.9,40.2
			c13.7-0.5,48.2-12.5,60.9,5.2c-37.9-63.3-90.9-75.1-94.3-75.8c51.2,6.4,83.1,43.4,99.4,69.2c0,0,0,0,0,0c2.1,3.5,4.2,7.1,6.3,10.9
			c0.1,0.2,0.2,0.3,0.3,0.5c1.3,2.5,2.6,5,3.8,7.6c1.2-2.6,2.5-5.2,3.8-7.6c0.1-0.2,0.2-0.3,0.3-0.5c2-3.8,4.1-7.5,6.3-10.9
			c0,0,0,0,0,0c16.3-25.8,48.2-62.8,99.4-69.2c-3.3,0.7-56.4,12.5-94.3,75.8c12.6-17.7,47.2-5.7,60.8-5.2
			c24.9,0.9,45.7-17.1,61.9-40.2C312.4,187.6,319.9,164,318.9,140.1z"></path>
	</g>
</g>
</svg><style>@media (prefers-color-scheme: light) { :root { filter: none; } }
@media (prefers-color-scheme: dark) { :root { filter: none; } }
</style></svg>