<svg width="160" height="48" viewBox="0 0 160 48" fill="none" xmlns="http://www.w3.org/2000/svg">
<g clip-path="url(#clip0_59_134)">
<path d="M70.6499 19.5144C71.6534 19.5144 72.5656 19.4682 73.4322 19.3757C74.2987 19.2832 75.0285 19.1907 75.667 19.0983C76.3968 18.9595 77.081 18.8208 77.6739 18.6821L77.309 20.763C77.2178 20.763 77.0353 20.763 76.8529 20.7168C76.6705 20.7168 76.4424 20.7168 76.1688 20.6705C75.8951 20.6705 75.667 20.6705 75.3934 20.6705C75.1197 20.6705 74.8461 20.6705 74.618 20.6705C74.39 20.6705 74.1619 20.6705 73.9795 20.6705C73.797 20.6705 73.6602 20.6705 73.569 20.6705H67.9589V20.6243C68.0046 20.4393 68.0502 20.2081 68.0958 19.9306C68.1414 19.6532 68.187 19.3295 68.2326 18.9133C68.2782 18.4971 68.2782 18.0347 68.3238 17.4798C68.3238 16.9249 68.3694 16.2775 68.3694 15.5376V7.12139C68.3694 6.3815 68.3694 5.7341 68.3238 5.17919C68.3238 4.62428 68.2782 4.16185 68.2326 3.74567C68.187 3.32948 68.1414 3.00578 68.0958 2.72832C68.0502 2.45087 68.0046 2.21965 67.9589 2.03468V2.08093H71.0148V2.12717C70.9692 2.31214 70.9236 2.54335 70.878 2.82081C70.8324 3.09827 70.7868 3.42197 70.7412 3.83815C70.6956 4.25434 70.6955 4.71676 70.6499 5.27168C70.6499 5.82659 70.6043 6.47399 70.6043 7.21387V19.5144H70.6499Z" fill="#445439"/>
<path d="M78.5861 16.8324C78.5861 16.1387 78.7229 15.5376 78.9966 15.0751C79.2702 14.5665 79.6351 14.1503 80.0912 13.7803C80.5473 13.4104 81.0946 13.1329 81.642 12.9017C82.2349 12.6705 82.8278 12.4855 83.4664 12.3931C84.1049 12.2543 84.6978 12.1618 85.3364 12.1156C85.9293 12.0694 86.5222 12.0231 87.0239 12.0231V11.3757C87.0239 10.8208 86.9327 10.3121 86.7959 9.89595C86.6591 9.47977 86.431 9.15607 86.203 8.87861C85.9293 8.60116 85.61 8.41618 85.2452 8.27746C84.8803 8.13873 84.4698 8.09248 84.0137 8.09248C83.6944 8.09248 83.4208 8.13873 83.1015 8.18497C82.7822 8.23121 82.5086 8.3237 82.1893 8.46243C81.87 8.60115 81.5507 8.73988 81.1859 8.9711C80.821 9.15607 80.4561 9.43353 80.0456 9.75722L79.9088 9.66474L80.7754 7.81503C81.049 7.6763 81.3227 7.58381 81.5963 7.49133C81.87 7.39884 82.1437 7.3526 82.4173 7.30636C82.691 7.26011 82.9647 7.21387 83.2839 7.21387C83.5576 7.21387 83.8769 7.16763 84.1961 7.16763C85.1083 7.16763 85.8381 7.26012 86.4766 7.49133C87.1152 7.72254 87.6169 8 88.0274 8.41618C88.4379 8.78613 88.7115 9.24855 88.894 9.75722C89.0764 10.2659 89.1676 10.8208 89.1676 11.422V15.6301C89.1676 16.3699 89.1676 17.0173 89.2132 17.5723C89.2132 18.1272 89.2588 18.5896 89.3044 19.0058C89.3501 19.422 89.3501 19.7457 89.4413 20.0231C89.4869 20.3006 89.5325 20.5318 89.5781 20.7168V20.763H86.7503V20.7168C86.7959 20.578 86.8415 20.4393 86.8415 20.2543C86.8415 20.0694 86.8871 19.8844 86.8871 19.6532C86.7047 19.7919 86.4766 19.9769 86.2486 20.1156C86.0205 20.3006 85.7469 20.4393 85.4276 20.578C85.1083 20.7168 84.7891 20.8092 84.3786 20.9017C84.0137 20.9942 83.6032 21.0405 83.1471 21.0405C81.642 21.0405 80.5017 20.6705 79.7263 19.9769C78.9966 19.1445 78.5861 18.1272 78.5861 16.8324ZM87.0696 13.0405C86.2942 13.0405 85.5644 13.0867 84.8347 13.1792C84.1049 13.2717 83.4664 13.4104 82.919 13.6879C82.3717 13.9653 81.9156 14.3353 81.5963 14.7977C81.2771 15.2601 81.0946 15.9075 81.0946 16.6936C81.0946 17.711 81.3683 18.4971 81.87 19.0058C82.3717 19.5607 83.0559 19.7919 83.9681 19.7919C84.3786 19.7919 84.7434 19.7457 85.1083 19.6069C85.4276 19.4682 85.7469 19.3295 86.0205 19.1445C86.2942 18.9595 86.5222 18.7746 86.6591 18.5434C86.7959 18.3121 86.9783 18.1272 87.0696 17.9422C87.0696 17.6185 87.1152 17.2486 87.1152 16.8324C87.1152 16.4162 87.1152 15.9538 87.1152 15.4451V13.0405H87.0696Z" fill="#445439"/>
<path d="M108.643 18.4971C108.643 18.5896 108.643 18.6821 108.597 18.7746C108.597 18.8671 108.506 18.9595 108.461 19.052C108.096 19.3295 107.64 19.6069 107.229 19.8844C106.773 20.1156 106.317 20.3468 105.77 20.5318C105.268 20.7168 104.675 20.8555 104.082 20.948C103.489 21.0405 102.851 21.0867 102.166 21.0867C100.616 21.0867 99.2018 20.8555 97.9247 20.3931C96.6477 19.9306 95.553 19.2832 94.6408 18.4509C93.7286 17.6185 92.9989 16.6012 92.4972 15.3988C91.9954 14.1965 91.7218 12.9017 91.7218 11.422C91.7218 10.5896 91.813 9.80347 92.0411 9.01734C92.2691 8.23121 92.5428 7.44509 92.9533 6.75145C93.3637 6.01156 93.8655 5.36416 94.4584 4.76301C95.0513 4.16185 95.7355 3.65318 96.4652 3.19075C97.2406 2.72832 98.0616 2.40462 98.9738 2.17341C99.886 1.9422 100.844 1.80347 101.938 1.80347C102.349 1.80347 102.759 1.80347 103.17 1.84971C103.58 1.89595 104.036 1.9422 104.447 2.03468C104.857 2.12717 105.268 2.21965 105.678 2.31214C106.089 2.40462 106.454 2.54335 106.773 2.68208L107.64 5.08671L107.548 5.13295C107.229 4.80925 106.819 4.53179 106.408 4.30058C105.998 4.06936 105.496 3.83815 104.994 3.60694C104.493 3.42197 103.991 3.28324 103.444 3.14451C102.896 3.05202 102.349 2.95954 101.802 2.95954C100.707 2.95954 99.7491 3.14451 98.8369 3.46821C97.9247 3.79191 97.1494 4.30058 96.5108 4.94798C95.8723 5.59538 95.3706 6.3815 95.0057 7.3526C94.6408 8.27746 94.4584 9.38728 94.4584 10.5896C94.4584 11.9306 94.6408 13.1329 94.9601 14.289C95.2794 15.3988 95.8267 16.4162 96.4652 17.2486C97.1494 18.0809 97.9704 18.7283 98.9738 19.1908C99.9772 19.6532 101.163 19.8844 102.531 19.8844C103.124 19.8844 103.672 19.8382 104.128 19.7457C104.584 19.6532 104.994 19.5145 105.314 19.3757C105.633 19.237 105.861 19.0983 106.043 18.9133C106.226 18.7283 106.271 18.5896 106.271 18.4509V17.9422C106.271 17.341 106.271 16.8324 106.226 16.3699C106.226 15.9075 106.18 15.5376 106.135 15.2139C106.089 14.8902 106.043 14.6127 105.998 14.3815C105.952 14.1503 105.907 13.9191 105.861 13.7341V13.6879H108.917V13.7341C108.871 13.9191 108.826 14.1503 108.78 14.3815C108.734 14.6127 108.689 14.9364 108.643 15.2601C108.597 15.5838 108.597 16 108.552 16.4624C108.552 16.9249 108.506 17.4335 108.506 18.0347V18.4971H108.643Z" fill="#445439"/>
<path d="M111.562 12.4393C111.562 11.6994 111.562 11.052 111.517 10.4971C111.517 9.9422 111.471 9.47977 111.425 9.06358C111.38 8.6474 111.38 8.3237 111.288 8.04624C111.243 7.76879 111.197 7.53757 111.152 7.3526V7.39884H114.116V7.44509C114.071 7.63006 113.979 7.90751 113.934 8.18497C113.888 8.46243 113.843 8.83237 113.843 9.2948C114.162 9.01734 114.481 8.78613 114.846 8.50867C115.165 8.23121 115.53 8 115.895 7.81503C116.26 7.63006 116.625 7.44509 116.99 7.3526C117.355 7.21387 117.719 7.16763 118.13 7.16763C118.358 7.16763 118.54 7.16763 118.723 7.21387C118.905 7.21387 119.042 7.26011 119.179 7.30636C119.316 7.3526 119.453 7.39884 119.544 7.44509C119.635 7.49133 119.772 7.53757 119.863 7.58381L119.225 10.0809L118.997 10.0347C118.905 9.66474 118.723 9.34104 118.404 9.10983C118.13 8.87861 117.719 8.78613 117.263 8.78613C116.99 8.78613 116.716 8.83237 116.442 8.92485C116.169 9.01734 115.849 9.15607 115.576 9.34104C115.257 9.52601 114.983 9.71098 114.664 9.9422C114.344 10.1734 114.071 10.4046 113.797 10.6358C113.797 10.8671 113.751 11.1445 113.751 11.4682C113.751 11.7457 113.751 12.0694 113.751 12.3931V15.7225C113.751 16.4624 113.751 17.1098 113.797 17.6647C113.843 18.2197 113.843 18.6821 113.888 19.0983C113.934 19.5144 113.979 19.8381 114.025 20.1156C114.071 20.3931 114.116 20.6243 114.162 20.8092V20.8555H111.197V20.8092C111.243 20.6243 111.288 20.3931 111.334 20.1156C111.38 19.8381 111.425 19.5144 111.471 19.0983C111.517 18.6821 111.517 18.2197 111.562 17.6647C111.562 17.1098 111.608 16.4624 111.608 15.7225V12.4393H111.562Z" fill="#445439"/>
<path d="M127.024 20.9017C126.066 20.9017 125.2 20.763 124.379 20.4393C123.558 20.1156 122.828 19.6994 122.235 19.0983C121.642 18.4971 121.14 17.8035 120.775 16.9249C120.41 16.0462 120.228 15.0751 120.228 13.9653C120.228 12.9942 120.411 12.0694 120.73 11.237C121.049 10.4046 121.505 9.66474 122.052 9.06358C122.645 8.46243 123.284 7.95376 124.059 7.63006C124.835 7.30636 125.656 7.12139 126.522 7.12139C127.389 7.12139 128.21 7.26012 128.985 7.58382C129.715 7.90751 130.399 8.3237 130.946 8.92486C131.494 9.52601 131.95 10.2197 132.269 11.0983C132.588 11.9769 132.771 12.948 132.771 14.0578C131.813 14.0578 130.855 14.0116 129.897 14.0116C128.94 14.0116 127.936 14.0116 126.887 14.0116C126.157 14.0116 125.428 14.0116 124.698 14.0116C124.014 14.0116 123.375 14.0116 122.782 14.0578C122.828 14.9364 122.965 15.7688 123.193 16.5087C123.421 17.2486 123.74 17.8497 124.105 18.3584C124.515 18.8671 124.971 19.2832 125.564 19.5607C126.112 19.8382 126.75 19.9769 127.48 19.9769C127.982 19.9769 128.438 19.9306 128.894 19.7919C129.35 19.6532 129.715 19.5145 130.08 19.2832C130.445 19.0983 130.764 18.8208 131.038 18.5434C131.311 18.2659 131.539 17.9422 131.767 17.6185L131.904 17.711L130.946 20.0231C130.49 20.2543 129.943 20.4855 129.304 20.6243C128.666 20.8092 127.891 20.9017 127.024 20.9017ZM125.336 12.9942C126.203 12.9942 127.024 12.9942 127.891 12.9942C128.757 12.9942 129.533 12.9942 130.217 12.948C130.125 12.2081 129.989 11.5145 129.761 10.9133C129.533 10.3121 129.259 9.80347 128.94 9.38728C128.62 8.9711 128.21 8.6474 127.754 8.41619C127.298 8.18497 126.796 8.09249 126.249 8.09249C125.747 8.09249 125.291 8.18497 124.88 8.41619C124.47 8.6474 124.105 8.9711 123.786 9.38728C123.466 9.80347 123.238 10.3121 123.056 10.9133C122.873 11.5145 122.737 12.2081 122.737 12.948C123.101 12.948 123.512 12.9942 123.968 12.9942C124.424 12.9942 124.835 12.9942 125.336 12.9942Z" fill="#445439"/>
<path d="M140.707 20.9017C139.749 20.9017 138.883 20.763 138.062 20.4393C137.241 20.1156 136.511 19.6994 135.918 19.0983C135.325 18.4971 134.823 17.8035 134.458 16.9249C134.094 16.0462 133.911 15.0751 133.911 13.9653C133.911 12.9942 134.094 12.0694 134.413 11.237C134.732 10.4046 135.188 9.66474 135.735 9.06358C136.328 8.46243 136.967 7.95376 137.742 7.63006C138.518 7.30636 139.339 7.12139 140.205 7.12139C141.072 7.12139 141.893 7.26012 142.668 7.58382C143.398 7.90751 144.082 8.3237 144.629 8.92486C145.177 9.52601 145.633 10.2197 145.952 11.0983C146.271 11.9769 146.454 12.948 146.454 14.0578C145.496 14.0578 144.538 14.0116 143.58 14.0116C142.623 14.0116 141.619 14.0116 140.57 14.0116C139.84 14.0116 139.111 14.0116 138.381 14.0116C137.697 14.0116 137.058 14.0116 136.465 14.0578C136.511 14.9364 136.648 15.7688 136.876 16.5087C137.104 17.2486 137.423 17.8497 137.788 18.3584C138.198 18.8671 138.655 19.2832 139.247 19.5607C139.795 19.8382 140.433 19.9769 141.163 19.9769C141.665 19.9769 142.121 19.9306 142.577 19.7919C143.033 19.6532 143.398 19.5145 143.763 19.2832C144.128 19.0983 144.447 18.8208 144.721 18.5434C144.994 18.2659 145.222 17.9422 145.45 17.6185L145.587 17.711L144.629 20.0231C144.173 20.2543 143.626 20.4855 142.987 20.6243C142.349 20.8092 141.574 20.9017 140.707 20.9017ZM138.974 12.9942C139.84 12.9942 140.661 12.9942 141.528 12.9942C142.395 12.9942 143.17 12.9942 143.854 12.948C143.763 12.2081 143.626 11.5145 143.398 10.9133C143.17 10.3121 142.896 9.80347 142.577 9.38728C142.258 8.9711 141.847 8.6474 141.391 8.41619C140.935 8.18497 140.433 8.09249 139.886 8.09249C139.384 8.09249 138.928 8.18497 138.518 8.41619C138.107 8.6474 137.742 8.9711 137.423 9.38728C137.104 9.80347 136.876 10.3121 136.693 10.9133C136.511 11.5145 136.374 12.2081 136.374 12.948C136.739 12.948 137.149 12.9942 137.605 12.9942C138.107 12.9942 138.518 12.9942 138.974 12.9942Z" fill="#445439"/>
<path d="M157.446 11.9306C157.446 10.7746 157.218 9.9422 156.762 9.43353C156.306 8.92486 155.713 8.6474 154.937 8.6474C154.664 8.6474 154.344 8.69364 154.025 8.83237C153.706 8.9711 153.341 9.10983 152.976 9.2948C152.611 9.47977 152.246 9.71098 151.881 9.98844C151.517 10.2659 151.197 10.5434 150.878 10.8208L150.832 12.5318V15.6763C150.832 16.4162 150.832 17.0636 150.878 17.6185C150.878 18.1734 150.924 18.6358 150.969 19.052C151.015 19.4682 151.06 19.7919 151.106 20.0694C151.152 20.3468 151.197 20.578 151.243 20.763V20.8092H148.278V20.763C148.324 20.578 148.369 20.3468 148.415 20.0694C148.461 19.7919 148.506 19.4682 148.552 19.052C148.598 18.6358 148.597 18.1734 148.643 17.6185C148.643 17.0636 148.689 16.4162 148.689 15.6763V12.5318C148.689 11.7919 148.689 11.1445 148.643 10.5896C148.643 10.0347 148.598 9.57225 148.552 9.15607C148.506 8.73988 148.506 8.41619 148.415 8.13873C148.369 7.86127 148.324 7.63006 148.278 7.44509V7.39884H151.243V7.44509C151.197 7.6763 151.106 7.95376 151.06 8.27746C151.015 8.60116 150.969 9.06358 150.924 9.57226C151.288 9.2948 151.653 8.9711 152.064 8.69364C152.474 8.41619 152.885 8.13873 153.341 7.90752C153.797 7.6763 154.208 7.49133 154.664 7.3526C155.12 7.21387 155.576 7.12139 155.986 7.12139C156.67 7.12139 157.218 7.26012 157.674 7.49133C158.13 7.72254 158.54 8.04624 158.814 8.41619C159.088 8.78613 159.316 9.24856 159.453 9.71098C159.59 10.2197 159.635 10.6821 159.635 11.1908V15.5838C159.635 16.3237 159.635 16.9711 159.681 17.526C159.681 18.0809 159.726 18.5434 159.772 18.9595C159.818 19.3757 159.863 19.6994 159.909 19.9769C159.954 20.2543 160 20.4856 160.046 20.6705V20.7168H157.081V20.6705C157.127 20.4856 157.172 20.2543 157.218 19.9769C157.263 19.6994 157.309 19.3757 157.355 18.9595C157.4 18.5434 157.4 18.0809 157.446 17.526C157.446 16.9711 157.491 16.3237 157.491 15.5838V11.9306H157.446Z" fill="#445439"/>
<path d="M71.106 27.3295C72.1551 27.3295 73.1129 27.3295 74.0251 27.2832C74.8917 27.2832 75.667 27.237 76.26 27.237C76.8985 27.1908 77.309 27.1908 77.5371 27.1445L76.8985 28.8555C76.6249 28.763 76.3056 28.7168 75.8951 28.6705C75.5758 28.6243 75.1653 28.578 74.7092 28.5318C74.2531 28.4855 73.7058 28.4393 73.1129 28.4393C72.9304 28.4393 72.6568 28.4393 72.3831 28.4393C72.1095 28.4393 71.8358 28.4855 71.5621 28.4855C71.2429 28.4855 70.9236 28.5318 70.6499 28.5318V35.6069C71.5165 35.6069 72.3375 35.5607 73.0217 35.5145C73.7514 35.4682 74.3444 35.422 74.8461 35.3757C75.439 35.3295 75.9407 35.2832 76.3968 35.1907L75.9863 37.0867C75.3934 36.9942 74.8005 36.948 74.1619 36.8555C73.6146 36.8092 73.0673 36.763 72.4287 36.7168C71.7902 36.6705 71.1973 36.6243 70.6499 36.6243V44.763C71.6534 44.763 72.5656 44.7168 73.4322 44.6243C74.2987 44.5318 75.0285 44.4393 75.667 44.3468C76.3968 44.2081 77.081 44.0694 77.6739 43.9306L77.309 46.0116C77.2178 46.0116 77.0353 46.0116 76.8529 45.9653C76.6705 45.9653 76.4424 45.9653 76.1688 45.9191C75.8951 45.9191 75.667 45.9191 75.3934 45.9191C75.1197 45.9191 74.8461 45.9191 74.618 45.9191C74.39 45.9191 74.1619 45.9191 73.9795 45.9191C73.797 45.9191 73.6602 45.9191 73.569 45.9191H67.9589V45.8728C68.0046 45.6879 68.0502 45.4566 68.0958 45.1792C68.1414 44.9017 68.187 44.578 68.2326 44.1618C68.2782 43.7457 68.2782 43.2832 68.3238 42.7283C68.3238 42.1734 68.3694 41.526 68.3694 40.7861V32.4624C68.3694 31.7225 68.3694 31.0751 68.3238 30.5202C68.3238 29.9653 68.2782 29.5029 68.2326 29.0867C68.187 28.6705 68.1414 28.3468 68.0958 28.0694C68.0502 27.7919 68.0046 27.5607 67.9589 27.3757V27.3295C69.008 27.3757 70.057 27.3757 71.106 27.3295Z" fill="#445439"/>
<path d="M81.5963 32.6936V32.7399C81.5963 32.7861 81.5507 32.8324 81.5507 32.9249C81.5507 33.0173 81.5507 33.1098 81.5507 33.1561C81.5507 33.4335 81.5964 33.711 81.6876 34.0347C81.7788 34.3584 81.9156 34.7746 82.0981 35.237L85.1539 42.6358L88.2554 35.3757C88.3922 35.052 88.5291 34.7283 88.6659 34.3121C88.8027 33.9422 88.894 33.526 88.894 33.1561C88.894 33.0636 88.894 32.9711 88.8484 32.8786C88.8484 32.7861 88.8027 32.7399 88.8027 32.7399V32.6936H91.0832V32.7399C90.9464 32.9249 90.7184 33.2023 90.4903 33.6185C90.2623 34.0347 89.9886 34.5433 89.7606 35.1907L85.0627 46.1503H84.2873L79.9088 35.8381C79.7719 35.4682 79.5895 35.0983 79.4071 34.7283C79.2246 34.3584 79.0878 34.0809 78.9054 33.8035C78.7685 33.526 78.6317 33.2948 78.4949 33.1098C78.358 32.9249 78.3124 32.7861 78.2668 32.7399V32.6936H81.5963Z" fill="#445439"/>
<path d="M98.0616 46.1965C97.1038 46.1965 96.2372 46.0578 95.4162 45.7341C94.5952 45.4104 93.8655 44.9942 93.2725 44.3931C92.6796 43.7919 92.1779 43.0983 91.813 42.2197C91.4481 41.341 91.2657 40.3699 91.2657 39.2601C91.2657 38.289 91.4481 37.3642 91.7674 36.5318C92.0867 35.6994 92.5428 34.9595 93.0901 34.3584C93.683 33.7572 94.3216 33.2486 95.0969 32.9249C95.8723 32.6012 96.6933 32.4162 97.5599 32.4162C98.4265 32.4162 99.2474 32.5549 100.023 32.8786C100.753 33.2023 101.437 33.6185 101.984 34.2197C102.531 34.8208 102.987 35.5144 103.307 36.3931C103.626 37.2717 103.808 38.2428 103.808 39.3526C102.851 39.3526 101.893 39.3064 100.935 39.3064C99.9772 39.3064 98.9738 39.3064 97.9247 39.3064C97.195 39.3064 96.4652 39.3064 95.7355 39.3064C95.0513 39.3064 94.4128 39.3064 93.8198 39.3526C93.8655 40.2312 94.0023 41.0636 94.2303 41.8035C94.4584 42.5434 94.7777 43.1445 95.1425 43.6532C95.553 44.1618 96.0091 44.578 96.6021 44.8555C97.1494 45.1329 97.7879 45.2717 98.5177 45.2717C99.0194 45.2717 99.4755 45.2254 99.9316 45.0867C100.388 44.948 100.753 44.8092 101.117 44.578C101.482 44.3931 101.802 44.1156 102.075 43.8382C102.349 43.5607 102.577 43.237 102.805 42.9133L102.942 43.0058L101.984 45.3179C101.528 45.5491 100.981 45.7803 100.342 45.9191C99.7491 46.104 98.9738 46.1965 98.0616 46.1965ZM96.374 38.289C97.2406 38.289 98.0616 38.289 98.9282 38.289C99.7948 38.289 100.57 38.289 101.254 38.2428C101.163 37.5029 101.026 36.8092 100.798 36.2081C100.57 35.6069 100.296 35.0983 99.9772 34.6821C99.6579 34.2659 99.2474 33.9422 98.7913 33.711C98.3352 33.4798 97.8335 33.3873 97.2862 33.3873C96.7845 33.3873 96.3284 33.4798 95.9179 33.711C95.5074 33.9422 95.1425 34.2659 94.8233 34.6821C94.504 35.0983 94.2759 35.6069 94.0935 36.2081C93.9111 36.8092 93.7742 37.5029 93.7742 38.2428C94.1391 38.2428 94.5496 38.289 95.0057 38.289C95.4618 38.289 95.9179 38.289 96.374 38.289Z" fill="#445439"/>
<path d="M114.8 37.2254C114.8 36.0694 114.572 35.237 114.116 34.7283C113.66 34.1734 113.067 33.9422 112.292 33.9422C112.018 33.9422 111.699 33.9884 111.38 34.1272C111.06 34.2659 110.696 34.4046 110.331 34.5896C109.966 34.7746 109.601 35.0058 109.236 35.2832C108.871 35.5607 108.552 35.8381 108.233 36.1156L108.187 37.8266V40.9711C108.187 41.711 108.187 42.3584 108.233 42.9133C108.233 43.4682 108.278 43.9306 108.324 44.3468C108.369 44.763 108.415 45.0867 108.461 45.3642C108.506 45.6416 108.552 45.8728 108.597 46.0578V46.104H105.633V46.0578C105.678 45.8728 105.724 45.6416 105.77 45.3642C105.815 45.0867 105.861 44.763 105.906 44.3468C105.952 43.9306 105.952 43.4682 105.998 42.9133C105.998 42.3584 106.043 41.711 106.043 40.9711V37.8266C106.043 37.0867 106.043 36.4393 105.998 35.8844C105.998 35.3295 105.952 34.8671 105.906 34.4509C105.861 34.0347 105.861 33.711 105.77 33.4335C105.724 33.1561 105.678 32.9249 105.633 32.7399V32.6936H108.597V32.7399C108.552 32.9711 108.461 33.2486 108.415 33.5723C108.369 33.896 108.324 34.3584 108.278 34.8671C108.643 34.5896 109.008 34.2659 109.418 33.9884C109.829 33.711 110.239 33.4335 110.696 33.2023C111.152 32.9711 111.562 32.7861 112.018 32.6474C112.474 32.5087 112.93 32.4162 113.341 32.4162C114.025 32.4162 114.572 32.5549 115.029 32.7861C115.485 33.0173 115.895 33.341 116.169 33.711C116.442 34.0809 116.67 34.5434 116.807 35.0058C116.944 35.5144 116.99 35.9769 116.99 36.4855V40.8786C116.99 41.6185 116.99 42.2659 117.035 42.8208C117.035 43.3757 117.081 43.8381 117.127 44.2543C117.172 44.6705 117.218 44.9942 117.263 45.2717C117.309 45.5491 117.355 45.7803 117.4 45.9653V46.0116H114.436V45.9653C114.481 45.7803 114.527 45.5491 114.572 45.2717C114.618 44.9942 114.664 44.6705 114.709 44.2543C114.755 43.8381 114.755 43.3757 114.8 42.8208C114.8 42.2659 114.846 41.6185 114.846 40.8786V37.2254H114.8Z" fill="#445439"/>
<path d="M125.017 45.1792C125.291 45.1792 125.519 45.1329 125.792 45.0405C126.066 44.948 126.294 44.8092 126.522 44.6705C126.75 44.4855 126.978 44.3006 127.206 44.1156C127.434 43.8844 127.617 43.6994 127.799 43.4682L127.936 43.5144L127.115 45.5954C127.024 45.6416 126.887 45.6879 126.75 45.7803C126.613 45.8728 126.431 45.9191 126.203 45.9653C125.975 46.0116 125.747 46.104 125.473 46.1503C125.2 46.1965 124.88 46.2428 124.47 46.2428C123.33 46.2428 122.417 45.9191 121.824 45.3179C121.186 44.6705 120.867 43.6994 120.867 42.3584V33.711L118.723 33.8035V32.6474C118.997 32.6474 119.316 32.6936 119.681 32.6936C120.046 32.6936 120.456 32.6936 120.867 32.6936C120.867 32.0925 120.821 31.5376 120.821 31.0751C120.821 30.6127 120.775 30.1965 120.73 29.8266C120.684 29.4566 120.684 29.1792 120.639 28.948C120.593 28.7168 120.547 28.4855 120.502 28.3468V28.3006H123.466V28.3468C123.421 28.5318 123.375 28.7168 123.33 28.948C123.284 29.1792 123.238 29.5029 123.238 29.8266C123.193 30.1503 123.193 30.5665 123.147 31.0751C123.147 31.5376 123.101 32.0925 123.101 32.6936C123.649 32.6936 124.151 32.6936 124.698 32.6474C125.2 32.6474 125.701 32.6012 126.112 32.6012C126.522 32.6012 126.887 32.5549 127.206 32.5549C127.48 32.5549 127.708 32.5087 127.799 32.5087L127.571 33.8497C127.115 33.8497 126.659 33.8497 126.203 33.8035C125.792 33.8035 125.336 33.7572 124.789 33.7572C124.242 33.7572 123.694 33.7572 123.147 33.711V42.6358C123.147 43.1907 123.193 43.6069 123.33 43.9306C123.466 44.2543 123.603 44.5318 123.786 44.7168C123.968 44.9017 124.196 45.0405 124.424 45.0867C124.515 45.1792 124.743 45.1792 125.017 45.1792Z" fill="#445439"/>
<path d="M135.69 35.2832L135.507 35.3295C135.462 35.1445 135.371 34.9133 135.234 34.6821C135.097 34.4509 134.914 34.2659 134.732 34.0809C134.504 33.896 134.276 33.711 133.957 33.6185C133.683 33.4798 133.318 33.4335 132.953 33.4335C132.68 33.4335 132.452 33.4798 132.223 33.5723C131.995 33.6647 131.767 33.7572 131.631 33.896C131.448 34.0347 131.311 34.2197 131.22 34.4509C131.129 34.6821 131.083 34.9595 131.083 35.237C131.083 35.6532 131.22 36.0694 131.494 36.4393C131.767 36.8092 132.087 37.2254 132.452 37.5954C132.862 37.9653 133.273 38.3353 133.729 38.7514C134.185 39.1214 134.595 39.5376 135.006 39.9538C135.416 40.3699 135.735 40.8324 135.964 41.2948C136.237 41.7572 136.374 42.2659 136.374 42.8208C136.374 43.2832 136.283 43.6994 136.146 44.1156C136.009 44.5318 135.735 44.9017 135.416 45.2254C135.097 45.5491 134.686 45.8266 134.185 46.0116C133.683 46.1965 133.09 46.3353 132.406 46.3353C131.995 46.3353 131.631 46.289 131.266 46.1965C130.901 46.104 130.582 46.0116 130.308 45.9191C130.034 45.7803 129.761 45.6879 129.532 45.5491C129.304 45.4104 129.076 45.2717 128.894 45.1329L129.031 42.6821H129.213C129.304 43.0983 129.441 43.4682 129.578 43.7919C129.761 44.1156 129.943 44.4393 130.217 44.6705C130.49 44.9017 130.764 45.0867 131.083 45.2254C131.402 45.3642 131.767 45.4104 132.132 45.4104C132.771 45.4104 133.273 45.2254 133.637 44.9017C134.002 44.5318 134.185 44.0694 134.185 43.5144C134.185 43.052 134.048 42.6358 133.82 42.2659C133.546 41.896 133.273 41.526 132.862 41.1561C132.497 40.7861 132.087 40.4624 131.631 40.0925C131.174 39.7225 130.764 39.3526 130.399 38.9364C130.034 38.5202 129.715 38.104 129.441 37.5954C129.168 37.1329 129.076 36.578 129.076 35.9769C129.076 35.4682 129.168 35.0058 129.35 34.5896C129.532 34.1734 129.806 33.8035 130.125 33.526C130.445 33.2486 130.855 33.0173 131.311 32.8324C131.767 32.6474 132.269 32.6012 132.816 32.6012C133.546 32.6012 134.093 32.6936 134.595 32.8324C135.051 32.9711 135.416 33.1098 135.69 33.2486V35.2832Z" fill="#445439"/>
<path d="M33.1129 19.9769C33.6146 19.5607 34.1163 19.0983 34.618 18.6358C36.488 16.9249 38.358 15.1676 40.0456 13.1792C41.0946 11.9306 42.2349 10.7283 43.3751 9.6185C44.0137 9.01734 44.5154 8.27746 45.1539 7.6763C45.2452 7.58382 45.382 7.44509 45.2908 7.3526C45.1539 7.21387 45.0627 7.39884 44.9259 7.49133C44.6978 7.6763 44.4698 7.86127 44.2417 8.09249C42.3261 10.1734 40.3193 12.1618 38.3124 14.104C36.4424 15.8613 34.7548 17.8035 32.9761 19.6532C32.8392 19.7919 32.6568 19.9769 32.6112 20.2543C32.8848 20.2543 32.9761 20.0694 33.1129 19.9769Z" fill="#445439"/>
<path d="M28.3238 17.6185C28.3694 16.9711 28.4151 16.2775 28.4607 15.6301C28.5975 13.0405 28.7343 10.4971 28.5519 7.90752C28.4607 6.28902 28.4151 4.62428 28.4607 3.00578C28.5063 2.12717 28.3694 1.24856 28.3694 0.369943C28.3694 0.231215 28.3694 0.0462437 28.2326 0.0462437C28.0502 0.0462437 28.0958 0.277458 28.0502 0.369943C28.0046 0.693643 28.0046 0.971099 28.0046 1.2948C28.0502 4.11561 28.0502 6.98266 27.959 9.80347C27.8677 12.3931 28.0046 14.9364 28.0046 17.526C28.0046 17.7572 28.0046 17.9884 28.187 18.2197C28.3238 17.9884 28.2782 17.8035 28.3238 17.6185Z" fill="#445439"/>
<path d="M34.8461 22.1965C36.7161 21.3642 38.6317 20.763 40.5017 20.0231C43.6488 18.7283 46.8415 17.4798 49.9886 16.185C50.3535 16.0462 50.6271 15.7688 50.992 15.5838C51.0376 15.5376 51.1289 15.5376 51.0832 15.4451C51.0376 15.3526 50.992 15.3988 50.9008 15.3988C50.6271 15.4451 50.3991 15.4913 50.171 15.5838C48.4379 16.2775 46.7959 17.1098 44.9715 17.6185C44.2417 17.8035 43.5576 18.1272 42.8278 18.3584C41.1403 18.9595 39.5439 19.8844 37.9019 20.5318C36.7161 20.9942 35.5302 21.5029 34.39 22.0578C34.2531 22.1503 34.1163 22.1503 33.9795 22.3815C34.3444 22.474 34.618 22.3353 34.8461 22.1965Z" fill="#445439"/>
<path d="M11.9954 8.3237C13.455 9.9422 14.9145 11.5607 16.4652 13.1329C18.5177 15.2139 20.4333 17.341 22.6226 19.3295C22.9418 19.6532 23.3067 19.9306 23.7628 20.2081C23.1243 18.8671 12.4971 8.18497 11.7674 7.90752C11.7218 8.09249 11.9042 8.18497 11.9954 8.3237Z" fill="#445439"/>
<path d="M21.984 21.9653C21.3455 21.7341 20.7526 21.5029 20.114 21.2717C18.8826 20.763 17.7423 20.1618 16.5108 19.6994C14.4128 18.8671 12.2235 18.2197 10.1254 17.2948C9.30445 16.9249 8.48347 16.5549 7.61687 16.3237C7.48004 16.2775 7.25199 16.0925 7.20638 16.2775C7.16077 16.4624 7.43443 16.5087 7.57126 16.5549C8.84835 17.1098 10.171 17.5723 11.4481 18.2197C12.3603 18.6358 13.2725 19.0983 14.1847 19.5145C16.5564 20.5318 19.0194 21.2254 21.4367 22.0578C21.7104 22.1503 21.984 22.289 22.3489 22.2428C22.3033 22.0578 22.1209 22.0116 21.984 21.9653Z" fill="#445439"/>
<path d="M31.1517 17.5723C32.0639 15.7225 33.0673 13.9653 33.8883 12.0694C34.5724 10.5896 35.0741 9.01734 35.8039 7.49133C36.2144 6.65896 36.5792 5.82659 36.9897 4.99422C37.0353 4.90173 37.1266 4.80925 36.9897 4.71676C36.8985 4.67052 36.8529 4.80925 36.7617 4.85549C36.7161 4.90173 36.6705 4.99422 36.6249 5.08671C36.26 5.68786 35.9863 6.33526 35.7127 7.0289C35.2109 8.27746 34.4356 9.38728 33.8426 10.5896C32.6568 12.9942 31.6077 15.4913 30.6499 17.9884C30.5587 18.1734 30.4675 18.3584 30.5587 18.6358C30.878 18.3121 30.9692 17.9422 31.1517 17.5723Z" fill="#445439"/>
<path d="M21.1174 5.50289C21.2543 6.0578 21.5279 6.52023 21.6648 7.07515C22.1665 8.78613 22.5314 10.5434 23.0787 12.2081C23.7172 14.1503 24.3101 16.0925 25.2223 17.9422C25.3136 18.1272 25.3592 18.3121 25.5416 18.4509C25.5872 17.711 21.5279 5.36416 20.9806 4.62428C20.935 4.99422 21.0262 5.27168 21.1174 5.50289Z" fill="#445439"/>
<path d="M34.1163 23.3988C38.951 22.6127 43.6944 21.8266 48.3922 20.7168C47.7993 20.3931 34.8917 22.7977 34.1163 23.3988Z" fill="#445439"/>
<path d="M43.2383 14.474C42.6454 14.8902 42.0525 15.3064 41.4139 15.7225C39.179 17.1561 36.9441 18.5896 34.7092 20.0694C34.2531 20.3468 33.8883 20.7168 33.5234 21.1329C37.081 19.1445 40.5017 17.0173 43.6488 14.4277C43.4664 14.289 43.3751 14.3815 43.2383 14.474Z" fill="#445439"/>
<path d="M12.4059 14.0116C15.8723 16.6474 19.293 19.3295 23.1699 21.3642C19.7491 18.6358 16.0547 16.4162 12.4971 13.8728C12.4971 13.9191 12.4515 13.9653 12.4059 14.0116Z" fill="#445439"/>
<path d="M31.6534 19.3757C34.2531 16.3237 36.3056 12.8555 38.4493 9.47977C37.9019 9.75723 31.7446 18.6821 31.6534 19.3757Z" fill="#445439"/>
<path d="M29.4185 18.4971C29.5553 18.4046 29.6009 18.2197 29.6465 18.0347C30.1482 16.6474 30.2395 15.1676 30.5131 13.7341C30.878 11.6994 31.1973 9.71098 31.6534 7.6763C31.7446 7.26012 31.7902 6.84393 31.8814 6.28902C31.3341 6.79769 29.236 17.6185 29.4185 18.4971Z" fill="#445439"/>
<path d="M22.4857 23.4451C21.3455 22.8902 8.98518 20.763 8.2098 20.9942C12.9532 21.9191 17.6511 22.7515 22.4857 23.4451Z" fill="#445439"/>
<path d="M18.016 8.78613C17.9247 9.15607 24.2189 19.0058 24.8119 19.4682C22.9875 15.5838 20.3421 12.3006 18.016 8.78613Z" fill="#445439"/>
<path d="M26.6363 18.0809C26.6819 18.2197 26.6819 18.4046 26.8643 18.5896C26.6363 14.4277 25.9065 10.4046 25.1767 6.42775C25.0855 6.7052 26.4538 17.4798 26.6363 18.0809Z" fill="#445439"/>
<path d="M56.6933 25.2486C56.6477 24.0462 56.6021 23.4451 56.6021 23.1214C56.6021 22.7977 56.6021 22.7977 56.6021 22.7977C54.0935 23.815 54.0479 23.815 54.0479 23.815C51.2201 24.9711 46.0661 24.5549 42.691 25.0636C41.9156 25.2023 35.7127 26.2197 32.1551 31.2139C28.9168 35.7919 29.6009 41.2486 29.9202 42.9595C29.3273 43.7919 28.8255 44.578 28.4151 45.2717C28.0046 44.578 27.4572 43.7919 26.9099 42.9595C27.2292 41.2486 27.9133 35.7919 24.675 31.2139C21.1174 26.1734 14.9145 25.1561 14.1391 25.0636C10.764 24.5549 5.65565 24.9711 2.78221 23.815C2.78221 23.815 2.7366 23.7688 0.228051 22.7977C0.228051 22.7977 0.228051 22.7977 0.228051 23.1214C0.228051 23.4451 0.182441 24.0462 0.136831 25.2486C-0.0456089 29.5491 1.27708 33.8035 3.92246 37.5954C6.7959 41.7572 10.4903 44.9942 14.9145 44.8555C17.3318 44.763 23.4892 42.5896 25.7241 45.7803C18.8826 34.3584 9.44128 32.2312 8.84835 32.1387C17.9704 33.2948 23.626 39.9538 26.4994 44.6243C26.8643 45.2717 27.2748 45.9191 27.5941 46.6127C27.5941 46.659 27.6397 46.659 27.6397 46.7052C27.8677 47.1676 28.0958 47.6301 28.3238 48.0925C28.5519 47.6301 28.7799 47.1676 29.008 46.7052C29.008 46.659 29.0536 46.659 29.0536 46.6127C29.4185 45.9191 29.7834 45.2717 30.1482 44.6243C33.0673 39.9538 38.7229 33.2948 47.7993 32.1387C47.2064 32.2775 37.7651 34.4046 31.0604 45.7803C33.2953 42.5896 39.4527 44.763 41.87 44.8555C46.2942 44.9942 49.9886 41.7572 52.862 37.5954C55.5074 33.8035 56.8757 29.5491 56.6933 25.2486Z" fill="#445439"/>
</g>
<defs>
<clipPath id="clip0_59_134">
<rect width="160" height="48" fill="white"/>
</clipPath>
</defs>
</svg>
