<svg width="174" height="54" viewBox="0 0 174 54" fill="none" xmlns="http://www.w3.org/2000/svg">
<path fill-rule="evenodd" clip-rule="evenodd" d="M39.6414 0.857951C32.9424 2.55816 26.3134 7.55756 20.463 15.3217C19.3819 16.7565 18.792 17.2248 17.8384 17.4039C16.176 17.7162 12.9312 17.2772 12.3109 16.6556C11.9169 16.2609 11.8092 16.2511 11.8153 16.6112C11.8311 17.5496 13.0912 18.6707 15.0069 19.4507C16.0155 19.8615 16.3792 21.104 15.7512 21.9938L14.6673 23.5291C10.7433 29.0885 7.77015 31.3758 4.83341 31.0951C3.62531 30.9795 3.51634 31.0227 4.04121 31.4075C4.37622 31.6527 5.20614 31.8618 5.8856 31.8718C7.1135 31.8899 7.10954 31.8948 5.23404 32.6545C1.36916 34.2197 -0.909793 37.5532 1.2206 38.5258C2.12668 38.9397 2.04203 38.9567 10.9946 36.5692C20.5421 34.0235 35.9002 35.0075 38.5102 38.3323C38.886 38.8106 39.1071 39.427 39.0019 39.7017C38.8967 39.9766 38.9834 40.2013 39.195 40.2013C39.7687 40.2013 39.6618 37.5438 39.0394 36.3379C37.8826 34.0968 32.8862 31.9681 26.8692 31.1528C23.622 30.7128 11.2632 30.8202 9.89828 31.3004C9.37587 31.4844 9.41847 31.3907 10.0717 30.9226C11.6294 29.806 13.2121 27.9164 15.7007 24.2011C17.2321 21.915 19.7914 20.5302 22.5428 20.4989L22.7014 20.4972C32.3626 20.3875 43.2533 16.6751 48.7695 11.6104C53.2009 7.5423 53.5046 3.23606 49.5065 1.16203C47.5122 0.12727 43.0608 -0.00978088 39.6414 0.857951ZM83.493 1.0197C78.8993 2.51198 75.3123 6.45739 74.1212 11.3273C73.4845 13.9309 73.262 18.5329 73.697 20.1141C74.167 21.8241 74.641 21.1298 74.646 18.7229C74.6568 13.6865 77.1081 7.42297 80.3312 4.19334C82.3558 2.16474 83.5173 1.77941 85.1483 2.59568C87.5415 3.79406 88.4832 7.84731 87.8547 14.2449C87.363 19.2473 85.8589 27.1761 84.2336 33.3316C82.9182 38.3129 82.8952 38.2537 85.7599 37.2408C86.5774 36.9519 87.2947 36.7641 87.3538 36.8231C87.4128 36.8819 86.9198 37.8309 86.258 38.9311C85.5965 40.0316 85.0552 41.0805 85.0552 41.2622C85.0552 42.155 85.8453 41.3299 87.4876 38.7229C92.3564 30.9931 101.252 19.5812 107.418 13.1551C114.073 6.21836 119.75 2.28784 123.114 2.28784C124.178 2.28784 124.63 2.14362 124.63 1.80335C124.63 0.699978 121.829 0.583098 118.973 1.56752C113.601 3.41967 105.977 10.794 97.1918 22.6359C95.3467 25.123 93.0868 28.2943 92.1696 29.6837C91.2524 31.0728 90.4645 32.1685 90.4179 32.1183C90.3717 32.0684 90.6363 30.8534 91.0054 29.4186C94.3907 16.2637 93.5919 4.39128 89.1373 1.65311C87.6345 0.729199 85.2205 0.458301 83.493 1.0197ZM41.3569 1.27608C36.2684 2.15738 32.1211 4.30852 28.0046 8.20096C25.5205 10.5495 20.2938 16.8198 20.5806 17.1071C20.6438 17.1705 22.484 16.8574 24.6696 16.4115C32.3342 14.848 41.5527 11.2351 45.221 8.35743C50.6056 4.13339 48.3821 0.0586531 41.3569 1.27608ZM111.786 11.7867C111.786 11.9415 111.629 11.9714 111.438 11.8532C111.107 11.648 110.951 12.2946 111.06 13.4185C111.098 13.8194 110.995 13.7944 110.613 13.3106C110.111 12.6737 109.989 12.7402 109.587 13.8713C109.464 14.2161 109.492 14.4184 109.649 14.3215C109.806 14.2244 109.934 14.3656 109.934 14.6359C109.934 14.906 109.835 15.0661 109.715 14.9913C109.344 14.7615 108.767 15.2932 108.517 16.095C108.308 16.7659 108.44 16.889 109.598 17.1083L109.926 17.1701C110.193 17.2204 110.218 17.5924 109.961 17.6787C109.435 17.855 109.088 18.136 109.191 18.3027C109.44 18.7069 110.322 18.3691 111.716 17.3364C111.908 17.1935 112.11 17.0681 112.306 16.9658C112.763 16.7275 113.19 16.6142 113.402 16.6956C113.873 16.877 113.888 16.9805 113.436 17.6787C113.42 17.7042 113.403 17.7306 113.385 17.7575C112.687 18.8258 112.682 19.3653 113.366 20.2216C113.889 20.8776 113.898 20.8748 113.689 20.1141C113.475 19.3329 113.98 19.0168 114.388 19.6775C114.672 20.1384 115.978 20.8282 115.901 20.4768C115.868 20.3253 115.963 19.9203 116.113 19.5774C116.262 19.2345 116.289 18.8581 116.172 18.7416C116.056 18.6247 116.439 18.1756 117.024 17.7437C117.936 17.0692 117.997 16.9346 117.453 16.7938C116.868 16.6421 116.866 16.6264 117.433 16.5893C117.922 16.5572 118.001 16.3535 117.822 15.5924C117.559 14.4796 116.383 13.0707 115.717 13.0707C115.464 13.0707 115.254 12.8752 115.252 12.6358C115.248 12.313 115.17 12.3213 114.95 12.6689C114.732 13.0147 114.596 12.9012 114.429 12.2348C114.233 11.4562 114.037 11.3446 112.994 11.4191C112.33 11.4664 111.787 11.6319 111.786 11.7867ZM144.641 12.3847C143.206 12.8156 142.538 13.5301 140.024 17.326C138.448 19.7051 137.57 20.7228 137.092 20.7228C134.876 20.7228 132.676 22.8442 133.66 24.0328C133.91 24.334 134.362 24.4875 134.666 24.3736C135.997 23.8742 129.367 30.0189 126.565 31.8812C124.861 33.0138 123.344 33.9403 123.195 33.9403C123.045 33.9403 123.374 33.1966 123.925 32.2882C124.477 31.3796 125.578 28.6355 126.372 26.1907C127.166 23.7459 128.188 21.3023 128.643 20.7607C129.098 20.2191 129.371 19.6758 129.249 19.5539C129.127 19.4313 128.233 19.3329 127.262 19.3346C124.757 19.3395 122.89 20.5302 117.381 25.6384C114.83 28.0042 111.863 30.6246 110.789 31.4602C108.378 33.3361 105.49 34.7296 104.669 34.4141C103.178 33.8404 105.194 27.6155 108.11 23.7892C109.297 22.2321 109.32 22.1499 108.631 21.9308C107.445 21.5534 105.139 23.0787 101.365 26.7376C97.8493 30.1459 96.7086 31.9967 99.6409 29.5357C100.497 28.8169 100.943 28.5358 100.632 28.9108C98.839 31.0715 98.3183 34.1667 99.5417 35.3923C101.253 37.107 104.608 36.7268 108.009 34.4335C109.017 33.7543 109.96 33.1699 110.106 33.1348C110.252 33.0996 110.667 33.6148 111.028 34.2795C111.925 35.9299 114.157 37.0708 116.49 37.0708C120.207 37.0708 123.787 35.4509 128.548 31.6141C130.777 29.8179 130.89 29.7685 130.631 30.6975C130.481 31.2374 130.358 32.5751 130.358 33.67C130.358 36.0023 131.067 36.9758 132.995 37.2893C135.561 37.7067 139.164 35.8809 143.241 32.0972L144.398 31.0246C144.707 30.7367 145.206 31.0088 145.131 31.4256C144.571 34.5564 145.825 36.3776 148.534 36.3716C150.762 36.3671 153.208 35.1372 155.864 32.6863C157.103 31.5428 157.964 30.9435 157.812 31.3317C156.656 34.2853 157.717 36.4702 160.308 36.4702C162.857 36.4702 167.278 33.7703 172.081 29.2808C174.785 26.7557 174.246 26.4328 171.45 28.9006C168.381 31.6075 163.743 34.6601 162.576 34.7417C161.748 34.7994 161.584 34.6642 161.49 33.8461C161.363 32.7448 162.069 31.4861 164.572 28.3499C166.542 25.8791 166.65 24.9959 165.072 24.2028C164.499 23.915 163.549 23.1833 162.957 22.5771C161.486 21.0652 159.476 20.5639 156.788 21.0382C153.24 21.6648 151.221 22.9334 147.02 27.1778C141.435 32.8221 137.485 35.6796 135.266 35.6796C133.742 35.6796 133.554 33.3559 134.852 30.5633C135.745 28.6401 138.144 24.8971 139.32 23.5924C140.268 22.5409 143.322 22.496 145.203 23.5063C146.151 24.0151 146.5 24.0797 146.5 23.7464C146.5 22.8557 145.604 22.0947 143.598 21.278C142.624 20.8818 142.359 19.627 143.09 18.8713L145.416 16.4658C147.535 14.2745 149.166 12.3792 149.041 12.2542C148.726 11.9388 145.84 12.0244 144.641 12.3847ZM126.107 20.3649C123.822 21.4043 121.729 22.9647 116.884 27.2407C114.426 29.4101 111.967 31.5162 111.421 31.9215L111.357 31.9689C110.84 32.3513 110.725 33.0769 111.097 33.6008C111.996 34.8656 113.544 35.4701 115.125 35.173C117.006 34.8194 119.586 32.0103 121.679 28.0363C122.942 25.6395 124.096 24.0509 125.915 22.2102C128.526 19.5671 128.559 19.2498 126.107 20.3649ZM50.3695 21.2752C44.6544 22.8146 39.7773 28.0996 39.7773 32.7533C39.7773 34.8013 40.2443 35.557 41.9505 36.2715C44.1192 37.1798 47.6377 35.6019 51.3162 32.0718C52.7245 30.7205 52.7908 30.6937 52.4443 31.615C51.881 33.1143 52.0028 34.4486 52.7961 35.4586C54.2704 37.3368 57.7686 36.4653 62.2585 33.1003C65.4789 30.6868 68.7645 27.6534 68.5443 27.2965C68.4321 27.115 67.5577 27.6711 66.6013 28.5326C62.8244 31.9355 58.1755 34.9838 56.7636 34.9838C55.1761 34.9838 56.1648 32.3653 59.1835 28.5741C60.2389 27.2485 61.1022 25.91 61.1022 25.6001C61.1022 24.9045 60.4359 24.2011 59.7772 24.2011C59.5067 24.2011 58.7028 23.5998 57.9907 22.8644C57.1263 21.9723 56.1657 21.3941 55.1003 21.1253C53.1304 20.6282 52.7224 20.6414 50.3695 21.2752ZM52.4975 23.5232C49.027 25.2609 44.0921 31.3066 44.0921 33.8202C44.0921 34.8712 44.1893 34.9838 45.0939 34.9838C45.6844 34.9838 46.9483 34.4133 48.1724 33.5942C50.4795 32.0509 57.0861 25.3729 57.4534 24.2136C58.072 22.26 55.685 21.9275 52.4975 23.5232ZM157.991 23.3434C154.625 24.9124 149.277 31.4666 149.277 34.0193C149.277 34.8203 149.428 34.9838 150.159 34.9838C151.796 34.9838 153.915 33.523 157.802 29.717C162.101 25.5079 163.226 23.8986 162.491 23.0105C161.833 22.2164 160.138 22.3416 157.991 23.3434Z" fill="#A5A6A2"/>
<path d="M110.933 20.5289C110.543 20.9061 110.849 20.0806 111.171 19.6444C111.836 18.7453 112.566 17.3481 112.928 16.5861C112.944 16.5527 112.963 16.5216 112.984 16.4915C113.081 16.355 113.228 16.2628 113.393 16.2357L113.802 16.1682C113.928 16.1474 114.058 16.1576 114.179 16.1981L114.236 16.217C114.356 16.2568 114.46 16.3329 114.533 16.4349L114.588 16.5103C114.669 16.6217 114.69 16.7654 114.645 16.8955C114.618 16.975 114.568 17.0446 114.5 17.0951L114.287 17.2557C114.254 17.2808 114.214 17.2942 114.173 17.2942C114.155 17.2942 114.138 17.2917 114.122 17.2879C113.112 17.0655 111.479 20.001 110.933 20.5289Z" fill="#A5A6A2"/>
<path d="M131.467 50.7124C131.467 51.1402 131.36 51.5398 131.146 51.9118C130.932 52.2837 130.611 52.5859 130.183 52.8183C129.756 53.0508 129.216 53.1671 128.565 53.1671C127.794 53.1671 127.171 53.0555 126.696 52.8323C126.548 52.7672 126.45 52.6883 126.403 52.5953C126.236 52.2419 126.152 51.7072 126.152 50.9912C126.152 50.917 126.18 50.8333 126.236 50.7403C126.301 50.638 126.376 50.5869 126.459 50.5869C126.534 50.5869 126.669 50.8938 126.864 51.5074C127.133 52.3071 127.761 52.7067 128.747 52.7067C129.221 52.7067 129.598 52.5627 129.877 52.2745C130.155 51.9862 130.295 51.5956 130.295 51.1028C130.295 50.3218 129.588 49.4571 128.175 48.5087C127.608 48.1275 127.171 47.7416 126.864 47.3512C126.557 46.9606 126.403 46.4818 126.403 45.9146C126.403 45.5334 126.524 45.1754 126.766 44.8408C127.008 44.4967 127.338 44.2177 127.756 44.004C128.184 43.79 128.668 43.6831 129.207 43.6831C129.69 43.6831 130.076 43.7297 130.365 43.8226C130.653 43.9155 130.82 43.9621 130.867 43.9621C130.96 43.9621 131.03 44.0503 131.076 44.227C131.132 44.4038 131.169 44.6083 131.188 44.8408C131.216 45.0638 131.229 45.2591 131.229 45.4265C131.229 45.6776 131.197 45.8031 131.132 45.8031C130.862 45.8031 130.7 45.6729 130.644 45.4125C130.579 45.0127 130.402 44.7013 130.114 44.4781C129.825 44.2549 129.472 44.1435 129.054 44.1435C128.626 44.1435 128.254 44.2828 127.938 44.5618C127.631 44.8313 127.478 45.194 127.478 45.6497C127.478 45.9285 127.58 46.1983 127.784 46.4586C127.989 46.7095 128.235 46.9421 128.523 47.1559C128.812 47.3605 129.082 47.5465 129.332 47.7137C130.755 48.6342 131.467 49.6337 131.467 50.7124Z" fill="#A5A6A2"/>
<path d="M109.448 52.9298L107.775 53.0135C107.505 53.0135 107.37 52.9532 107.37 52.8322C107.37 52.7114 107.524 52.6045 107.831 52.5115C108.388 52.3441 108.788 51.9861 109.03 51.4376C109.913 49.4012 110.783 47.2163 111.638 44.8825C111.759 44.5849 111.82 44.3711 111.82 44.241C111.82 44.1294 111.824 44.0736 111.834 44.0736C112.159 43.962 112.354 43.8691 112.419 43.7946C112.447 43.7575 112.471 43.7296 112.489 43.7109C112.508 43.683 112.522 43.6598 112.531 43.6412C112.578 43.5575 112.61 43.5156 112.629 43.5156C112.675 43.5156 112.722 43.5808 112.768 43.7109C113.112 44.7896 113.489 45.9518 113.898 47.1977C114.316 48.4343 114.767 49.7547 115.251 51.1586C115.428 51.67 115.623 52.0188 115.837 52.2046C116.06 52.3813 116.329 52.4976 116.646 52.5534C116.962 52.6092 117.12 52.7161 117.12 52.874C117.12 52.9672 116.985 53.0135 116.715 53.0135L114.777 52.9298L113.312 52.9438C113.042 52.9438 112.908 52.888 112.908 52.7764C112.908 52.6371 113.061 52.5487 113.368 52.5115C113.935 52.4186 114.219 52.2093 114.219 51.884C114.219 51.6234 114.042 50.8937 113.689 49.6942C113.661 49.592 113.535 49.5407 113.312 49.5407H110.648C110.546 49.5407 110.467 49.6244 110.411 49.7918C110.039 50.8519 109.853 51.4934 109.853 51.7166C109.853 51.9211 109.927 52.093 110.076 52.2325C110.234 52.3628 110.448 52.465 110.718 52.5394C110.987 52.6137 111.122 52.7021 111.122 52.8043C111.122 52.9067 110.987 52.9577 110.718 52.9577L109.448 52.9298ZM110.76 48.8434C110.76 48.9085 110.857 48.9411 111.052 48.9411H113.214C113.345 48.9411 113.41 48.9179 113.41 48.8713L113.382 48.7318L112.28 45.3985C112.224 45.2311 112.187 45.1474 112.168 45.1474C112.141 45.1474 112.099 45.2266 112.043 45.3846L110.787 48.7318L110.76 48.8434Z" fill="#A5A6A2"/>
<path d="M93.3907 52.9437L91.5078 53.0135C91.2475 53.0135 91.1172 52.9577 91.1172 52.8461C91.1172 52.7437 91.2196 52.6647 91.4241 52.6089C91.8053 52.5347 92.0889 52.4231 92.275 52.2743C92.4608 52.1254 92.5538 51.9024 92.5538 51.6047V45.1334C92.5538 44.808 92.5027 44.5988 92.4005 44.5058C92.2981 44.4129 92.0796 44.3337 91.7448 44.2687C91.4102 44.2129 91.2428 44.1199 91.2428 43.9897C91.2428 43.8875 91.3776 43.8364 91.6473 43.8364L93.2095 43.8783L94.967 43.8364C95.2366 43.8364 95.3714 43.8875 95.3714 43.9897C95.3714 44.1292 95.2413 44.2176 94.9809 44.2547C94.7206 44.3013 94.5298 44.3384 94.4089 44.3663C94.2973 44.3942 94.1719 44.4361 94.0324 44.4919C93.7906 44.5941 93.6697 44.7754 93.6697 45.0358V51.6047C93.6697 51.9116 93.7395 52.1301 93.879 52.2604C94.0185 52.3904 94.3068 52.4555 94.7438 52.4555H96.7801C96.8174 52.4555 96.9335 52.4184 97.1289 52.3441C97.6124 52.1394 97.9984 51.7257 98.2866 51.1027C98.3888 50.8237 98.4957 50.6842 98.6073 50.6842C98.7097 50.6842 98.7608 50.7679 98.7608 50.9353C98.7515 50.9445 98.7468 50.9585 98.7468 50.9772V51.0051C98.5423 51.7953 98.4167 52.3857 98.3703 52.7763C98.3517 52.9343 98.2866 53.0135 98.175 53.0135L93.3907 52.9437Z" fill="#A5A6A2"/>
<path d="M76.7334 52.9437L74.8504 53.0135C74.59 53.0135 74.46 52.9577 74.46 52.8461C74.46 52.7437 74.5621 52.6647 74.7667 52.6089C75.1481 52.5347 75.4316 52.4231 75.6175 52.2743C75.8036 52.1254 75.8966 51.9024 75.8966 51.6047V45.1334C75.8966 44.808 75.8455 44.5988 75.7431 44.5058C75.6409 44.4129 75.4224 44.3337 75.0876 44.2687C74.7527 44.2129 74.5855 44.1199 74.5855 43.9897C74.5855 43.8875 74.7203 43.8364 74.9899 43.8364L76.5521 43.8783L78.3096 43.8364C78.5792 43.8364 78.7142 43.8875 78.7142 43.9897C78.7142 44.1292 78.5839 44.2176 78.3235 44.2547C78.0632 44.3013 77.8725 44.3384 77.7517 44.3663C77.6401 44.3942 77.5145 44.4361 77.375 44.4919C77.1333 44.5941 77.0125 44.7754 77.0125 45.0358V51.6047C77.0125 51.9116 77.0822 52.1301 77.2216 52.2604C77.3611 52.3904 77.6493 52.4555 78.0863 52.4555H80.1228C80.16 52.4555 80.2763 52.4184 80.4716 52.3441C80.955 52.1394 81.3409 51.7257 81.6292 51.1027C81.7316 50.8237 81.8385 50.6842 81.9501 50.6842C82.0523 50.6842 82.1035 50.7679 82.1035 50.9353C82.0941 50.9445 82.0896 50.9585 82.0896 50.9772V51.0051C81.885 51.7953 81.7595 52.3857 81.7129 52.7763C81.6943 52.9343 81.6292 53.0135 81.5176 53.0135L76.7334 52.9437Z" fill="#A5A6A2"/>
<path d="M63.1509 52.9437L61.3655 53.0135C61.0957 53.0135 60.9609 52.9577 60.9609 52.8461C60.9609 52.7437 61.1331 52.66 61.4771 52.595C61.8118 52.5392 62.0674 52.437 62.2443 52.2883C62.4209 52.1301 62.5091 51.893 62.5091 51.5768V45.2729C62.5091 44.9475 62.4394 44.7151 62.3001 44.5756C62.1698 44.4361 61.942 44.3337 61.6165 44.2687C61.2818 44.2129 61.1144 44.1199 61.1144 43.9897C61.1144 43.8875 61.2492 43.8364 61.5188 43.8364L63.1509 43.8783L64.6712 43.8364C64.9408 43.8364 65.0756 43.8875 65.0756 43.9897C65.0756 44.1199 64.9082 44.2129 64.5736 44.2687C64.2387 44.3337 63.997 44.4408 63.8483 44.5895C63.6995 44.729 63.6251 44.9568 63.6251 45.2729V51.5768C63.6251 51.893 63.7135 52.1301 63.8901 52.2883C64.076 52.437 64.3411 52.5392 64.6852 52.595C65.0198 52.66 65.1872 52.7437 65.1872 52.8461C65.1872 52.9577 65.0524 53.0135 64.7828 53.0135L63.1509 52.9437Z" fill="#A5A6A2"/>
<path d="M47.3632 52.7484C47.2611 53.018 47.1679 53.153 47.0844 53.153C47.0471 53.153 46.9076 52.8229 46.6659 52.1627L44.1134 45.3148C43.8996 44.7567 43.574 44.4174 43.137 44.2966C42.8302 44.1942 42.6768 44.092 42.6768 43.9897C42.6768 43.8875 42.8116 43.8364 43.0812 43.8364L44.7828 43.8783L46.2057 43.8504C46.4753 43.8504 46.6101 43.9015 46.6101 44.0036C46.6101 44.1431 46.48 44.2316 46.2196 44.2687C45.9593 44.3245 45.736 44.4035 45.55 44.5058C45.3641 44.608 45.2711 44.7383 45.2711 44.8963C45.2711 45.0544 45.313 45.259 45.3967 45.5101L47.1679 50.1961C47.2611 50.4565 47.3448 50.5867 47.4191 50.5867C47.4749 50.5867 47.5586 50.4565 47.6702 50.1961L49.6367 45.3148C49.7112 45.1474 49.7483 44.9986 49.7483 44.8684C49.7483 44.6638 49.4369 44.4732 48.8138 44.2966C48.5071 44.2129 48.3536 44.12 48.3536 44.0176C48.3536 43.9154 48.4884 43.8643 48.7582 43.8643L50.139 43.8783L51.729 43.8364C51.9986 43.8364 52.1336 43.8875 52.1336 43.9897C52.1336 44.1013 51.9802 44.1942 51.6732 44.2687C51.3571 44.3337 51.0781 44.4825 50.8364 44.7151C50.6039 44.9475 50.4272 45.2032 50.3064 45.4822L47.6841 51.8419C47.6747 51.8511 47.6655 51.8745 47.6562 51.9116C47.647 51.9395 47.633 51.9814 47.6144 52.0372C47.5957 52.1022 47.5772 52.1627 47.5586 52.2185C47.5399 52.2743 47.5214 52.3301 47.5028 52.3857C47.4841 52.4415 47.4609 52.5021 47.433 52.5671C47.4051 52.6229 47.3819 52.6834 47.3632 52.7484Z" fill="#A5A6A2"/>
</svg>
