<svg width="109" height="54" viewBox="0 0 109 54" fill="none" xmlns="http://www.w3.org/2000/svg">
<mask id="mask0_137_447" style="mask-type:luminance" maskUnits="userSpaceOnUse" x="0" y="0" width="109" height="54">
<path d="M108.136 0.0299072H0.0839844V53.1635H108.136V0.0299072Z" fill="white"/>
</mask>
<g mask="url(#mask0_137_447)">
<path d="M43.2182 39.5433C43.4899 39.5843 43.879 39.5843 44.4228 39.5843H48.1551C48.8151 39.5843 49.4759 39.5843 50.0594 39.6262C49.3591 40.5792 49.0874 41.4508 48.9705 42.6539C48.8936 43.4423 48.8544 44.4367 48.8544 45.6404C48.8544 46.8846 48.8936 48.4604 48.9705 50.411C46.3271 51.7369 44.1505 52.3179 41.2362 52.3179H40.4972C36.2217 52.1946 32.3738 49.4971 30.7796 45.2671C30.1966 43.7329 29.8857 41.9899 29.8857 39.9577C29.8857 32.8238 34.7057 27.6393 41.2747 27.6393C42.6738 27.6393 44.1121 27.8881 45.4725 28.219C46.5995 28.5519 47.6877 28.9657 48.7375 29.505L47.96 33.3206C45.8224 30.9569 43.2567 29.9195 40.1865 29.9195C35.7164 29.9195 32.84 33.9421 32.84 38.4634C32.84 43.8564 36.5716 49.9527 42.0137 49.9527H42.2462C43.685 49.9527 44.9678 49.4965 46.2502 48.8751C46.3663 47.672 46.4055 46.4689 46.4055 45.2658C46.4055 44.5606 46.4055 43.8557 46.3663 43.1911C46.3279 42.5279 46.3279 41.9886 46.2892 41.6159C45.5504 41.6571 44.9293 41.6571 44.462 41.6571C43.9957 41.6571 43.4128 41.6571 42.713 41.6988L43.2182 39.5433Z" fill="#A5A6A2"/>
<path d="M60.6487 37.7978C60.2995 37.5479 59.9104 37.382 59.4828 37.3403C59.3274 37.2991 59.1719 37.2991 59.0544 37.2991C57.6169 37.2991 56.3726 38.0043 55.4019 39.0415C55.3626 40.3268 55.3626 41.6128 55.3626 42.8983C55.3626 43.1468 55.3626 43.3964 55.4019 43.6457C55.4019 46.4246 55.4403 49.2037 55.5572 51.982H52.5639C52.6024 50.4485 52.641 48.7885 52.6802 47.0057C52.7192 45.6367 52.7192 44.3515 52.7192 43.1064V41.8629C52.6802 40.2446 52.641 38.7927 52.5639 37.5896C52.4476 36.3871 52.3301 35.641 52.1357 35.3087L55.5566 35.0599C55.5174 35.8074 55.4782 36.5537 55.4782 37.2997C55.9058 36.7611 56.372 36.3042 56.8009 35.9307C57.7332 35.2265 58.589 34.8942 59.7158 34.7701H60.1434C60.4158 34.7701 60.6879 34.7701 60.9211 34.8106L60.6487 37.7978Z" fill="#A5A6A2"/>
<path d="M65.291 46.0525C66.03 48.2931 67.973 50.5738 70.3832 50.5738C72.2491 50.5738 74.542 49.662 75.7857 48.0855L76.1362 50.2848C74.2311 51.8593 72.2106 52.4834 69.7997 52.4834C64.7857 52.4834 61.793 48.6663 61.793 43.6059C61.793 38.7524 64.7857 34.8542 69.4119 34.8542C72.8707 34.8542 75.2031 37.2606 75.9032 40.7029L65.291 46.0525ZM73.026 40.2877C72.2485 38.1301 71.1988 36.5132 68.8666 36.5132C66.1071 36.5132 64.6298 38.9598 64.5135 41.6559V42.0719C64.5135 42.8192 64.6298 43.6059 64.8242 44.4767L73.026 40.2877Z" fill="#A5A6A2"/>
<path d="M81.4636 46.0525C82.2027 48.2931 84.1462 50.5738 86.5555 50.5738C88.4221 50.5738 90.715 49.662 91.9589 48.0855L92.3077 50.2848C90.4041 51.8593 88.3833 52.4834 85.9731 52.4834C80.9589 52.4834 77.9658 48.6663 77.9658 43.6059C77.9658 38.7524 80.9589 34.8542 85.5838 34.8542C89.0424 34.8542 91.3758 37.2606 92.076 40.7029L81.4636 46.0525ZM89.199 40.2877C88.4212 38.1301 87.3712 36.5132 85.0395 36.5132C82.2798 36.5132 80.8019 38.9598 80.6861 41.6559V42.0719C80.6861 42.8192 80.8019 43.6059 80.997 44.4767L89.199 40.2877Z" fill="#A5A6A2"/>
<path d="M104.627 51.9839L104.782 45.7628V44.104C104.782 42.6522 104.742 41.242 104.665 39.9143C104.665 38.4624 104.004 37.4257 102.645 37.0523C102.294 37.0105 101.944 36.9695 101.595 36.9695C101.245 36.9695 100.817 37.0105 100.39 37.0523C99.5731 37.2181 98.7194 37.4663 97.7856 37.8396C97.747 39.5414 97.7089 41.242 97.7089 42.9002C97.7089 43.149 97.7089 43.3983 97.747 43.6477C97.747 46.4267 97.7856 49.2056 97.9029 51.9839H94.9096C94.9482 50.4505 94.9878 48.7904 95.0259 47.0076C95.0655 45.6387 95.0655 44.3534 95.0655 43.1086V41.8648C95.0259 40.2465 94.9878 38.7947 94.9096 37.5916C94.794 36.3891 94.6762 35.6429 94.4814 35.3106L97.902 35.062C97.8633 35.4772 97.8633 35.8911 97.8633 36.2638C99.6127 35.3943 101.129 34.9374 102.334 34.8542H102.877C103.927 34.8542 104.783 35.062 105.442 35.4347C106.842 36.3467 107.503 38.0068 107.503 39.7074V39.9148C107.464 41.0344 107.464 42.2383 107.464 43.4406C107.464 44.6836 107.503 45.8463 107.542 46.9653C107.58 48.086 107.619 49.081 107.736 49.9518C107.814 50.8234 107.931 51.5283 108.047 51.9839H104.627Z" fill="#A5A6A2"/>
<path fill-rule="evenodd" clip-rule="evenodd" d="M31.0214 24.9374C31.0214 24.9374 30.0793 18.0456 35.3604 12.8585C40.6423 7.67186 48.5185 8.34494 50.1985 8.07339C51.8778 7.80241 54.9297 7.82594 55.6174 7.03748C55.6174 7.03748 54.7395 18.276 47.7716 22.5396C40.8044 26.8024 34.4166 26.1301 30.7197 31.0281C30.7197 31.0281 30.8775 26.9696 34.4728 22.313C38.0675 17.6579 43.3622 14.3411 50.9455 12.4968C50.9455 12.4968 36.6543 13.7105 31.0214 24.9374Z" fill="#A5A6A2"/>
<path fill-rule="evenodd" clip-rule="evenodd" d="M30.1329 0.0299072C30.1329 0.0299072 35.9653 5.76473 32.9818 12.548C30.3103 18.6212 29.4857 20.3288 30.139 23.888C30.139 23.888 24.6082 15.5132 30.3886 4.79998C30.3886 4.79998 24.6657 12.8269 27.4705 19.6225C27.4705 19.6225 24.993 18.3044 24.1109 13.7141C23.2282 9.12353 26.1289 5.58464 26.8301 4.67454C27.5312 3.76463 29.1756 1.98769 30.1329 0.0299072Z" fill="#A5A6A2"/>
<path fill-rule="evenodd" clip-rule="evenodd" d="M19.3234 17.4395C19.3234 17.4395 17.2771 24.4258 22.2597 28.1305C26.7213 31.4481 28.0299 32.3468 28.9829 35.3145C28.9829 35.3145 29.7337 26.49 21.0639 21.1303C21.0639 21.1303 28.603 24.5041 29.2535 30.8885C29.2535 30.8885 30.576 28.7584 29.3775 24.9127C28.1792 21.0664 24.5728 19.7536 23.679 19.3953C22.7854 19.0369 20.8337 18.4644 19.3234 17.4395Z" fill="#A5A6A2"/>
<path d="M12.3074 52.0151C10.5614 51.9329 8.77637 51.9329 7.03039 51.9329H0.511567C0.549461 50.9387 0.549461 49.6559 0.588675 48.1238C0.627135 46.5917 0.627139 44.9348 0.666353 43.1964V37.9793C0.627893 36.1978 0.627889 34.582 0.588675 33.1335C0.549461 32.3057 0.433331 28.2048 0.0839844 27.5852H3.4994C3.3433 31.2696 3.30427 34.9964 3.30427 38.6823C3.30427 40.1308 3.30427 41.5396 3.3433 42.9059C3.3433 44.3141 3.3433 45.6379 3.38308 46.922C3.38308 48.2062 3.38308 49.3237 3.42116 50.3596C4.93506 50.3596 6.52626 50.3178 8.27167 50.2761C10.0177 50.2349 11.6081 50.1527 13.0451 50.1116L12.3074 52.0151Z" fill="#A5A6A2"/>
<path d="M23.508 50.8993C22.6943 51.52 21.8397 51.8111 20.8701 52.0598C20.3667 52.1401 19.7452 52.1826 19.0069 52.1826C17.0284 52.1826 15.2427 51.0649 14.8549 48.9113C14.6993 48.331 14.6211 47.7513 14.6211 47.2122C14.6211 42.6575 20.7919 41.1678 24.285 41.1678C24.285 38.5599 23.508 36.9435 20.8701 36.9435H20.7148C19.1622 36.9435 17.2994 37.484 15.9406 38.2288L15.7083 36.2397C17.6481 35.288 19.8994 34.7899 22.0337 34.7899C22.9262 34.7899 23.7032 34.9563 24.3615 35.2482C26.2242 36.2405 27.0782 38.1453 27.0782 40.2995V43.7771C27.0782 45.806 27.1167 47.9179 27.3107 49.9466C27.3878 50.8169 27.5053 51.4782 27.6208 51.9346H24.206C24.206 51.3966 24.2452 50.8581 24.2452 50.3195C23.973 50.5271 23.7399 50.734 23.508 50.8993ZM17.4549 47.09C17.4549 48.995 18.5793 49.9467 20.2866 50.029H20.4818C21.8397 50.029 23.1587 49.4905 24.2844 48.6627C24.3223 47.752 24.3223 46.8414 24.3615 45.9294V44.356C24.3615 43.7771 24.3615 43.2385 24.3223 42.6582C21.9953 42.6582 17.4549 43.9018 17.4549 47.09Z" fill="#A5A6A2"/>
</g>
</svg>
