<svg width="178" height="55" viewBox="0 0 178 55" fill="none" xmlns="http://www.w3.org/2000/svg">
<mask id="mask0_137_566" style="mask-type:luminance" maskUnits="userSpaceOnUse" x="0" y="0" width="178" height="55">
<path d="M177.32 0.67981H0.331055V54.163H177.32V0.67981Z" fill="white"/>
</mask>
<g mask="url(#mask0_137_566)">
<path d="M0.624023 14.1124L23.4711 27.3426V53.803L0.624023 40.5728V14.1124Z" fill="url(#paint0_linear_137_566)"/>
<path d="M23.4697 27.3426L46.3168 14.1124V40.5728L23.4697 53.803V27.3426Z" fill="url(#paint1_linear_137_566)"/>
<path d="M23.4711 1.01929L46.3182 14.2495L23.4711 27.4797L0.624023 14.2495L23.4711 1.01929Z" fill="url(#paint2_linear_137_566)"/>
<path d="M22.8919 28.4661L40.566 37.6109L23.4529 47.1779L5.91895 38.1736L22.8919 28.4661Z" fill="#EEEEEE"/>
<g filter="url(#filter0_f_137_566)">
<path d="M23.7779 30.7343L33.0265 36.0898L23.7779 41.4454L14.5293 36.0898L23.7779 30.7343Z" fill="#A5A6A2"/>
</g>
<path d="M6.48096 17.6334L23.5942 7.36292V27.9027L5.91992 38.1373L6.48096 17.6334Z" fill="url(#paint3_linear_137_566)"/>
<path d="M23.5938 7.22083L40.7068 17.4991L40.4263 37.7507L23.5938 29.6818V7.22083Z" fill="url(#paint4_linear_137_566)"/>
<path d="M15.0059 22.483L23.4704 27.3848V37.188L15.0059 32.2865V22.483Z" fill="#F5F5F0"/>
<path d="M23.4697 27.3873L31.9345 22.4856V32.2889L23.4697 37.1906V27.3873Z" fill="#FBFBFB"/>
<path d="M23.4704 17.6332L31.935 22.5347L23.4704 27.4364L15.0059 22.5347L23.4704 17.6332Z" fill="url(#paint5_linear_137_566)"/>
<path fill-rule="evenodd" clip-rule="evenodd" d="M23.4707 0.67981L46.6101 14.1341V40.7087L23.4707 54.163L0.331055 40.7087V14.1341L23.4707 0.67981ZM0.916093 14.8123V40.3706L23.1782 53.3147V27.7564L0.916093 14.8123ZM23.7632 27.7564V53.3147L46.0253 40.3706V14.8123L23.7632 27.7564ZM45.7345 14.3031L23.4707 27.2483L1.2069 14.3031L23.4707 1.3579L45.7345 14.3031Z" fill="white"/>
<path d="M170.559 25.6079V5.89417H175.106V25.6079H170.559Z" fill="#A5A6A2"/>
<path d="M140.44 25.6079L149.201 5.89417H153.693L162.482 25.6079H157.708L150.521 8.20349H152.318L145.101 25.6079H140.44ZM144.821 21.3836L146.028 17.9197H156.137L157.371 21.3836H144.821Z" fill="#A5A6A2"/>
<path d="M115.516 25.6079V5.89417H125.119C127.589 5.89417 129.443 6.36348 130.679 7.3023C131.932 8.24093 132.56 9.48021 132.56 11.0198C132.56 12.0524 132.307 12.9536 131.802 13.7233C131.296 14.4744 130.604 15.0564 129.724 15.4694C128.844 15.8825 127.833 16.089 126.691 16.089L127.225 14.9343C128.461 14.9343 129.556 15.1408 130.51 15.554C131.465 15.9482 132.204 16.5396 132.728 17.3283C133.271 18.1166 133.542 19.0835 133.542 20.229C133.542 21.9187 132.877 23.2424 131.549 24.1999C130.22 25.1385 128.263 25.6079 125.68 25.6079H115.516ZM120.037 22.1721H125.344C126.523 22.1721 127.412 21.9844 128.011 21.6088C128.629 21.2146 128.937 20.595 128.937 19.7501C128.937 18.924 128.629 18.3139 128.011 17.9197C127.412 17.5065 126.523 17.3 125.344 17.3H119.7V13.9768H124.558C125.662 13.9768 126.504 13.789 127.085 13.4135C127.684 13.0193 127.983 12.4279 127.983 11.6392C127.983 10.8694 127.684 10.2968 127.085 9.92145C126.504 9.52701 125.662 9.32988 124.558 9.32988H120.037V22.1721Z" fill="#A5A6A2"/>
<path d="M85.3975 25.6079L94.158 5.89417H98.6505L107.439 25.6079H102.666L95.4777 8.20349H97.2747L90.0585 25.6079H85.3975ZM89.7778 21.3836L90.985 17.9197H101.093L102.329 21.3836H89.7778Z" fill="#A5A6A2"/>
<path d="M70.4967 25.9457C68.9242 25.9457 67.4174 25.739 65.976 25.326C64.5345 24.8942 63.374 24.3402 62.4941 23.6644L64.0386 20.2285C64.8809 20.8294 65.873 21.3268 67.0148 21.7213C68.1754 22.0968 69.3455 22.2846 70.5247 22.2846C71.4232 22.2846 72.1438 22.1999 72.6868 22.0309C73.2484 21.8431 73.6601 21.5898 73.9222 21.2707C74.1842 20.9513 74.3152 20.5853 74.3152 20.1722C74.3152 19.6465 74.1094 19.2335 73.6976 18.9331C73.2859 18.6139 72.7429 18.3604 72.069 18.1727C71.3952 17.9662 70.6464 17.7784 69.8227 17.6096C69.0177 17.4218 68.2036 17.1964 67.3799 16.9336C66.5749 16.6707 65.8356 16.3326 65.1616 15.9197C64.4877 15.5067 63.9356 14.9621 63.505 14.2863C63.0931 13.6103 62.8874 12.7468 62.8874 11.6953C62.8874 10.5689 63.1868 9.54563 63.7857 8.62553C64.4035 7.6869 65.3209 6.9452 66.5376 6.40063C67.773 5.83753 69.3173 5.55579 71.1705 5.55579C72.4061 5.55579 73.6228 5.70611 74.8207 6.00638C76.0187 6.28812 77.0764 6.71981 77.9936 7.30201L76.5897 10.766C75.6725 10.2401 74.7553 9.85526 73.838 9.61134C72.9206 9.34831 72.0223 9.2169 71.1425 9.2169C70.2626 9.2169 69.542 9.32024 68.9804 9.52672C68.4188 9.7332 68.0164 10.0056 67.773 10.3435C67.5296 10.6627 67.4079 11.0382 67.4079 11.4701C67.4079 11.977 67.6138 12.39 68.0257 12.7092C68.4376 13.0096 68.9804 13.2535 69.6542 13.4413C70.3281 13.6291 71.0676 13.8168 71.8724 14.0046C72.6961 14.1924 73.5104 14.4082 74.3152 14.6523C75.1389 14.8964 75.8877 15.225 76.5615 15.6379C77.2355 16.0511 77.7784 16.5957 78.1901 17.2715C78.6207 17.9475 78.8359 18.8017 78.8359 19.8343C78.8359 20.9421 78.5272 21.9558 77.9094 22.8759C77.2916 23.7958 76.3651 24.5375 75.1296 25.1008C73.9128 25.6639 72.3685 25.9457 70.4967 25.9457Z" fill="#A5A6A2"/>
<path d="M176.55 42.2937C176.55 42.7787 176.52 43.2169 176.457 43.6079H166.607C166.685 44.6406 167.066 45.4698 167.754 46.0958C168.439 46.7215 169.281 47.0344 170.281 47.0344C171.715 47.0344 172.73 46.4321 173.322 45.2272H176.2C175.809 46.4163 175.101 47.3943 174.071 48.161C173.057 48.912 171.793 49.2874 170.281 49.2874C169.049 49.2874 167.94 49.0137 166.958 48.466C165.99 47.9027 165.226 47.1205 164.665 46.1191C164.118 45.1021 163.846 43.9287 163.846 42.5987C163.846 41.2689 164.11 40.1034 164.642 39.1019C165.186 38.085 165.944 37.3026 166.91 36.7549C167.894 36.2075 169.016 35.9336 170.281 35.9336C171.498 35.9336 172.581 36.1997 173.533 36.7316C174.484 37.2636 175.225 38.0145 175.756 38.9846C176.285 39.9389 176.55 41.042 176.55 42.2937ZM173.766 41.4489C173.751 40.463 173.4 39.673 172.713 39.0784C172.027 38.484 171.178 38.1866 170.163 38.1866C169.243 38.1866 168.454 38.484 167.799 39.0784C167.146 39.6574 166.756 40.4476 166.63 41.4489H173.766Z" fill="#A5A6A2"/>
<path d="M155.392 49.2874C154.379 49.2874 153.466 49.1074 152.655 48.7476C151.859 48.3721 151.227 47.8714 150.76 47.2457C150.292 46.6041 150.042 45.8922 150.012 45.11H152.773C152.819 45.6576 153.078 46.1191 153.544 46.4946C154.028 46.8545 154.63 47.0344 155.346 47.0344C156.094 47.0344 156.671 46.8936 157.077 46.6119C157.5 46.3147 157.709 45.9391 157.709 45.4855C157.709 45.0005 157.475 44.6406 157.009 44.4059C156.555 44.1711 155.83 43.9131 154.832 43.6313C153.864 43.3655 153.078 43.1072 152.468 42.857C151.859 42.6066 151.33 42.2232 150.876 41.7069C150.44 41.1906 150.223 40.51 150.223 39.6652C150.223 38.9768 150.425 38.3508 150.831 37.7877C151.236 37.2088 151.813 36.7549 152.562 36.4266C153.327 36.0979 154.2 35.9336 155.182 35.9336C156.649 35.9336 157.826 36.3091 158.715 37.0602C159.621 37.7954 160.105 38.8047 160.166 40.0875H157.5C157.452 39.5087 157.218 39.0473 156.797 38.7029C156.376 38.3587 155.807 38.1866 155.089 38.1866C154.388 38.1866 153.849 38.3195 153.474 38.5856C153.099 38.8515 152.912 39.2037 152.912 39.6417C152.912 39.9859 153.038 40.2753 153.287 40.51C153.537 40.7448 153.84 40.9325 154.2 41.0733C154.559 41.1984 155.089 41.3627 155.792 41.5661C156.727 41.8165 157.492 42.0746 158.085 42.3407C158.692 42.5909 159.216 42.9664 159.652 43.4671C160.088 43.9679 160.315 44.6328 160.33 45.462C160.33 46.1974 160.126 46.8545 159.722 47.4334C159.317 48.0124 158.74 48.466 157.991 48.7946C157.258 49.1231 156.392 49.2874 155.392 49.2874Z" fill="#A5A6A2"/>
<path d="M142.88 38.0223C143.27 37.3652 143.786 36.8568 144.424 36.4969C145.08 36.1214 145.852 35.9336 146.741 35.9336V38.7029H146.063C145.018 38.7029 144.222 38.969 143.676 39.5009C143.146 40.0329 142.88 40.956 142.88 42.2702V49.0761H140.213V36.1448H142.88V38.0223Z" fill="#A5A6A2"/>
<path d="M136.068 42.2937C136.068 42.7787 136.036 43.2169 135.974 43.6079H126.124C126.201 44.6406 126.583 45.4698 127.27 46.0958C127.956 46.7215 128.799 47.0344 129.797 47.0344C131.232 47.0344 132.246 46.4321 132.839 45.2272H135.716C135.327 46.4163 134.617 47.3943 133.588 48.161C132.574 48.912 131.31 49.2874 129.797 49.2874C128.564 49.2874 127.457 49.0137 126.474 48.466C125.506 47.9027 124.743 47.1205 124.181 46.1191C123.636 45.1021 123.362 43.9287 123.362 42.5987C123.362 41.2689 123.628 40.1034 124.158 39.1019C124.703 38.085 125.46 37.3026 126.428 36.7549C127.41 36.2075 128.534 35.9336 129.797 35.9336C131.014 35.9336 132.098 36.1997 133.049 36.7316C134.001 37.2636 134.742 38.0145 135.273 38.9846C135.803 39.9389 136.068 41.042 136.068 42.2937ZM133.284 41.4489C133.268 40.463 132.916 39.673 132.23 39.0784C131.543 38.484 130.694 38.1866 129.679 38.1866C128.759 38.1866 127.972 38.484 127.316 39.0784C126.662 39.6574 126.271 40.4476 126.146 41.4489H133.284Z" fill="#A5A6A2"/>
<path d="M114.232 46.6824L117.881 36.1449H120.713L115.8 49.0764H112.617L107.727 36.1449H110.581L114.232 46.6824Z" fill="#A5A6A2"/>
<path d="M98.3975 49.2874C97.1808 49.2874 96.081 49.0137 95.0983 48.466C94.1156 47.9027 93.3434 47.1205 92.7818 46.1191C92.2202 45.1021 91.9395 43.9287 91.9395 42.5987C91.9395 41.2844 92.228 40.1188 92.8052 39.1019C93.3822 38.085 94.1701 37.3026 95.1684 36.7549C96.1669 36.2075 97.2823 35.9336 98.5145 35.9336C99.7468 35.9336 100.862 36.2075 101.861 36.7549C102.859 37.3026 103.647 38.085 104.224 39.1019C104.801 40.1188 105.09 41.2844 105.09 42.5987C105.09 43.9131 104.793 45.0786 104.2 46.0958C103.608 47.1127 102.797 47.9027 101.767 48.466C100.753 49.0137 99.6299 49.2874 98.3975 49.2874ZM98.3975 46.9641C99.0839 46.9641 99.7236 46.7996 100.316 46.4711C100.925 46.1426 101.416 45.6498 101.79 44.9925C102.165 44.3356 102.352 43.5376 102.352 42.5987C102.352 41.6599 102.172 40.8699 101.814 40.2285C101.455 39.5714 100.979 39.0784 100.386 38.7499C99.7936 38.4213 99.1541 38.2571 98.4676 38.2571C97.7814 38.2571 97.1418 38.4213 96.5491 38.7499C95.9719 39.0784 95.5116 39.5714 95.1684 40.2285C94.8254 40.8699 94.6536 41.6599 94.6536 42.5987C94.6536 43.9912 95.0048 45.0708 95.7066 45.8375C96.4242 46.5886 97.3211 46.9641 98.3975 46.9641Z" fill="#A5A6A2"/>
<path d="M76.3652 42.5987C76.3652 41.2689 76.6305 40.1034 77.1609 39.1019C77.7067 38.085 78.4555 37.3026 79.4072 36.7549C80.3586 36.2075 81.4506 35.9336 82.683 35.9336C84.2429 35.9336 85.5299 36.3091 86.5438 37.0602C87.5733 37.7954 88.2675 38.8515 88.6263 40.2285H85.7483C85.5142 39.5869 85.1398 39.0862 84.6251 38.7264C84.1103 38.3665 83.463 38.1866 82.683 38.1866C81.591 38.1866 80.7176 38.5778 80.0623 39.3601C79.4228 40.1267 79.103 41.2063 79.103 42.5987C79.103 43.9912 79.4228 45.0786 80.0623 45.861C80.7176 46.6432 81.591 47.0344 82.683 47.0344C84.2274 47.0344 85.249 46.3538 85.7483 44.9925H88.6263C88.2518 46.3068 87.5501 47.3551 86.5204 48.1375C85.4908 48.9042 84.2116 49.2874 82.683 49.2874C81.4506 49.2874 80.3586 49.0137 79.4072 48.466C78.4555 47.9027 77.7067 47.1205 77.1609 46.1191C76.6305 45.1021 76.3652 43.9287 76.3652 42.5987Z" fill="#A5A6A2"/>
<path d="M66.1304 34.9251V39.7126H71.7462V41.8953H66.1304V46.8943H72.4481V49.0768H63.4629V32.7424H72.4481V34.9251H66.1304Z" fill="#A5A6A2"/>
</g>
<defs>
<filter id="filter0_f_137_566" x="-9.3005" y="6.90445" width="66.1567" height="58.3708" filterUnits="userSpaceOnUse" color-interpolation-filters="sRGB">
<feFlood flood-opacity="0" result="BackgroundImageFix"/>
<feBlend mode="normal" in="SourceGraphic" in2="BackgroundImageFix" result="shape"/>
<feGaussianBlur stdDeviation="11.9149" result="effect1_foregroundBlur_137_566"/>
</filter>
<linearGradient id="paint0_linear_137_566" x1="12.0477" y1="14.1124" x2="12.0477" y2="53.803" gradientUnits="userSpaceOnUse">
<stop stop-color="#A5A6A2"/>
<stop offset="1" stop-color="#D9D9D8"/>
</linearGradient>
<linearGradient id="paint1_linear_137_566" x1="34.8934" y1="14.1124" x2="34.8934" y2="53.803" gradientUnits="userSpaceOnUse">
<stop stop-color="#F9F9F9"/>
<stop offset="1" stop-color="#F8F8F8"/>
</linearGradient>
<linearGradient id="paint2_linear_137_566" x1="23.4711" y1="1.01929" x2="23.4711" y2="27.4797" gradientUnits="userSpaceOnUse">
<stop stop-color="#A5A6A2"/>
<stop offset="1" stop-color="white"/>
</linearGradient>
<linearGradient id="paint3_linear_137_566" x1="14.757" y1="12.4803" x2="23.6643" y2="27.8621" gradientUnits="userSpaceOnUse">
<stop stop-color="#C0C1BE"/>
<stop offset="1" stop-color="white"/>
</linearGradient>
<linearGradient id="paint4_linear_137_566" x1="32.1503" y1="7.22083" x2="32.1503" y2="37.7507" gradientUnits="userSpaceOnUse">
<stop stop-color="#ABACA9"/>
<stop offset="1" stop-color="white"/>
</linearGradient>
<linearGradient id="paint5_linear_137_566" x1="23.4704" y1="17.6332" x2="23.4704" y2="27.4364" gradientUnits="userSpaceOnUse">
<stop stop-color="white"/>
<stop offset="1" stop-color="#EDEFE6"/>
</linearGradient>
</defs>
</svg>
