<svg width="153" height="55" viewBox="0 0 153 55" fill="none" xmlns="http://www.w3.org/2000/svg">
<path d="M100.662 44.1485C100.272 44.5255 100.577 43.7 100.9 43.264C101.565 42.365 102.296 40.9677 102.659 40.2056C102.674 40.1722 102.693 40.1411 102.714 40.1109C102.811 39.9744 102.959 39.8823 103.124 39.8551L103.533 39.7878C103.659 39.7669 103.789 39.7771 103.91 39.8176L103.967 39.8364C104.087 39.8762 104.191 39.9526 104.265 40.0544L104.319 40.1298C104.4 40.2412 104.421 40.3848 104.377 40.5149C104.349 40.5945 104.299 40.664 104.232 40.7145L104.018 40.8754C103.985 40.9002 103.945 40.9138 103.904 40.9138C103.886 40.9138 103.869 40.9112 103.853 40.9076C102.842 40.6851 101.208 43.6205 100.662 44.1485Z" fill="#A5A6A2"/>
<mask id="mask0_210_22" style="mask-type:luminance" maskUnits="userSpaceOnUse" x="0" y="0" width="56" height="55">
<path d="M29.891 0.0302734H26.0177C12.1247 0.0302734 0.862305 11.2837 0.862305 25.1655V28.9359C0.862305 42.8177 12.1247 54.0711 26.0177 54.0711H29.891C43.7839 54.0711 55.0463 42.8177 55.0463 28.9359V25.1655C55.0463 11.2837 43.7839 0.0302734 29.891 0.0302734Z" fill="white"/>
</mask>
<g mask="url(#mask0_210_22)">
<path d="M26.3272 34.4365C27.5975 34.4365 28.627 33.4144 28.627 32.1538C28.627 30.893 27.5975 29.8711 26.3272 29.8711C25.0571 29.8711 24.0273 30.893 24.0273 32.1538C24.0273 33.4144 25.0571 34.4365 26.3272 34.4365Z" fill="#A5A6A2"/>
<path d="M26.3272 34.4365C27.5975 34.4365 28.627 33.4144 28.627 32.1538C28.627 30.893 27.5975 29.8711 26.3272 29.8711C25.0571 29.8711 24.0273 30.893 24.0273 32.1538C24.0273 33.4144 25.0571 34.4365 26.3272 34.4365Z" fill="#A5A6A2"/>
<path d="M31.0606 38.7038C32.3309 38.7038 33.3604 37.6819 33.3604 36.4211C33.3604 35.1605 32.3309 34.1385 31.0606 34.1385C29.7905 34.1385 28.7607 35.1605 28.7607 36.4211C28.7607 37.6819 29.7905 38.7038 31.0606 38.7038Z" fill="#A5A6A2"/>
<path d="M31.0606 38.7038C32.3309 38.7038 33.3604 37.6819 33.3604 36.4211C33.3604 35.1605 32.3309 34.1385 31.0606 34.1385C29.7905 34.1385 28.7607 35.1605 28.7607 36.4211C28.7607 37.6819 29.7905 38.7038 31.0606 38.7038Z" fill="#A5A6A2"/>
<path d="M28.3308 38.1741C28.1643 37.3139 26.9643 34.932 22.2313 33.9395C17.4648 32.9471 15.7316 33.708 15.6316 34.0388C15.5316 34.3697 19.8981 34.0388 23.5644 37.3139C27.2309 40.5891 25.3311 47.7683 25.1977 48.2975C25.0645 48.8264 24.2977 51.6391 23.9312 53.6239H28.3976C28.3976 53.6567 28.4976 39.0343 28.3308 38.1741Z" fill="#A5A6A2"/>
<path d="M28.3308 38.1741C28.1643 37.3139 26.9643 34.932 22.2313 33.9395C17.4648 32.9471 15.7316 33.708 15.6316 34.0388C15.5316 34.3697 19.8981 34.0388 23.5644 37.3139C27.2309 40.5891 25.3311 47.7683 25.1977 48.2975C25.0645 48.8264 24.2977 51.6391 23.9312 53.6239H28.3976C28.3976 53.6567 28.4976 39.0343 28.3308 38.1741Z" fill="#A5A6A2"/>
<path d="M34.8645 38.307C30.098 39.0681 28.8647 40.7221 28.7647 41.3176C28.6647 41.7476 28.7981 53.6572 28.7981 53.6572H33.0978C32.6978 52.0693 31.8979 49.6874 31.8979 49.6874C31.8979 49.6874 30.8314 46.8424 31.3647 43.7656C31.8979 40.6891 38.731 38.8364 40.0975 38.7372C41.464 38.6379 39.6307 37.5132 34.8645 38.307Z" fill="#A5A6A2"/>
<path d="M34.8645 38.307C30.098 39.0681 28.8647 40.7221 28.7647 41.3176C28.6647 41.7476 28.7981 53.6572 28.7981 53.6572H33.0978C32.6978 52.0693 31.8979 49.6874 31.8979 49.6874C31.8979 49.6874 30.8314 46.8424 31.3647 43.7656C31.8979 40.6891 38.731 38.8364 40.0975 38.7372C41.464 38.6379 39.6307 37.5132 34.8645 38.307Z" fill="#A5A6A2"/>
<path d="M19.7307 18.3574C19.7307 18.3574 17.3309 17.2658 16.1976 16.6041C15.0977 15.9094 13.7978 14.6524 13.7978 14.6524C13.7978 14.6524 15.4311 15.7109 16.2644 16.2402C17.0975 16.7696 19.5308 17.4643 19.5308 17.4643C19.4976 17.2658 19.4976 17.1004 19.5642 16.9349C19.7975 16.2734 18.0975 13.9243 15.5976 12.7997C13.1312 11.6748 9.99805 12.3695 9.99805 12.3695C9.99805 12.3695 10.9646 15.2147 13.3312 17.6298C15.6976 20.0448 19.3308 20.144 19.6975 19.3832C19.8641 19.0523 19.7975 18.7215 19.7307 18.3574Z" fill="#A5A6A2"/>
<path d="M19.7307 18.3574C19.7307 18.3574 17.3309 17.2658 16.1976 16.6041C15.0977 15.9094 13.7978 14.6524 13.7978 14.6524C13.7978 14.6524 15.4311 15.7109 16.2644 16.2402C17.0975 16.7696 19.5308 17.4643 19.5308 17.4643C19.4976 17.2658 19.4976 17.1004 19.5642 16.9349C19.7975 16.2734 18.0975 13.9243 15.5976 12.7997C13.1312 11.6748 9.99805 12.3695 9.99805 12.3695C9.99805 12.3695 10.9646 15.2147 13.3312 17.6298C15.6976 20.0448 19.3308 20.144 19.6975 19.3832C19.8641 19.0523 19.7975 18.7215 19.7307 18.3574Z" fill="#A5A6A2"/>
<path d="M14.6949 32.4498C14.2281 30.2333 11.2617 26.6602 7.79521 27.4542C4.46205 28.2152 0.862305 28.3806 0.862305 28.3806C0.862305 28.3806 2.69557 31.0603 5.79535 32.4828C8.99512 34.3355 12.9616 34.7655 13.5282 33.7068C13.5948 33.5745 13.6616 33.4753 13.7282 33.376C13.3616 33.1113 11.6617 31.8873 10.5618 31.3911C9.2951 30.8286 7.09525 29.8031 7.09525 29.8031C7.09525 29.8031 9.59507 30.3324 10.8284 30.8618C12.0617 31.3911 14.0949 32.979 14.0949 32.979C14.4615 32.7145 14.7281 32.6813 14.6949 32.4498Z" fill="#A5A6A2"/>
<path d="M14.6949 32.4498C14.2281 30.2333 11.2617 26.6602 7.79521 27.4542C4.46205 28.2152 0.862305 28.3806 0.862305 28.3806C0.862305 28.3806 2.69557 31.0603 5.79535 32.4828C8.99512 34.3355 12.9616 34.7655 13.5282 33.7068C13.5948 33.5745 13.6616 33.4753 13.7282 33.376C13.3616 33.1113 11.6617 31.8873 10.5618 31.3911C9.2951 30.8286 7.09525 29.8031 7.09525 29.8031C7.09525 29.8031 9.59507 30.3324 10.8284 30.8618C12.0617 31.3911 14.0949 32.979 14.0949 32.979C14.4615 32.7145 14.7281 32.6813 14.6949 32.4498Z" fill="#A5A6A2"/>
<path d="M18.1972 20.9731C18.1972 20.9731 16.2973 22.8918 15.064 26.0348C13.8307 29.1775 16.6305 32.1881 17.4638 32.2212C17.8638 32.2212 18.1972 32.0557 18.4971 31.8572C18.4971 31.8572 17.9972 30.2032 17.9972 29.0783C17.9972 27.9535 18.3638 26.5971 18.3638 26.5971C18.3638 26.5971 18.3638 28.4498 18.3638 29.2107C18.3638 29.9385 18.9971 31.5595 18.9971 31.5595C19.1637 31.4934 19.2971 31.4272 19.4637 31.4272C20.1636 31.394 20.7636 30.6332 20.7636 27.9205C20.797 25.1746 18.1972 20.9731 18.1972 20.9731Z" fill="#A5A6A2"/>
<path d="M18.1972 20.9731C18.1972 20.9731 16.2973 22.8918 15.064 26.0348C13.8307 29.1775 16.6305 32.1881 17.4638 32.2212C17.8638 32.2212 18.1972 32.0557 18.4971 31.8572C18.4971 31.8572 17.9972 30.2032 17.9972 29.0783C17.9972 27.9535 18.3638 26.5971 18.3638 26.5971C18.3638 26.5971 18.3638 28.4498 18.3638 29.2107C18.3638 29.9385 18.9971 31.5595 18.9971 31.5595C19.1637 31.4934 19.2971 31.4272 19.4637 31.4272C20.1636 31.394 20.7636 30.6332 20.7636 27.9205C20.797 25.1746 18.1972 20.9731 18.1972 20.9731Z" fill="#A5A6A2"/>
<path d="M10.5293 35.8589C10.4295 35.4289 8.92938 34.1386 6.39635 34.4032C3.86314 34.7011 1.86328 36.5536 1.86328 36.5536C1.86328 36.5536 2.59644 37.5132 5.39643 38.671C7.82946 39.6965 9.72932 37.877 10.1627 37.0168C10.1627 37.0168 8.89618 36.686 8.16283 36.686C7.42949 36.686 5.39643 36.686 5.39643 36.686C5.39643 36.686 7.06291 36.256 8.16283 36.256C9.26275 36.256 10.2961 36.4213 10.2961 36.4213C10.3627 36.1898 10.5961 36.223 10.5293 35.8589Z" fill="#A5A6A2"/>
<path d="M10.5293 35.8589C10.4295 35.4289 8.92938 34.1386 6.39635 34.4032C3.86314 34.7011 1.86328 36.5536 1.86328 36.5536C1.86328 36.5536 2.59644 37.5132 5.39643 38.671C7.82946 39.6965 9.72932 37.877 10.1627 37.0168C10.1627 37.0168 8.89618 36.686 8.16283 36.686C7.42949 36.686 5.39643 36.686 5.39643 36.686C5.39643 36.686 7.06291 36.256 8.16283 36.256C9.26275 36.256 10.2961 36.4213 10.2961 36.4213C10.3627 36.1898 10.5961 36.223 10.5293 35.8589Z" fill="#A5A6A2"/>
<path d="M17.7922 38.1083C17.7922 38.1083 17.7921 37.7775 15.0923 38.406C12.3925 39.0345 12.0926 38.836 12.0926 38.836C12.0926 38.836 13.4591 38.6377 15.1591 38.1413C16.8256 37.6451 18.1255 37.3473 18.1255 37.3473C18.2255 37.0826 18.2923 36.8843 18.1921 36.7188C17.9589 36.3218 15.4257 34.8331 12.6591 36.6858C9.89272 38.5383 9.09277 40.1925 9.09277 40.1925C9.09277 40.1925 10.0927 40.821 13.1591 41.0196C16.1923 41.1849 18.0589 39.0677 17.8255 38.5715C17.7255 38.4392 17.7256 38.2737 17.7922 38.1083Z" fill="#A5A6A2"/>
<path d="M17.7922 38.1083C17.7922 38.1083 17.7921 37.7775 15.0923 38.406C12.3925 39.0345 12.0926 38.836 12.0926 38.836C12.0926 38.836 13.4591 38.6377 15.1591 38.1413C16.8256 37.6451 18.1255 37.3473 18.1255 37.3473C18.2255 37.0826 18.2923 36.8843 18.1921 36.7188C17.9589 36.3218 15.4257 34.8331 12.6591 36.6858C9.89272 38.5383 9.09277 40.1925 9.09277 40.1925C9.09277 40.1925 10.0927 40.821 13.1591 41.0196C16.1923 41.1849 18.0589 39.0677 17.8255 38.5715C17.7255 38.4392 17.7256 38.2737 17.7922 38.1083Z" fill="#A5A6A2"/>
<path d="M12.429 19.9807C10.9291 17.698 7.86273 16.6063 7.86273 16.6063C7.86273 16.6063 6.82941 19.6829 7.52936 22.9911C8.26271 26.2995 12.1958 27.4242 12.8958 26.961C13.0958 26.8287 13.2623 26.6634 13.3623 26.4649C13.3623 26.4649 11.7625 24.8108 11.4625 24.2815C11.1625 23.7521 10.1626 20.8409 10.1626 20.8409C10.1626 20.8409 11.1291 22.8258 11.7625 23.686C12.3624 24.5462 13.7291 25.6379 13.7291 25.6379C13.8291 25.4723 13.9289 25.307 14.0957 25.1747C14.6956 24.7447 13.9623 22.2634 12.429 19.9807Z" fill="#A5A6A2"/>
<path d="M12.429 19.9807C10.9291 17.698 7.86273 16.6063 7.86273 16.6063C7.86273 16.6063 6.82941 19.6829 7.52936 22.9911C8.26271 26.2995 12.1958 27.4242 12.8958 26.961C13.0958 26.8287 13.2623 26.6634 13.3623 26.4649C13.3623 26.4649 11.7625 24.8108 11.4625 24.2815C11.1625 23.7521 10.1626 20.8409 10.1626 20.8409C10.1626 20.8409 11.1291 22.8258 11.7625 23.686C12.3624 24.5462 13.7291 25.6379 13.7291 25.6379C13.8291 25.4723 13.9289 25.307 14.0957 25.1747C14.6956 24.7447 13.9623 22.2634 12.429 19.9807Z" fill="#A5A6A2"/>
<path d="M25.6973 21.2353C23.1974 18.3903 21.4974 17.9601 21.4974 17.9601C21.4974 17.9601 21.2976 20.3751 21.3642 24.0142C21.3976 27.6533 24.7973 29.1752 25.4639 28.7452C25.7305 28.5797 25.9306 28.282 26.1304 27.9512C25.9972 28.0503 24.4306 26.5616 23.6974 24.9738C22.9641 23.3527 22.8641 21.1692 22.8641 21.1692C22.8641 21.1692 23.7306 24.1466 24.3974 24.9738C25.0639 25.8008 26.3972 27.455 26.3972 27.455C26.5638 27.1901 26.7306 26.9254 26.8972 26.7933C27.4637 26.3631 28.1637 24.0804 25.6973 21.2353Z" fill="#A5A6A2"/>
<path d="M25.6973 21.2353C23.1974 18.3903 21.4974 17.9601 21.4974 17.9601C21.4974 17.9601 21.2976 20.3751 21.3642 24.0142C21.3976 27.6533 24.7973 29.1752 25.4639 28.7452C25.7305 28.5797 25.9306 28.282 26.1304 27.9512C25.9972 28.0503 24.4306 26.5616 23.6974 24.9738C22.9641 23.3527 22.8641 21.1692 22.8641 21.1692C22.8641 21.1692 23.7306 24.1466 24.3974 24.9738C25.0639 25.8008 26.3972 27.455 26.3972 27.455C26.5638 27.1901 26.7306 26.9254 26.8972 26.7933C27.4637 26.3631 28.1637 24.0804 25.6973 21.2353Z" fill="#A5A6A2"/>
<path d="M25.4307 10.4517C24.8973 7.80501 23.6308 5.39014 23.6308 5.39014C23.6308 5.39014 20.7642 8.10286 20.1977 11.4441C19.5977 14.7525 21.7309 17.1012 22.5641 16.9359C23.0641 16.8367 23.5308 16.4397 23.9974 16.1089L23.5974 16.4065C23.5974 16.4065 23.1308 13.5947 23.1308 12.7345C23.1308 11.8743 23.4308 10.1539 23.4308 10.1539C23.4308 10.1539 23.4308 11.9404 23.4308 12.569C23.4308 13.2306 24.064 16.0427 24.064 16.0427H24.0308C24.2974 15.8442 24.5639 15.6787 24.7973 15.6125C25.4639 15.4472 25.964 13.0983 25.4307 10.4517Z" fill="#A5A6A2"/>
<path d="M25.4307 10.4517C24.8973 7.80501 23.6308 5.39014 23.6308 5.39014C23.6308 5.39014 20.7642 8.10286 20.1977 11.4441C19.5977 14.7525 21.7309 17.1012 22.5641 16.9359C23.0641 16.8367 23.5308 16.4397 23.9974 16.1089L23.5974 16.4065C23.5974 16.4065 23.1308 13.5947 23.1308 12.7345C23.1308 11.8743 23.4308 10.1539 23.4308 10.1539C23.4308 10.1539 23.4308 11.9404 23.4308 12.569C23.4308 13.2306 24.064 16.0427 24.064 16.0427H24.0308C24.2974 15.8442 24.5639 15.6787 24.7973 15.6125C25.4639 15.4472 25.964 13.0983 25.4307 10.4517Z" fill="#A5A6A2"/>
<path d="M32.0945 27.8855C31.2946 25.9335 30.3612 24.9741 30.3612 24.9741C30.3612 24.9741 29.9947 25.5696 29.3279 27.4885C28.6614 29.4404 29.6279 31.3261 30.2278 31.2268C30.5612 31.1606 30.7612 31.0614 30.8946 30.9621C30.8946 30.9621 30.6612 30.1019 30.5278 29.5066C30.3946 28.9111 30.5278 28.1502 30.5278 28.1502C30.5278 28.1502 30.5946 28.6464 30.7946 29.3081C30.9946 29.9696 31.1278 30.7968 31.1278 30.7968C31.1612 30.7636 31.1946 30.7636 31.2612 30.7636C31.6945 30.6644 32.8611 29.8374 32.0945 27.8855Z" fill="#A5A6A2"/>
<path d="M32.0945 27.8855C31.2946 25.9335 30.3612 24.9741 30.3612 24.9741C30.3612 24.9741 29.9947 25.5696 29.3279 27.4885C28.6614 29.4404 29.6279 31.3261 30.2278 31.2268C30.5612 31.1606 30.7612 31.0614 30.8946 30.9621C30.8946 30.9621 30.6612 30.1019 30.5278 29.5066C30.3946 28.9111 30.5278 28.1502 30.5278 28.1502C30.5278 28.1502 30.5946 28.6464 30.7946 29.3081C30.9946 29.9696 31.1278 30.7968 31.1278 30.7968C31.1612 30.7636 31.1946 30.7636 31.2612 30.7636C31.6945 30.6644 32.8611 29.8374 32.0945 27.8855Z" fill="#A5A6A2"/>
<path d="M31.9607 17.5972C31.6939 13.826 30.1274 11.9071 30.1274 11.9071C30.1274 11.9071 27.5276 13.826 26.5609 15.7777C25.5943 17.7296 26.1609 20.5748 26.9608 20.641C27.1276 20.641 27.3276 20.7401 27.4942 20.8725C27.4942 20.8725 28.2275 19.7808 28.6275 18.7883C29.0275 17.7959 29.5608 15.8109 29.5608 15.8109C29.5608 15.8109 29.1609 18.2921 28.8941 19.0529C28.6275 19.8138 27.8608 21.2033 27.8608 21.2033C28.3275 21.6665 28.7609 22.2288 29.1941 22.2288C29.8608 22.1958 32.2273 21.3686 31.9607 17.5972Z" fill="#A5A6A2"/>
<path d="M31.9607 17.5972C31.6939 13.826 30.1274 11.9071 30.1274 11.9071C30.1274 11.9071 27.5276 13.826 26.5609 15.7777C25.5943 17.7296 26.1609 20.5748 26.9608 20.641C27.1276 20.641 27.3276 20.7401 27.4942 20.8725C27.4942 20.8725 28.2275 19.7808 28.6275 18.7883C29.0275 17.7959 29.5608 15.8109 29.5608 15.8109C29.5608 15.8109 29.1609 18.2921 28.8941 19.0529C28.6275 19.8138 27.8608 21.2033 27.8608 21.2033C28.3275 21.6665 28.7609 22.2288 29.1941 22.2288C29.8608 22.1958 32.2273 21.3686 31.9607 17.5972Z" fill="#A5A6A2"/>
<path d="M38.1934 25.2723C38.1934 25.2723 37.3267 25.7687 35.2268 27.7867C33.127 29.8048 33.0602 32.7822 33.8935 33.0137C34.2269 33.113 34.4603 33.113 34.6601 33.113C34.6601 33.113 35.1934 31.7897 35.4602 30.9956C35.7268 30.2018 36.6933 28.8123 36.6933 28.8123C36.6933 28.8123 36.0268 30.4663 35.7934 31.128C35.6268 31.6243 35.3934 32.6169 35.3268 33.0798C35.3934 33.0798 35.4602 33.0798 35.5268 33.0798C36.0602 33.146 38.1266 32.8484 38.4266 29.9039C38.76 26.9927 38.1934 25.2723 38.1934 25.2723Z" fill="#A5A6A2"/>
<path d="M38.1934 25.2723C38.1934 25.2723 37.3267 25.7687 35.2268 27.7867C33.127 29.8048 33.0602 32.7822 33.8935 33.0137C34.2269 33.113 34.4603 33.113 34.6601 33.113C34.6601 33.113 35.1934 31.7897 35.4602 30.9956C35.7268 30.2018 36.6933 28.8123 36.6933 28.8123C36.6933 28.8123 36.0268 30.4663 35.7934 31.128C35.6268 31.6243 35.3934 32.6169 35.3268 33.0798C35.3934 33.0798 35.4602 33.0798 35.5268 33.0798C36.0602 33.146 38.1266 32.8484 38.4266 29.9039C38.76 26.9927 38.1934 25.2723 38.1934 25.2723Z" fill="#A5A6A2"/>
<path d="M31.4596 4.52954C29.6929 1.18812 27.5265 0.0302734 27.5265 0.0302734C27.5265 0.0302734 26.9597 1.12196 26.1598 4.69487C25.3599 8.26778 28.3598 11.2784 29.1264 11.0137C29.5597 10.8484 29.8263 10.5837 30.1263 10.319C30.1263 10.319 29.0264 8.40012 28.793 6.91142C28.5598 5.42272 28.4598 3.47084 28.4598 3.47084C28.4598 3.47084 29.193 5.52188 29.5929 6.91142C29.9929 8.30096 30.7929 9.85583 30.7929 9.85583C31.393 9.55798 33.2261 7.87077 31.4596 4.52954Z" fill="#A5A6A2"/>
<path d="M31.4596 4.52954C29.6929 1.18812 27.5265 0.0302734 27.5265 0.0302734C27.5265 0.0302734 26.9597 1.12196 26.1598 4.69487C25.3599 8.26778 28.3598 11.2784 29.1264 11.0137C29.5597 10.8484 29.8263 10.5837 30.1263 10.319C30.1263 10.319 29.0264 8.40012 28.793 6.91142C28.5598 5.42272 28.4598 3.47084 28.4598 3.47084C28.4598 3.47084 29.193 5.52188 29.5929 6.91142C29.9929 8.30096 30.7929 9.85583 30.7929 9.85583C31.393 9.55798 33.2261 7.87077 31.4596 4.52954Z" fill="#A5A6A2"/>
<path d="M35.4262 18.3588C35.4262 18.3588 33.3263 19.9468 32.3598 21.634C31.3931 23.3212 32.2264 25.7693 32.8598 25.8354C32.9598 25.8354 33.0598 25.8686 33.1597 25.9016H33.1264C33.1264 25.9016 33.6263 25.2069 33.9263 23.8506C34.1929 22.461 34.5262 21.5678 34.5262 21.5678C34.5262 21.5678 34.3263 22.8912 34.2263 23.7514C34.0929 24.5784 33.5263 26.1333 33.5263 26.1333C33.6929 26.2656 33.8597 26.3648 34.1263 26.3648C34.6596 26.398 36.2929 26.5633 36.2595 23.5859C36.2595 20.6415 35.4262 18.3588 35.4262 18.3588Z" fill="#A5A6A2"/>
<path d="M35.4262 18.3588C35.4262 18.3588 33.3263 19.9468 32.3598 21.634C31.3931 23.3212 32.2264 25.7693 32.8598 25.8354C32.9598 25.8354 33.0598 25.8686 33.1597 25.9016H33.1264C33.1264 25.9016 33.6263 25.2069 33.9263 23.8506C34.1929 22.461 34.5262 21.5678 34.5262 21.5678C34.5262 21.5678 34.3263 22.8912 34.2263 23.7514C34.0929 24.5784 33.5263 26.1333 33.5263 26.1333C33.6929 26.2656 33.8597 26.3648 34.1263 26.3648C34.6596 26.398 36.2929 26.5633 36.2595 23.5859C36.2595 20.6415 35.4262 18.3588 35.4262 18.3588Z" fill="#A5A6A2"/>
<path d="M38.0943 10.8482C36.7278 7.34144 34.6945 5.9519 34.6945 5.9519C34.6945 5.9519 33.9946 6.97742 32.8281 10.418C31.6282 13.8586 33.3946 17.2332 35.0613 17.0347C35.3279 17.0015 35.5611 16.9353 35.7279 16.9023C35.7279 16.8692 35.0613 14.1564 35.0613 12.9986C35.0613 11.8405 35.2279 9.75631 35.2279 9.75631C35.2279 9.75631 35.4279 12.2046 35.5279 13.1971C35.6279 13.9909 36.1612 15.8105 36.3612 16.5383C36.4944 16.373 36.5612 16.1745 36.8612 16.0751C37.4277 15.8766 39.461 14.3879 38.0943 10.8482Z" fill="#A5A6A2"/>
<path d="M38.0943 10.8482C36.7278 7.34144 34.6945 5.9519 34.6945 5.9519C34.6945 5.9519 33.9946 6.97742 32.8281 10.418C31.6282 13.8586 33.3946 17.2332 35.0613 17.0347C35.3279 17.0015 35.5611 16.9353 35.7279 16.9023C35.7279 16.8692 35.0613 14.1564 35.0613 12.9986C35.0613 11.8405 35.2279 9.75631 35.2279 9.75631C35.2279 9.75631 35.4279 12.2046 35.5279 13.1971C35.6279 13.9909 36.1612 15.8105 36.3612 16.5383C36.4944 16.373 36.5612 16.1745 36.8612 16.0751C37.4277 15.8766 39.461 14.3879 38.0943 10.8482Z" fill="#A5A6A2"/>
<path d="M48.1257 12.5673C48.1257 12.5673 46.5928 12.7658 42.4263 14.4198C38.2266 16.0408 36.5599 20.1431 38.1266 21.3341C38.1266 21.3341 40.8264 19.6469 41.9597 18.6876C43.0928 17.7282 44.6927 16.3717 44.6927 16.3717C44.6927 16.3717 43.1596 18.1252 41.8929 19.2499C40.893 20.1431 39.3931 21.4335 38.8265 21.9626C39.3597 22.6575 38.8265 22.9222 39.3931 23.2198C40.1264 23.6168 44.2927 23.0213 46.426 19.1837C48.5258 15.3461 48.1257 12.5673 48.1257 12.5673Z" fill="#A5A6A2"/>
<path d="M48.1257 12.5673C48.1257 12.5673 46.5928 12.7658 42.4263 14.4198C38.2266 16.0408 36.5599 20.1431 38.1266 21.3341C38.1266 21.3341 40.8264 19.6469 41.9597 18.6876C43.0928 17.7282 44.6927 16.3717 44.6927 16.3717C44.6927 16.3717 43.1596 18.1252 41.8929 19.2499C40.893 20.1431 39.3931 21.4335 38.8265 21.9626C39.3597 22.6575 38.8265 22.9222 39.3931 23.2198C40.1264 23.6168 44.2927 23.0213 46.426 19.1837C48.5258 15.3461 48.1257 12.5673 48.1257 12.5673Z" fill="#A5A6A2"/>
<path d="M43.5588 23.783C40.5258 24.4447 38.8925 27.2566 39.7924 28.3485L42.6588 26.5949L45.5254 24.9739L42.8256 27.0251L40.2258 28.8115C40.659 29.2085 40.659 28.8776 40.9924 29.1755C41.4257 29.5393 43.6256 30.3333 45.592 27.7859C47.5587 25.2385 47.6587 23.1543 47.6587 23.1543C47.6587 23.1543 46.6253 23.1213 43.5588 23.783Z" fill="#A5A6A2"/>
<path d="M43.5588 23.783C40.5258 24.4447 38.8925 27.2566 39.7924 28.3485L42.6588 26.5949L45.5254 24.9739L42.8256 27.0251L40.2258 28.8115C40.659 29.2085 40.659 28.8776 40.9924 29.1755C41.4257 29.5393 43.6256 30.3333 45.592 27.7859C47.5587 25.2385 47.6587 23.1543 47.6587 23.1543C47.6587 23.1543 46.6253 23.1213 43.5588 23.783Z" fill="#A5A6A2"/>
<path d="M40.2246 28.8123L39.792 28.3491C39.9916 28.5806 40.1248 28.713 40.2246 28.8123Z" fill="#A5A6A2"/>
<path d="M40.2246 28.8123L39.792 28.3491C39.9916 28.5806 40.1248 28.713 40.2246 28.8123Z" fill="#A5A6A2"/>
<path d="M42.7245 30.5983C38.5914 31.1274 37.5915 34.8658 38.4246 35.5275C38.758 35.7922 39.0246 35.9245 39.2914 36.0237C39.2914 36.0237 40.5913 34.502 41.4246 33.8733C42.2246 33.2448 44.5576 31.8885 44.5576 31.8885C44.5576 31.8885 41.8246 33.9065 41.3912 34.4358C41.1246 34.7665 40.3579 35.6929 39.9247 36.2554C40.0579 36.2884 40.1913 36.3545 40.3579 36.4207C40.9245 36.7516 43.4911 37.4132 45.3909 34.4688C47.2908 31.4914 47.5576 29.4072 47.5576 29.4072C47.5576 29.4072 46.8576 30.0689 42.7245 30.5983Z" fill="#A5A6A2"/>
<path d="M42.7245 30.5983C38.5914 31.1274 37.5915 34.8658 38.4246 35.5275C38.758 35.7922 39.0246 35.9245 39.2914 36.0237C39.2914 36.0237 40.5913 34.502 41.4246 33.8733C42.2246 33.2448 44.5576 31.8885 44.5576 31.8885C44.5576 31.8885 41.8246 33.9065 41.3912 34.4358C41.1246 34.7665 40.3579 35.6929 39.9247 36.2554C40.0579 36.2884 40.1913 36.3545 40.3579 36.4207C40.9245 36.7516 43.4911 37.4132 45.3909 34.4688C47.2908 31.4914 47.5576 29.4072 47.5576 29.4072C47.5576 29.4072 46.8576 30.0689 42.7245 30.5983Z" fill="#A5A6A2"/>
<path d="M40.5592 39.9938C40.4594 40.0599 40.3928 40.1261 40.3262 40.1593L40.293 40.1923L40.5592 39.9938Z" fill="#A5A6A2"/>
<path d="M40.5592 39.9938C40.4594 40.0599 40.3928 40.1261 40.3262 40.1593L40.293 40.1923L40.5592 39.9938Z" fill="#A5A6A2"/>
<path d="M43.7942 40.5253C42.3609 39.2351 41.1276 39.6319 40.5944 39.9628L41.761 40.9885L43.0275 41.8155L41.0944 40.9885L40.1277 40.3268C39.8945 40.4921 39.6277 40.5915 39.3611 41.0215C38.9612 41.584 40.5277 43.2712 42.8943 43.3703C45.2607 43.4697 46.0606 43.3374 46.0606 43.3374C46.0606 43.3374 45.4941 42.0802 43.7942 40.5253Z" fill="#A5A6A2"/>
<path d="M43.7942 40.5253C42.3609 39.2351 41.1276 39.6319 40.5944 39.9628L41.761 40.9885L43.0275 41.8155L41.0944 40.9885L40.1277 40.3268C39.8945 40.4921 39.6277 40.5915 39.3611 41.0215C38.9612 41.584 40.5277 43.2712 42.8943 43.3703C45.2607 43.4697 46.0606 43.3374 46.0606 43.3374C46.0606 43.3374 45.4941 42.0802 43.7942 40.5253Z" fill="#A5A6A2"/>
<path d="M50.229 36.3219C46.5293 34.4364 43.5629 36.9176 43.8627 37.9431C43.8627 38.0093 43.8961 38.0423 43.9295 38.1084C44.2627 38.0423 45.596 37.7776 46.8627 37.7776C48.3293 37.7776 50.4958 38.1084 50.4958 38.1084C50.4958 38.1084 47.7626 38.1084 46.7293 38.4063C45.9627 38.6048 44.7628 38.6708 44.1629 38.6708C44.4294 39.0678 44.696 39.2995 44.896 39.6965C45.196 40.292 46.8959 42.2769 50.1622 40.9205C53.4288 39.5641 54.8621 37.9761 54.8621 37.9761C54.8621 37.9761 53.9287 38.2078 50.229 36.3219Z" fill="#A5A6A2"/>
<path d="M50.229 36.3219C46.5293 34.4364 43.5629 36.9176 43.8627 37.9431C43.8627 38.0093 43.8961 38.0423 43.9295 38.1084C44.2627 38.0423 45.596 37.7776 46.8627 37.7776C48.3293 37.7776 50.4958 38.1084 50.4958 38.1084C50.4958 38.1084 47.7626 38.1084 46.7293 38.4063C45.9627 38.6048 44.7628 38.6708 44.1629 38.6708C44.4294 39.0678 44.696 39.2995 44.896 39.6965C45.196 40.292 46.8959 42.2769 50.1622 40.9205C53.4288 39.5641 54.8621 37.9761 54.8621 37.9761C54.8621 37.9761 53.9287 38.2078 50.229 36.3219Z" fill="#A5A6A2"/>
<path d="M50.0918 29.804C48.5921 30.3664 47.4588 32.2191 47.8922 32.6491C47.9924 32.7482 48.0588 32.8806 48.0924 33.0791C48.4589 32.9468 49.1591 32.6491 49.7588 32.2191C50.6252 31.6236 51.2919 31.1604 51.2919 31.1604C51.2919 31.1604 50.5918 32.0536 49.4587 32.7814C48.7919 33.2114 48.3589 33.4761 48.1252 33.6416C48.1252 34.0716 48.1252 34.4686 48.3256 34.6671C48.6921 34.998 50.4256 35.6927 52.1585 33.5093C53.8919 31.3257 53.9917 29.5062 53.9917 29.5062C53.9917 29.5062 51.5921 29.2415 50.0918 29.804Z" fill="#A5A6A2"/>
<path d="M50.0918 29.804C48.5921 30.3664 47.4588 32.2191 47.8922 32.6491C47.9924 32.7482 48.0588 32.8806 48.0924 33.0791C48.4589 32.9468 49.1591 32.6491 49.7588 32.2191C50.6252 31.6236 51.2919 31.1604 51.2919 31.1604C51.2919 31.1604 50.5918 32.0536 49.4587 32.7814C48.7919 33.2114 48.3589 33.4761 48.1252 33.6416C48.1252 34.0716 48.1252 34.4686 48.3256 34.6671C48.6921 34.998 50.4256 35.6927 52.1585 33.5093C53.8919 31.3257 53.9917 29.5062 53.9917 29.5062C53.9917 29.5062 51.5921 29.2415 50.0918 29.804Z" fill="#A5A6A2"/>
</g>
<mask id="mask1_210_22" style="mask-type:luminance" maskUnits="userSpaceOnUse" x="62" y="14" width="91" height="31">
<path d="M152.814 14.1284H62.1143V44.6732H152.814V14.1284Z" fill="white"/>
</mask>
<g mask="url(#mask1_210_22)">
<path d="M63.8965 14.1874H66.918V27.863H75.4242V30.4126H63.8965V14.1874Z" fill="#A5A6A2"/>
<path d="M63.8965 14.1874H66.918V27.863H75.4242V30.4126H63.8965V14.1874Z" fill="#A5A6A2"/>
<path d="M91.0308 26.6576H82.8965L81.293 30.4126H78.1787L85.4995 14.1874H88.4744L95.8186 30.4126H92.6579L91.0308 26.6576ZM90.0316 24.2934L86.9637 17.2006L83.919 24.2934H90.0316Z" fill="#A5A6A2"/>
<path d="M91.0308 26.6576H82.8965L81.293 30.4126H78.1787L85.4995 14.1874H88.4744L95.8186 30.4126H92.6579L91.0308 26.6576ZM90.0316 24.2934L86.9637 17.2006L83.919 24.2934H90.0316Z" fill="#A5A6A2"/>
<path d="M106.487 24.6874V30.4126H103.465V24.7338L97.0742 14.1874H100.305L105.069 22.0914L109.88 14.1874H112.855L106.487 24.6874Z" fill="#A5A6A2"/>
<path d="M106.487 24.6874V30.4126H103.465V24.7338L97.0742 14.1874H100.305L105.069 22.0914L109.88 14.1874H112.855L106.487 24.6874Z" fill="#A5A6A2"/>
<path d="M126.966 26.6576H118.831L117.228 30.4126H114.113L121.434 14.1874H124.409L131.753 30.4126H128.592L126.966 26.6576ZM125.966 24.2934L122.899 17.2006L119.854 24.2934H125.966Z" fill="#A5A6A2"/>
<path d="M126.966 26.6576H118.831L117.228 30.4126H114.113L121.434 14.1874H124.409L131.753 30.4126H128.592L126.966 26.6576ZM125.966 24.2934L122.899 17.2006L119.854 24.2934H125.966Z" fill="#A5A6A2"/>
<path d="M150.834 14.1874V30.4126H148.348L139.377 19.4258V30.4126H136.379V14.1874H138.866L147.837 25.1742V14.1874H150.834Z" fill="#A5A6A2"/>
<path d="M150.834 14.1874V30.4126H148.348L139.377 19.4258V30.4126H136.379V14.1874H138.866L147.837 25.1742V14.1874H150.834Z" fill="#A5A6A2"/>
<path d="M68.3584 40.4077H69.7878V43.6411C69.3693 43.9734 68.8812 44.2283 68.3235 44.4061C67.7657 44.5839 67.1925 44.6726 66.6037 44.6726C65.7747 44.6726 65.0272 44.4949 64.361 44.1395C63.6946 43.7765 63.1718 43.278 62.7922 42.6444C62.4125 42.0108 62.2227 41.2962 62.2227 40.5004C62.2227 39.7045 62.4125 38.9899 62.7922 38.3563C63.1718 37.7229 63.6946 37.2282 64.361 36.8729C65.0349 36.5098 65.7903 36.3282 66.6269 36.3282C67.3087 36.3282 67.9285 36.4402 68.4862 36.6642C69.044 36.8883 69.5127 37.2167 69.8923 37.6494L68.9393 38.5765C68.3196 37.9585 67.5721 37.6494 66.6967 37.6494C66.1233 37.6494 65.612 37.7691 65.1628 38.0087C64.7212 38.2483 64.3725 38.5844 64.1169 39.017C63.8689 39.4497 63.745 39.9441 63.745 40.5004C63.745 41.0413 63.8689 41.528 64.1169 41.9607C64.3725 42.3933 64.7212 42.7334 65.1628 42.9805C65.612 43.2279 66.1195 43.3515 66.685 43.3515C67.3202 43.3515 67.8781 43.2124 68.3584 42.9342V40.4077Z" fill="#A5A6A2"/>
<path d="M68.3584 40.4077H69.7878V43.6411C69.3693 43.9734 68.8812 44.2283 68.3235 44.4061C67.7657 44.5839 67.1925 44.6726 66.6037 44.6726C65.7747 44.6726 65.0272 44.4949 64.361 44.1395C63.6946 43.7765 63.1718 43.278 62.7922 42.6444C62.4125 42.0108 62.2227 41.2962 62.2227 40.5004C62.2227 39.7045 62.4125 38.9899 62.7922 38.3563C63.1718 37.7229 63.6946 37.2282 64.361 36.8729C65.0349 36.5098 65.7903 36.3282 66.6269 36.3282C67.3087 36.3282 67.9285 36.4402 68.4862 36.6642C69.044 36.8883 69.5127 37.2167 69.8923 37.6494L68.9393 38.5765C68.3196 37.9585 67.5721 37.6494 66.6967 37.6494C66.1233 37.6494 65.612 37.7691 65.1628 38.0087C64.7212 38.2483 64.3725 38.5844 64.1169 39.017C63.8689 39.4497 63.745 39.9441 63.745 40.5004C63.745 41.0413 63.8689 41.528 64.1169 41.9607C64.3725 42.3933 64.7212 42.7334 65.1628 42.9805C65.612 43.2279 66.1195 43.3515 66.685 43.3515C67.3202 43.3515 67.8781 43.2124 68.3584 42.9342V40.4077Z" fill="#A5A6A2"/>
<path d="M78.3809 44.5572L76.7191 42.1813C76.6493 42.1891 76.5448 42.1928 76.4053 42.1928H74.5692V44.5572H73.0586V36.4445H76.4053C77.1102 36.4445 77.7222 36.5604 78.2414 36.7923C78.7682 37.0239 79.171 37.3563 79.4498 37.7889C79.7287 38.2216 79.8681 38.7355 79.8681 39.3302C79.8681 39.9406 79.7172 40.466 79.4149 40.9064C79.1206 41.347 78.6946 41.6752 78.1367 41.8916L80.0075 44.5572H78.3809ZM78.346 39.3302C78.346 38.8126 78.1756 38.4148 77.8347 38.1366C77.4937 37.8585 76.9942 37.7194 76.3355 37.7194H74.5692V40.9528H76.3355C76.9942 40.9528 77.4937 40.8137 77.8347 40.5356C78.1756 40.2498 78.346 39.8479 78.346 39.3302Z" fill="#A5A6A2"/>
<path d="M78.3809 44.5572L76.7191 42.1813C76.6493 42.1891 76.5448 42.1928 76.4053 42.1928H74.5692V44.5572H73.0586V36.4445H76.4053C77.1102 36.4445 77.7222 36.5604 78.2414 36.7923C78.7682 37.0239 79.171 37.3563 79.4498 37.7889C79.7287 38.2216 79.8681 38.7355 79.8681 39.3302C79.8681 39.9406 79.7172 40.466 79.4149 40.9064C79.1206 41.347 78.6946 41.6752 78.1367 41.8916L80.0075 44.5572H78.3809ZM78.346 39.3302C78.346 38.8126 78.1756 38.4148 77.8347 38.1366C77.4937 37.8585 76.9942 37.7194 76.3355 37.7194H74.5692V40.9528H76.3355C76.9942 40.9528 77.4937 40.8137 77.8347 40.5356C78.1756 40.2498 78.346 39.8479 78.346 39.3302Z" fill="#A5A6A2"/>
<path d="M88.9368 43.2939V44.5572H82.8359V36.4445H88.774V37.7077H84.3466V39.817H88.2744V41.057H84.3466V43.2939H88.9368Z" fill="#A5A6A2"/>
<path d="M88.9368 43.2939V44.5572H82.8359V36.4445H88.774V37.7077H84.3466V39.817H88.2744V41.057H84.3466V43.2939H88.9368Z" fill="#A5A6A2"/>
<path d="M98.0003 43.2939V44.5572H91.8994V36.4445H97.8377V37.7077H93.4101V39.817H97.3379V41.057H93.4101V43.2939H98.0003Z" fill="#A5A6A2"/>
<path d="M98.0003 43.2939V44.5572H91.8994V36.4445H97.8377V37.7077H93.4101V39.817H97.3379V41.057H93.4101V43.2939H98.0003Z" fill="#A5A6A2"/>
<path d="M108.191 36.4445V44.5572H106.948L102.462 39.0637V44.5572H100.963V36.4445H102.206L106.692 41.938V36.4445H108.191Z" fill="#A5A6A2"/>
<path d="M108.191 36.4445V44.5572H106.948L102.462 39.0637V44.5572H100.963V36.4445H102.206L106.692 41.938V36.4445H108.191Z" fill="#A5A6A2"/>
<path d="M119.486 36.4445C120.191 36.4445 120.803 36.5604 121.322 36.7923C121.849 37.0239 122.252 37.3563 122.531 37.7889C122.81 38.2216 122.949 38.7355 122.949 39.3302C122.949 39.9175 122.81 40.4313 122.531 40.8717C122.252 41.3044 121.849 41.6365 121.322 41.8684C120.803 42.1003 120.191 42.2162 119.486 42.2162H117.65V44.5572H116.14V36.4445H119.486ZM119.417 40.9413C120.075 40.9413 120.575 40.8022 120.916 40.5241C121.256 40.2458 121.427 39.8479 121.427 39.3302C121.427 38.8126 121.256 38.4148 120.916 38.1366C120.575 37.8585 120.075 37.7194 119.417 37.7194H117.65V40.9413H119.417Z" fill="#A5A6A2"/>
<path d="M119.486 36.4445C120.191 36.4445 120.803 36.5604 121.322 36.7923C121.849 37.0239 122.252 37.3563 122.531 37.7889C122.81 38.2216 122.949 38.7355 122.949 39.3302C122.949 39.9175 122.81 40.4313 122.531 40.8717C122.252 41.3044 121.849 41.6365 121.322 41.8684C120.803 42.1003 120.191 42.2162 119.486 42.2162H117.65V44.5572H116.14V36.4445H119.486ZM119.417 40.9413C120.075 40.9413 120.575 40.8022 120.916 40.5241C121.256 40.2458 121.427 39.8479 121.427 39.3302C121.427 38.8126 121.256 38.4148 120.916 38.1366C120.575 37.8585 120.075 37.7194 119.417 37.7194H117.65V40.9413H119.417Z" fill="#A5A6A2"/>
<path d="M130.602 42.6796H126.535L125.733 44.5572H124.176L127.836 36.4445H129.324L132.996 44.5572H131.415L130.602 42.6796ZM130.102 41.4976L128.568 37.9511L127.046 41.4976H130.102Z" fill="#A5A6A2"/>
<path d="M130.602 42.6796H126.535L125.733 44.5572H124.176L127.836 36.4445H129.324L132.996 44.5572H131.415L130.602 42.6796ZM130.102 41.4976L128.568 37.9511L127.046 41.4976H130.102Z" fill="#A5A6A2"/>
<path d="M140.632 44.5572L138.97 42.1813C138.9 42.1891 138.794 42.1928 138.657 42.1928H136.819V44.5572H135.31V36.4445H138.657C139.36 36.4445 139.973 36.5604 140.492 36.7923C141.019 37.0239 141.422 37.3563 141.7 37.7889C141.979 38.2216 142.119 38.7355 142.119 39.3302C142.119 39.9406 141.968 40.466 141.666 40.9064C141.371 41.347 140.945 41.6752 140.387 41.8916L142.258 44.5572H140.632ZM140.596 39.3302C140.596 38.8126 140.426 38.4148 140.085 38.1366C139.745 37.8585 139.245 37.7194 138.587 37.7194H136.819V40.9528H138.587C139.245 40.9528 139.745 40.8137 140.085 40.5356C140.426 40.2498 140.596 39.8479 140.596 39.3302Z" fill="#A5A6A2"/>
<path d="M140.632 44.5572L138.97 42.1813C138.9 42.1891 138.794 42.1928 138.657 42.1928H136.819V44.5572H135.31V36.4445H138.657C139.36 36.4445 139.973 36.5604 140.492 36.7923C141.019 37.0239 141.422 37.3563 141.7 37.7889C141.979 38.2216 142.119 38.7355 142.119 39.3302C142.119 39.9406 141.968 40.466 141.666 40.9064C141.371 41.347 140.945 41.6752 140.387 41.8916L142.258 44.5572H140.632ZM140.596 39.3302C140.596 38.8126 140.426 38.4148 140.085 38.1366C139.745 37.8585 139.245 37.7194 138.587 37.7194H136.819V40.9528H138.587C139.245 40.9528 139.745 40.8137 140.085 40.5356C140.426 40.2498 140.596 39.8479 140.596 39.3302Z" fill="#A5A6A2"/>
<path d="M147.888 41.1615L146.597 42.4826V44.5572H145.088V36.4445H146.597V40.6052L150.62 36.4445H152.316L148.899 40.072L152.523 44.5572H150.757L147.888 41.1615Z" fill="#A5A6A2"/>
<path d="M147.888 41.1615L146.597 42.4826V44.5572H145.088V36.4445H146.597V40.6052L150.62 36.4445H152.316L148.899 40.072L152.523 44.5572H150.757L147.888 41.1615Z" fill="#A5A6A2"/>
</g>
</svg>
