<svg width="161" height="54" viewBox="0 0 161 54" fill="none" xmlns="http://www.w3.org/2000/svg">
<path d="M28.2787 53.0501V52.4744H27.2814C26.9983 52.4744 26.7564 52.3795 26.5675 52.1837C26.3787 51.9937 26.2843 51.7504 26.2843 51.4595V38.4803C26.2843 38.1894 26.3787 37.952 26.5675 37.7562C26.7564 37.5603 26.9924 37.4655 27.2814 37.4655H28.2787V36.8897H22.5788V37.4655H23.576C23.8592 37.4655 24.1011 37.5603 24.29 37.7562C24.4788 37.9461 24.5731 38.1894 24.5731 38.4803V51.4595C24.5731 51.7504 24.4788 51.9876 24.29 52.1837C24.1011 52.3734 23.8651 52.4744 23.576 52.4744H22.5788V53.0501H28.2787ZM64.3658 45.0619H68.7143L66.5135 39.1094L64.3658 45.0619ZM59.1793 52.9966V52.3675H59.675C60.1293 52.3675 60.5068 52.2607 60.8077 52.0531C61.1086 51.8453 61.333 51.5307 61.4805 51.1094L66.7673 36.4565H67.4104L72.9804 51.3942C73.128 51.7206 73.3049 51.9639 73.5115 52.1243C73.7179 52.2844 73.9481 52.3617 74.2135 52.3617H75.0927V53.0382H70.0125V52.3617H70.0655C70.5023 52.3617 70.7383 52.3319 70.933 52.1658C71.1217 52.0055 71.1572 51.7028 70.9566 51.139C70.933 51.0796 70.9211 51.0322 70.9092 50.9967C70.8976 50.961 70.8976 50.9373 70.8917 50.9136L68.9032 45.5841H64.1888L62.1472 51.2517C62.0291 51.6258 62.0174 51.9047 62.1472 52.0827C62.2712 52.2607 62.5366 52.3558 62.9615 52.3558H63.4571V53.0323H59.1852V52.9788L59.1793 52.9966ZM31.5653 53.0501V52.4744H32.4384C32.7216 52.4744 32.9637 52.3795 33.1525 52.1837C33.3412 51.9937 33.4357 51.7504 33.4357 51.4595V38.4803C33.4357 38.1894 33.3412 37.952 33.1525 37.7562C32.9637 37.5662 32.7277 37.4655 32.4384 37.4655H31.5653V36.8897H37.0113V37.4655H36.138C35.8548 37.4655 35.6129 37.5603 35.4241 37.7562C35.2352 37.9461 35.1409 38.1894 35.1409 38.4803V51.4595C35.1409 51.7504 35.2352 51.9876 35.4241 52.1837C35.6129 52.3734 35.8489 52.4744 36.138 52.4744H39.7019C40.7286 52.4744 41.4661 52.2548 41.9087 51.8096C42.3572 51.3646 42.6639 50.6762 42.835 49.7325L42.9767 48.866H43.4014V53.0501H31.5592H31.5653ZM45.7852 53.0501V52.4744H46.6585C46.9417 52.4744 47.1836 52.3795 47.3725 52.1837C47.5613 51.9937 47.6556 51.7504 47.6556 51.4595V38.4803C47.6556 38.1894 47.5613 37.952 47.3725 37.7562C47.1836 37.5662 46.9476 37.4655 46.6585 37.4655H45.7852V36.8897H51.2314V37.4655H50.3581C50.0749 37.4655 49.833 37.5603 49.6442 37.7562C49.4553 37.9461 49.361 38.1894 49.361 38.4803V51.4595C49.361 51.7504 49.4553 51.9876 49.6442 52.1837C49.833 52.3734 50.0691 52.4744 50.3581 52.4744H53.922C54.9487 52.4744 55.6862 52.2548 56.1288 51.8096C56.5773 51.3646 56.884 50.6762 57.0551 49.7325L57.1966 48.866H57.6215V53.0501H45.7794H45.7852ZM10.7072 53.4298L3.58541 35.228C3.3375 34.5989 3.07205 34.1537 2.78886 33.8926C2.50549 33.6376 2.05722 33.5068 1.44934 33.5068H0.859375V32.9313H6.73613V33.5068C6.41162 33.5068 6.24635 33.5068 6.00448 33.5307C5.36132 33.6256 5.2434 34.0469 5.50301 34.7769L11.7043 50.7058C13.5924 45.501 15.4098 40.225 17.3806 35.0915C17.6991 34.2666 17.8702 33.5068 16.6607 33.5068H15.817V32.9313H21.139V33.5068H20.2482C19.6758 33.5068 19.2333 33.6256 18.9088 33.863C18.5843 34.1004 18.3187 34.5099 18.1123 35.0796L11.4152 53.4239H10.7013L10.7072 53.4298Z" fill="#A5A6A2"/>
<path d="M135.307 52.9958V52.3667H136.233C136.369 52.3667 136.493 52.343 136.605 52.3014C136.717 52.254 136.817 52.1887 136.905 52.0997C136.994 52.0107 137.066 51.9098 137.107 51.797C137.154 51.6843 137.171 51.5596 137.171 51.4232V38.5269C137.171 38.2658 137.088 38.0343 136.9 37.8504C136.711 37.6605 136.487 37.5774 136.221 37.5774C132.941 37.5774 132.545 37.518 131.991 40.8889H131.466V36.8948H144.676C144.676 38.2658 144.676 39.5181 144.676 40.8889H144.152C143.592 37.518 143.207 37.5774 139.92 37.5774C139.662 37.5774 139.431 37.6605 139.248 37.8504C139.06 38.0402 138.977 38.2658 138.977 38.5269V51.4232C138.977 51.5596 139.001 51.6843 139.041 51.797C139.088 51.9098 139.154 52.0107 139.243 52.0997C139.331 52.1887 139.431 52.2599 139.543 52.3014C139.656 52.3489 139.779 52.3667 139.914 52.3667H140.841V53.0432H135.283V52.9899L135.307 52.9958ZM147.25 52.9958V52.3667H148.176C148.435 52.3667 148.665 52.2836 148.848 52.0938C149.036 51.9039 149.119 51.6783 149.119 51.4171V38.5211C149.119 38.2599 149.036 38.0284 148.848 37.8444C148.665 37.6544 148.435 37.5715 148.176 37.5715H147.25V36.8948H159.198V40.4557H158.673C158.313 38.6575 158.064 37.5715 156.006 37.5715H151.876C151.61 37.5715 151.385 37.6544 151.197 37.8444C151.008 38.0343 150.925 38.2599 150.925 38.5211V43.8029H154.294C154.642 43.8029 154.932 43.6782 155.168 43.435C155.593 42.9898 155.521 42.4913 155.521 41.9096H156.053V46.2421H155.521C155.521 45.6605 155.593 45.162 155.168 44.7168C154.932 44.4676 154.636 44.3489 154.294 44.3489H150.925V51.4291C150.925 51.6902 151.008 51.9217 151.197 52.1056C151.385 52.2956 151.61 52.3787 151.876 52.3787H156.289C157.198 52.3787 157.911 52.165 158.419 51.7435C158.932 51.3223 159.251 50.6871 159.37 49.8444L159.517 48.9187H160.041V53.0552H147.238V53.0019L147.25 52.9958ZM102.801 45.061H107.15L104.949 39.1086L102.801 45.061ZM97.6089 52.9958V52.3667H98.1046C98.5589 52.3667 98.9364 52.2599 99.2373 52.0523C99.5382 51.8445 99.7626 51.5299 99.9101 51.1086L105.197 36.4557H105.84L111.404 51.3934C111.552 51.7198 111.729 51.9631 111.935 52.1234C112.136 52.2836 112.372 52.3608 112.637 52.3608H113.516V53.0373H108.436V52.3608C108.879 52.3608 109.144 52.3489 109.357 52.165C109.699 51.8741 109.404 51.3401 109.321 50.9127L107.333 45.5833H102.618L100.577 51.2511C100.459 51.6249 100.447 51.9039 100.577 52.0819C100.701 52.2599 100.966 52.355 101.391 52.355H101.887V53.0315H97.6148V52.9779L97.6089 52.9958ZM94.7235 48.5447L94.871 47.7851H95.3963V51.0137L95.3785 51.0313C95.1129 51.2629 94.812 51.4824 94.4875 51.6902C94.163 51.8978 93.809 52.0938 93.4255 52.2718C92.6053 52.6753 91.7733 52.9779 90.9296 53.1798C90.0859 53.3816 89.2303 53.4825 88.357 53.4825C85.5307 53.4825 83.1528 52.4855 81.2233 50.4854C80.2615 49.4884 79.5359 48.3608 79.052 47.1086C78.5682 45.8563 78.3262 44.4735 78.3262 42.9721C78.3262 39.975 79.2938 37.4764 81.2352 35.4704C82.2029 34.4675 83.2826 33.7138 84.4686 33.2153C85.6545 32.7109 86.9527 32.4615 88.357 32.4615C89.2243 32.4615 90.0859 32.5625 90.9413 32.7703C91.7969 32.9779 92.6406 33.2864 93.4785 33.696C93.8326 33.8681 94.169 34.058 94.4816 34.2597C94.8003 34.4616 95.0954 34.6812 95.3727 34.9066L95.3902 34.9245V38.3013H94.8652L94.7176 37.3994C94.635 36.9185 94.4167 36.4437 94.0745 35.9691C93.7264 35.4943 93.2485 35.0196 92.6406 34.5506C92.0329 34.0817 91.372 33.7316 90.6581 33.4942C89.9442 33.2568 89.1771 33.1441 88.357 33.1441C86.2092 33.1441 84.3742 34.0402 82.8577 35.8325C82.0967 36.7287 81.5301 37.7732 81.1467 38.966C80.769 40.1589 80.5743 41.4943 80.5743 42.978C80.5743 44.4616 80.7632 45.8028 81.1467 46.9898C81.5242 48.1768 82.0967 49.2214 82.8577 50.1233C83.619 51.0196 84.4569 51.6902 85.3713 52.1413C86.286 52.5863 87.2831 52.8119 88.357 52.8119C89.1712 52.8119 89.9265 52.7051 90.6287 52.4914C91.3307 52.2777 91.9799 51.9572 92.5699 51.5299C93.1659 51.1027 93.6379 50.6397 93.9979 50.1471C94.3518 49.6546 94.5937 49.1204 94.7176 48.5567L94.7235 48.5447ZM119.494 46.0641H122.007C122.609 46.0641 123.152 45.9691 123.642 45.7732C124.131 45.5774 124.568 45.2926 124.946 44.9068C125.323 44.521 125.606 44.0699 125.801 43.5596C125.99 43.0433 126.084 42.4676 126.084 41.8207C126.084 41.1737 125.99 40.5982 125.801 40.0818C125.612 39.5655 125.329 39.1203 124.946 38.7345C124.568 38.3489 124.131 38.058 123.642 37.8681C123.152 37.6722 122.609 37.5774 122.007 37.5774H119.494V46.07V46.0641ZM115.806 52.9958V52.3667H116.732C116.992 52.3667 117.222 52.2836 117.405 52.0938C117.594 51.9039 117.676 51.6783 117.676 51.4171V38.5211C117.676 38.3844 117.653 38.2599 117.611 38.147C117.564 38.0343 117.499 37.9334 117.411 37.8444C117.322 37.7554 117.222 37.6842 117.11 37.6426C116.998 37.5952 116.874 37.5774 116.738 37.5774H115.812V36.9009H122.007C122.945 36.9009 123.777 37.0136 124.515 37.2451C125.252 37.4764 125.89 37.8265 126.427 38.2895C126.964 38.7524 127.365 39.2807 127.636 39.8682C127.908 40.4557 128.038 41.1085 128.038 41.8267C128.038 42.5448 127.919 43.1441 127.678 43.6961C127.442 44.2481 127.082 44.7288 126.604 45.1322C126.132 45.5358 125.595 45.8622 124.993 46.1055C124.409 46.349 123.76 46.5091 123.052 46.5981V46.6575C123.146 46.6932 123.252 46.7406 123.364 46.8C123.488 46.8653 123.624 46.9365 123.766 47.0255C124.025 47.1797 124.261 47.3577 124.474 47.5655C124.686 47.7733 124.875 47.9988 125.04 48.2481L126.893 51.257C127.164 51.6783 127.471 51.9988 127.819 52.2065C128.167 52.4141 128.557 52.521 128.982 52.521C129.223 52.521 129.442 52.5032 129.636 52.4736C129.831 52.444 129.99 52.3904 130.126 52.3251L130.327 52.2244C130.374 52.2005 130.409 52.1828 130.445 52.1591C130.474 52.1413 130.498 52.1234 130.516 52.1056L130.551 52.0699L130.905 52.4261L130.881 52.4618C130.811 52.5625 130.728 52.6515 130.634 52.7405C130.533 52.8297 130.421 52.9127 130.297 52.9899C130.026 53.1561 129.731 53.2806 129.424 53.3637C129.111 53.4468 128.775 53.4884 128.421 53.4884C126.899 53.4884 125.742 52.8593 124.957 51.6012L123.105 48.5923C122.898 48.2599 122.692 47.9691 122.497 47.7198C122.302 47.4706 122.108 47.2629 121.919 47.1027C121.736 46.9423 121.529 46.8177 121.311 46.7347C121.087 46.6516 120.851 46.6101 120.591 46.6101H119.505V51.4291C119.505 51.6902 119.588 51.9217 119.777 52.1056C119.96 52.2956 120.19 52.3787 120.449 52.3787H121.5V53.0552H115.818V53.0019L115.806 52.9958Z" fill="#A5A6A2"/>
<path fill-rule="evenodd" clip-rule="evenodd" d="M74.9799 22.8715H70.0117V16.7765H70.5664V17.186C70.5604 18.0228 70.5604 18.6519 70.9086 19.5064C71.2567 20.3552 71.8408 21.0554 72.5666 21.5481C73.2864 22.0346 74.1539 22.3136 75.0683 22.3136H76.0715V22.8774H74.9799V22.8715Z" fill="#A5A6A2"/>
<path fill-rule="evenodd" clip-rule="evenodd" d="M78.6507 12.3668C77.7125 12.0166 77.0752 12.1233 76.0426 12.0463C74.1014 11.892 72.9921 10.3192 72.6853 8.66943C72.4434 8.68119 72.1012 8.81782 71.8652 8.90682C71.6527 8.98386 71.5171 8.72275 71.6999 8.57436C71.8652 8.4438 72.2842 8.23619 72.4906 8.1174C72.3844 7.67829 72.3078 6.84732 72.467 6.36665C72.5202 6.20649 72.7149 6.24198 72.7208 6.47349C72.7738 7.76729 72.8741 7.69006 72.9213 7.96901C74.0778 7.69613 75.1811 7.88589 76.1607 8.37263C76.8274 8.70491 77.4648 9.48237 77.86 9.78504C77.7302 9.38161 77.4234 8.51515 77.3231 8.09957C77.0457 7.95117 76.7154 7.79101 76.4558 7.60713C75.3758 6.85928 74.6325 5.89775 74.2784 4.6159C74.1663 4.18267 74.1191 3.77904 74.1308 3.33405C74.1427 3.06098 74.2135 2.30725 74.302 2.06397C74.3669 1.87402 74.5618 1.8503 74.5557 2.06397C74.5144 3.78512 74.6029 4.01644 76.5443 6.39626C76.6563 6.53289 76.7742 6.66344 76.8923 6.79988C76.7154 6.23609 76.556 5.70191 76.4852 5.06697C76.3377 3.69005 76.6269 2.21237 77.1638 0.942286C77.2404 0.752333 77.3289 0.562567 77.4706 0.414172C77.6121 0.307336 77.683 0.354775 77.7244 0.479449C77.7774 0.621771 77.7596 0.936401 77.7538 1.12028C77.7183 2.12925 77.7244 3.04922 77.6121 4.06407C77.5472 4.66941 77.4823 5.26869 77.4648 5.8801C77.4529 6.24198 77.4765 6.49721 77.5061 6.89495C77.677 5.72563 79.2703 4.6455 78.5739 2.75831C78.5386 2.65755 78.4324 2.3786 78.6271 2.3786C78.6566 2.3786 78.6743 2.38448 78.6979 2.40232C79.3352 3.21526 79.5122 3.96311 79.4414 4.91269C79.3705 5.8207 77.7302 7.5595 77.7302 7.83257C77.8128 8.2362 78.1668 9.52393 78.3379 9.94539C78.2672 9.25105 78.5326 8.18268 78.8631 7.57146C79.3765 6.62188 80.0608 6.24805 80.173 5.09657C80.2202 4.63962 80.1612 4.28951 80.1021 3.83844C80.0963 3.791 80.0904 3.74356 80.1021 3.69612C80.114 3.61301 80.2968 3.57145 80.3381 3.71377C80.5447 4.4083 80.6509 5.68427 80.5211 6.39037C80.1848 8.25384 79.6537 8.65747 78.9869 9.9156C78.7686 10.3312 78.6152 10.5803 78.7922 10.9957C78.9633 11.3935 79.2229 11.969 79.2878 12.0759C79.0992 10.8356 80.887 9.23909 81.2883 8.30736C81.6658 7.42306 81.719 6.7346 81.6009 5.78503C81.5892 5.69015 81.5301 5.5002 81.6716 5.48824C81.7661 5.48236 81.772 5.59508 81.831 5.79698C81.9844 6.31921 82.1201 7.38151 82.1437 7.64262C82.3974 11.2747 79.7246 11.3045 79.8367 13.0195C80.055 13.5061 80.474 14.1175 80.7866 14.4319C80.7866 14.4319 80.7336 13.9097 80.7275 13.8564C80.5977 12.5804 81.4652 11.5358 82.3974 10.5923C83.3947 9.58921 84.4154 8.43792 83.6896 6.81184C83.5775 6.56249 83.8194 6.51505 83.9198 6.66344C84.3033 7.20939 84.6042 8.64571 84.4273 9.22714C83.7309 11.5358 82.8578 11.613 81.9667 13.3044C81.6894 13.7911 81.1996 14.8356 81.3471 14.9899C81.4711 15.1204 81.7248 15.3221 81.8663 15.4409C81.8014 14.6872 82.6453 13.3934 83.194 12.9423C84.4095 11.969 85.2297 11.8563 85.9732 11.3045C86.3743 11.0077 86.7933 10.7405 87.1473 9.7672C87.2358 9.51804 87.4895 9.619 87.4423 9.87404C87.3067 10.6041 87.2299 11.0967 87.0646 11.5121C86.4452 13.0729 85.6132 13.1619 83.6307 14.527C83.141 14.8652 82.5744 15.2153 82.368 15.803C82.6157 15.9928 83.0406 16.2064 83.3002 16.3668C83.7015 15.6248 84.4331 14.8652 85.4834 14.4141C86.516 13.9691 87.8612 13.8207 88.5928 14.0522C88.8053 14.1175 88.7994 14.1887 88.7994 14.254C88.7994 14.3073 88.7817 14.3608 88.587 14.3667C87.112 14.3965 86.805 15.2747 85.8315 15.714C84.7457 16.2005 84.622 15.9157 83.8549 16.6516C84.5746 17.067 85.2474 17.3044 86.0853 17.4765C87.8967 17.886 88.1446 17.7792 88.3332 17.8801C88.5221 17.9809 87.2122 18.0818 87.1178 18.0701C87.0943 18.0701 86.6635 18.0166 86.4156 17.9632C86.0792 17.8742 85.7608 17.8207 85.4244 17.7198C85.0467 17.6071 84.6986 17.4824 84.3446 17.3222C84.4095 17.5477 84.4154 17.7674 84.3977 17.9987C84.3799 18.2598 84.3033 18.5151 84.1735 18.7584C83.9139 19.2331 83.4596 19.5595 83.1113 19.969C82.6099 20.5863 82.5627 21.1797 82.6806 21.9454C82.6925 22.0403 82.7929 22.2659 82.598 22.2777C82.4446 22.2896 82.3089 21.9811 82.2618 21.8682C81.8427 20.901 82.0788 19.803 82.5568 18.9009C82.9108 18.2422 83.377 17.5892 83.9492 17.0907C83.8313 17.0374 83.6188 16.9306 83.6188 16.9306C83.3179 17.0076 83.1998 17.2807 82.9934 17.4885C82.6393 17.8564 81.7426 18.5804 81.2115 18.7644C80.4385 19.0314 79.9606 19.1204 79.4886 19.2867C78.9397 19.4825 78.4147 19.8504 78.0076 20.337C77.8719 20.4973 77.624 20.4558 77.6653 20.248C77.807 19.5595 79.5593 17.898 80.2438 17.5716C81.0462 17.1917 82.2027 16.7049 83.0938 16.6516C82.9521 16.5685 82.7515 16.4558 82.604 16.3905C82.427 16.3074 80.94 16.6159 80.0608 16.9602C78.6271 17.5239 77.447 18.2244 76.143 17.8327C75.0455 17.5061 74.001 16.4914 73.529 15.4646C73.4937 15.3756 73.4524 15.2451 73.5586 15.1916C73.6826 15.1263 73.7533 15.2568 73.8241 15.3341C74.5027 16.1411 76.0015 16.6279 77.0516 16.6279C78.7037 16.6279 80.6215 15.791 82.2027 16.1353C81.6894 15.8208 81.6128 15.6901 81.2705 15.4766C80.291 15.4825 78.993 15.4409 78.0134 15.3756C76.8274 15.2925 75.9188 14.984 75.0749 14.0938C74.8863 13.8919 74.0897 12.9364 73.9361 12.4912C73.8712 12.3074 74.1073 12.2599 74.2254 12.3905C74.4614 12.6575 74.8449 13.0552 75.1811 13.3044C76.2373 14.0877 77.0635 13.6902 78.1904 13.7911C78.8218 13.8444 80.0136 14.3251 80.527 14.6576C79.8486 13.987 79.6833 13.6129 79.3116 12.9423C79.1344 12.6159 79.0282 12.5032 78.6743 12.3726L78.6507 12.3668ZM78.6624 11.7969C78.5149 11.4766 78.3262 11.0492 78.1787 10.7346C77.7657 10.0224 76.2314 9.4706 75.193 9.1797C74.4378 8.96603 74.1546 8.78214 73.2341 8.63963C73.9361 10.1234 75.6119 10.2598 76.9514 10.7228C77.5297 10.9187 78.1964 11.3282 78.6624 11.7969Z" fill="#A5A6A2"/>
<path fill-rule="evenodd" clip-rule="evenodd" d="M85.9315 2.75302H90.8996V8.84801H90.3391V8.43851C90.3449 7.60165 90.3449 6.97259 90.0027 6.1179C89.6546 5.26928 89.0705 4.56905 88.3447 4.07643C87.6247 3.58969 86.7574 3.31074 85.8428 3.31074H84.8398V2.74695H85.9315V2.75302Z" fill="#A5A6A2"/>
</svg>
