<svg width="134" height="73" viewBox="0 0 134 73" fill="none" xmlns="http://www.w3.org/2000/svg">
<mask id="mask0_137_562" style="mask-type:luminance" maskUnits="userSpaceOnUse" x="0" y="0" width="134" height="73">
<path d="M133.757 0.719482H0.433594V72.3549H133.757V0.719482Z" fill="white"/>
</mask>
<g mask="url(#mask0_137_562)">
<path d="M85.3483 10.3194C81.2149 4.30936 74.3901 0.719482 67.0866 0.719482H66.7168C58.0493 0.807142 49.7818 6.4228 46.6224 14.3811C44.3586 19.6833 44.4266 25.9024 46.8056 31.4473C47.8984 33.9889 49.412 36.2371 51.3091 38.1215C55.4899 42.3484 61.0799 44.6742 67.0461 44.6742C68.4982 44.6742 69.9509 44.5327 71.3627 44.2561C78.1366 42.9314 83.7839 38.6776 86.8652 32.5833C87.1165 32.0877 87.3538 31.5687 87.5748 31.036C90.3946 24.1901 89.5635 16.444 85.3447 10.3194H85.3483ZM53.7864 34.4811L53.705 34.3225C51.9779 30.9114 51.6417 26.9271 52.7856 23.3844C53.0635 23.499 53.3521 23.5866 53.6476 23.6406C54.4824 23.8057 55.3577 23.7316 56.1182 23.4417C56.1453 23.4351 56.1725 23.4249 56.1961 23.4113C56.7832 23.1821 57.3094 22.8384 57.7539 22.3901C59.0061 21.1429 59.403 19.1407 58.7174 17.5261C58.5308 17.0541 58.2529 16.6193 57.8965 16.2284C60.5128 14.2631 63.6827 13.2116 66.8251 13.2755C71.6442 13.316 76.1245 15.7328 78.8052 19.744C81.225 23.3676 81.8901 27.8103 80.6313 31.9359C80.4989 32.3708 80.3425 32.8058 80.1729 33.2169C80.1661 33.2271 80.1625 33.2371 80.1493 33.2708C79.8944 33.891 79.399 34.3631 78.7882 34.562C78.4083 34.6866 77.7161 34.5889 76.9827 34.4811C76.392 34.3966 75.7813 34.3092 75.2281 34.3158C71.9195 34.3697 70.996 34.9461 69.5946 35.8225C68.6239 36.4292 67.4158 37.1844 64.9585 37.9899C57.8995 40.3056 54.4177 35.4821 53.7798 34.4743L53.7864 34.4811ZM82.2429 34.0731C82.484 33.4933 82.6948 32.8832 82.8676 32.2562C84.1535 27.645 83.3258 22.7204 80.5938 18.753C77.5361 14.3104 72.4893 11.6576 67.0932 11.6576H66.8183C63.3027 11.6946 59.7932 12.9486 56.9258 15.2036L56.7832 15.3418C56.1042 14.9474 55.3511 14.7385 54.5977 14.7318C54.0172 14.7216 53.444 14.8194 52.9041 15.0249C52.8429 15.0485 52.7784 15.0756 52.7209 15.0992C51.937 15.4328 51.2649 15.9856 50.7797 16.6934C49.9143 17.944 49.7413 19.5317 50.3216 20.9407C50.5999 21.6148 51.0444 22.2148 51.6009 22.6799L51.533 22.872C51.007 24.4429 50.7389 26.108 50.7389 27.8169C50.7389 30.153 51.2479 32.5124 52.2117 34.6428C52.9516 36.2876 53.9357 37.7641 55.1407 39.028C54.204 38.3911 53.325 37.6764 52.5205 36.8978C50.8442 35.3303 49.4664 33.4629 48.4312 31.3461C45.8961 26.1889 45.6823 20.0441 47.861 14.9037L47.9052 14.7857C50.9323 7.34972 58.6533 2.28019 66.7168 2.44873C73.3886 2.50264 79.5893 5.84971 83.3055 11.4081C87.0246 16.9666 87.7308 23.9441 85.1925 30.0721C84.9376 30.7023 84.6457 31.3225 84.3269 31.9226C83.4479 33.5675 82.3516 35.0642 81.062 36.3922C81.5169 35.6506 81.9107 34.8753 82.2399 34.0765L82.2429 34.0731Z" fill="#A5A6A2"/>
<path d="M3.19124 58.4126H0.713867V72.3538H9.84302V70.082H3.19124V58.4126Z" fill="#A5A6A2"/>
<path d="M16.9971 58.4126L11.1836 72.3502H13.7832L15.2865 68.7505H21.0763L22.5764 72.3502H25.176L19.3624 58.4126H16.9936H16.9971ZM16.2368 66.4787L18.185 61.8102L20.1296 66.4787H16.2334H16.2368Z" fill="#A5A6A2"/>
<path d="M33.5333 58.4126L29.9122 65.7537L26.2876 58.4126H23.5625L28.6667 68.7537V72.3538H31.144V68.7537L36.2618 58.4126H33.5333Z" fill="#A5A6A2"/>
<path d="M59.8188 67.9279L52.4277 58.4126H50.3301V72.3538H52.8041V62.8483L60.1988 72.3538H62.2966V58.4126H59.8188V67.9279Z" fill="#A5A6A2"/>
<path d="M84.3447 72.3538H94.5532V70.082H86.8225V66.229H92.0794V63.9572H86.8225V60.6844H94.5532V58.4126H84.3447V72.3538Z" fill="#A5A6A2"/>
<path d="M133.476 60.6844V58.4126H123.265V72.3538H133.476V70.082H125.742V66.229H130.999V63.9572H125.742V60.6844H133.476Z" fill="#A5A6A2"/>
<path d="M105.794 66.3263C106.066 66.114 106.344 65.8612 106.616 65.5813C106.898 65.2881 107.139 64.887 107.338 64.385C107.535 63.8826 107.638 63.3402 107.638 62.7636C107.638 61.5401 107.199 60.4982 106.334 59.6657C105.472 58.8362 104.372 58.4153 103.066 58.4153H96.5566V72.3535H99.034V67.1015H102.482L104.905 72.3535H107.634L104.96 66.8253L105.065 66.7782C105.272 66.6973 105.509 66.5489 105.794 66.3263ZM104.552 64.2366C104.152 64.6342 103.663 64.8297 103.066 64.8297H99.034V60.684H103.066C103.663 60.684 104.149 60.8795 104.552 61.2771C104.953 61.6747 105.149 62.1601 105.149 62.7568C105.149 63.3534 104.953 63.839 104.552 64.2366Z" fill="#A5A6A2"/>
<path d="M114.589 58.412H109.627V72.3502H114.589C116.529 72.3502 118.217 71.6559 119.608 70.2907C120.996 68.9224 121.702 67.2707 121.702 65.3795C121.702 63.4883 120.996 61.8366 119.608 60.4683C118.22 59.1033 116.529 58.4088 114.589 58.4088V58.412ZM117.867 68.7198C116.974 69.6233 115.871 70.0818 114.589 70.0818H112.104V60.6838H114.589C115.868 60.6838 116.971 61.1423 117.867 62.046C118.763 62.949 119.214 64.0716 119.214 65.3831C119.214 66.694 118.759 67.8166 117.867 68.7198Z" fill="#A5A6A2"/>
<path d="M75.8697 68.9526L71.4783 58.4126H68.8789L74.6925 72.3538H77.061L82.8743 58.4126H80.2715L75.8697 68.9526Z" fill="#A5A6A2"/>
<path d="M40.4454 58.4126L34.6318 72.3502H37.2315L38.7349 68.7505H44.5245L46.0246 72.3502H48.6242L42.8107 58.4126H40.442H40.4454ZM39.6851 66.4787L41.633 61.8102L43.5776 66.4787H39.6817H39.6851Z" fill="#A5A6A2"/>
</g>
</svg>
