<svg width="16" height="31" viewBox="0 0 16 31" fill="none" xmlns="http://www.w3.org/2000/svg">
<path d="M15.2044 1.43186C15.2044 1.43186 14.2396 1.12312 12.7344 1.00734C11.7696 0.930157 10.8048 0.96875 10.0716 1.12312C8.68224 1.39327 8.21912 1.62482 7.44727 2.04934C6.75261 2.43527 6.13513 2.89838 5.63343 3.43867C4.35987 4.75082 4.05113 5.98578 3.81958 6.95059V7.02777C3.47225 8.4557 3.47225 9.80643 3.47225 9.80643V10.8098H0.732178V15.6339H3.47225V29.9517H3.51084C3.54943 29.9517 3.54943 29.9517 3.58802 29.9517H3.62662C3.89676 29.9903 4.16691 30.0289 4.43706 30.0675C4.70721 30.1061 5.01595 30.1061 5.28609 30.1447C5.55624 30.1447 5.82639 30.1833 6.13513 30.1833C6.44387 30.1833 6.71402 30.1833 6.98416 30.1447C7.25431 30.1447 7.52446 30.1061 7.8332 30.0675C8.10335 30.0289 8.41209 29.9903 8.64364 29.9517C8.91379 29.9131 9.18394 29.8745 9.45408 29.7974C9.60845 29.7588 9.76283 29.7202 9.9172 29.6816H9.95579V15.5953H14.0852V10.8098H9.9172V9.57488C9.9172 9.26614 9.91719 8.99599 9.95579 8.80303C10.0716 8.10836 10.3031 7.56807 10.689 7.10496C11.1136 6.60326 11.5767 6.33311 12.2713 6.25592C13.6993 6.02437 14.9342 6.52607 14.9728 6.52607L15.0114 6.56466L15.2044 1.43186Z" fill="#FEF2F0"/>
</svg>
