<svg width="78" height="89" viewBox="0 0 78 89" fill="none" xmlns="http://www.w3.org/2000/svg">
<g clip-path="url(#clip0_60_713)">
<path d="M61.4911 36.1269C61.8937 36.1269 62.2389 35.9512 62.5265 35.5999L72.1902 23.2453C72.3628 23.0696 72.4203 22.8354 72.4778 22.5427C72.5353 22.3085 72.4778 22.0743 72.3628 21.84C72.2477 21.6058 72.0752 21.4302 71.9026 21.3131C71.6725 21.196 71.4424 21.0789 71.2123 21.0789C70.8097 21.0789 70.4645 21.2545 70.1769 21.5473L60.4557 33.9604C60.2831 34.1361 60.2256 34.3703 60.1681 34.6631C60.1106 34.8973 60.1681 35.19 60.2831 35.4243C60.3982 35.6585 60.5707 35.8341 60.7433 35.9512C61.0309 36.0683 61.261 36.1269 61.4911 36.1269Z" fill="#445439"/>
<path d="M15.7613 35.6001C15.9914 35.9514 16.3365 36.1271 16.7967 36.1271C17.0268 36.1271 17.2569 36.0685 17.487 35.8929C17.717 35.7758 17.8321 35.5416 17.9471 35.3659C18.0622 35.1317 18.1197 34.8975 18.0622 34.6047C18.0622 34.3705 17.9471 34.1363 17.7746 33.9021L8.16837 21.5475C8.05333 21.4304 7.93828 21.3133 7.76572 21.1962C7.59315 21.1376 7.42058 21.0791 7.24802 21.0205C7.07545 21.0205 6.90288 21.0205 6.73032 21.0791C6.55775 21.1376 6.38518 21.1962 6.27014 21.3133C6.1551 21.4304 6.04005 21.5475 5.92501 21.7231C5.86749 21.8988 5.80996 22.0159 5.75244 22.1916C5.75244 22.3672 5.75244 22.5429 5.80996 22.7185C5.86749 22.8942 5.92501 23.0698 6.04005 23.187L15.7613 35.6001Z" fill="#445439"/>
<path d="M26.7478 35.8341C26.8053 36.1269 26.9779 36.3611 27.208 36.5367C27.4381 36.7124 27.7257 36.8295 28.0133 36.8295H28.416C28.5885 36.7709 28.7611 36.7124 28.8761 36.5953C28.9912 36.4782 29.1062 36.3611 29.2213 36.1854C29.2788 36.0098 29.3363 35.8926 29.3938 35.717C29.3938 35.5413 29.3938 35.3657 29.3363 35.19L21.2832 7.78739C21.2257 7.49462 21.0531 7.26041 20.823 7.08476C20.593 6.9091 20.3053 6.79199 20.0177 6.79199C19.9027 6.79199 19.7876 6.79199 19.6151 6.79199C19.4425 6.85054 19.2699 6.9091 19.1549 7.0262C19.0399 7.14331 18.9248 7.26041 18.8098 7.43607C18.7523 7.61173 18.6947 7.72883 18.6372 7.90449C18.6372 8.08015 18.6372 8.25581 18.6947 8.43147L26.7478 35.8341Z" fill="#445439"/>
<mask id="mask0_60_713" style="mask-type:luminance" maskUnits="userSpaceOnUse" x="0" y="40" width="78" height="49">
<path d="M78 40.9282H0V88.9999H78V40.9282Z" fill="white"/>
</mask>
<g mask="url(#mask0_60_713)">
<path d="M77.77 52.4046C77.6549 52.0533 77.4824 51.7605 77.3098 51.4678C77.0797 51.175 76.8496 50.9408 76.562 50.7066C76.2744 50.4724 75.9868 50.3553 75.6417 50.2382C75.2965 50.1211 74.9514 50.0625 74.6063 50.0625H68.2213C68.0487 50.0625 67.9337 50.004 67.8187 49.9454C67.7036 49.8869 67.5886 49.7698 67.5886 49.5941L65.5753 43.3875C65.4603 43.0362 65.2877 42.7434 65.1151 42.4507C64.885 42.1579 64.6549 41.9237 64.3673 41.6895C64.0797 41.4553 63.7921 41.3382 63.447 41.2211C63.1018 41.104 62.7567 41.0454 62.4116 41.0454C62.0664 41.0454 61.7213 41.104 61.3762 41.2211C61.031 41.3382 60.7434 41.5138 60.4558 41.6895C60.1682 41.9237 59.9381 42.1579 59.708 42.4507C59.478 42.7434 59.3629 43.0362 59.2479 43.3875L57.2921 49.5941C57.2346 49.7112 57.1771 49.8283 57.062 49.9454C56.947 50.0625 56.8319 50.0625 56.6594 50.0625H50.2744C49.9293 50.0625 49.5841 50.1211 49.239 50.2382C48.8939 50.3553 48.6063 50.5309 48.3187 50.7066C48.0311 50.9408 47.801 51.175 47.6284 51.4678C47.4558 51.7605 47.2833 52.0533 47.1682 52.4046C47.0532 52.7559 46.9957 53.1073 46.9957 53.4586C46.9957 53.8099 47.0532 54.1612 47.1682 54.5125C47.2833 54.8638 47.4558 55.1566 47.6284 55.4494C47.8585 55.7421 48.0886 55.9763 48.3762 56.2105L53.5532 60.0165C53.6682 60.1336 53.7833 60.2507 53.7833 60.3678C53.7833 60.4849 53.8408 60.6605 53.7833 60.8362L52.8054 63.5296H46.0753C45.8452 63.5296 45.6151 63.4711 45.4426 63.2954C45.27 63.1198 45.0974 62.9441 45.0399 62.7099L42.6815 55.2737C42.5664 54.9224 42.3939 54.5711 42.1638 54.2198C41.9337 53.927 41.6461 53.6342 41.3585 53.4C41.0134 53.1658 40.6682 52.9901 40.3231 52.873C39.978 52.7559 39.5753 52.6974 39.1726 52.6974C38.77 52.6974 38.4249 52.7559 38.0222 52.873C37.6771 52.9901 37.3319 53.1658 36.9868 53.4C36.6417 53.6342 36.4116 53.927 36.1815 54.2198C35.9514 54.5125 35.7788 54.8638 35.6638 55.2737L33.2479 62.6513C33.1903 62.8855 33.0178 63.0612 32.8452 63.2369C32.6726 63.4125 32.4426 63.4711 32.2125 63.4711H25.4249L24.562 60.7776C24.5045 60.602 24.5045 60.4849 24.562 60.3092C24.6196 60.1336 24.6771 60.0165 24.7921 59.9579L29.9691 56.152C30.2567 55.9763 30.5443 55.6836 30.7169 55.3908C30.947 55.098 31.1195 54.8053 31.1771 54.454C31.2921 54.1026 31.3496 53.7513 31.3496 53.4C31.3496 53.0487 31.2921 52.6974 31.1771 52.3461C31.062 51.9948 30.947 51.702 30.7169 51.4092C30.4868 51.1165 30.2567 50.8823 29.9691 50.648C29.6815 50.4138 29.3939 50.2967 29.0488 50.1796C28.7036 50.0625 28.3585 50.004 28.0134 50.004H21.6284C21.4558 50.004 21.3408 49.9454 21.2257 49.8869C21.1107 49.8283 20.9957 49.7112 20.9957 49.5355L18.9824 43.3875C18.8673 43.0362 18.6948 42.7434 18.5222 42.4507C18.2921 42.1579 18.062 41.9237 17.7744 41.6895C17.4868 41.4553 17.1992 41.3382 16.8541 41.2211C16.5089 41.104 16.1638 41.0454 15.8187 41.0454C15.4735 41.0454 15.1284 41.104 14.7833 41.2211C14.4381 41.3382 14.1505 41.5138 13.8629 41.6895C13.5753 41.9237 13.3452 42.1579 13.1151 42.4507C12.885 42.7434 12.77 43.0362 12.6549 43.3875L10.6417 49.5941C10.5842 49.7112 10.5266 49.8283 10.4116 49.9454C10.2965 50.0625 10.1815 50.0625 10.0089 50.0625H3.6815C3.33636 50.0625 2.99123 50.1211 2.6461 50.2382C2.30097 50.3553 2.01336 50.4724 1.72575 50.7066C1.43814 50.9408 1.20805 51.175 0.977958 51.4678C0.74787 51.7605 0.632825 52.0533 0.517781 52.4046C0.402737 52.7559 0.345215 53.1073 0.345215 53.4586C0.345215 53.8099 0.402737 54.1612 0.517781 54.5125C0.632825 54.8638 0.805392 55.1566 0.977958 55.4494C1.20805 55.7421 1.43814 56.0349 1.72575 56.2105L6.90274 60.0165C7.01778 60.1336 7.13282 60.2507 7.13282 60.3678C7.19035 60.5434 7.19035 60.6605 7.13282 60.8362L5.17707 66.9257C5.06203 67.277 5.00451 67.6283 5.00451 67.9796C5.00451 68.3309 5.06203 68.6823 5.17707 69.0336C5.29212 69.3849 5.46468 69.6776 5.63725 69.9704C5.86734 70.2632 6.09743 70.4974 6.38504 70.7316C6.96026 71.1415 7.593 71.3757 8.28327 71.3757C8.97353 71.3757 9.60628 71.1415 10.1815 70.7316L15.3585 66.9257C15.4735 66.8086 15.6461 66.8086 15.7611 66.8086C15.9337 66.8086 16.0488 66.8671 16.1638 66.9257L21.3408 70.7316C21.916 71.1415 22.5488 71.3757 23.239 71.3757H23.5842L28.5886 74.8888C28.7611 75.0059 28.9337 75.2401 28.9912 75.4744C29.0488 75.7086 29.0488 75.9428 28.9912 76.177L26.6903 83.6132C26.5753 84.023 26.5178 84.3744 26.5178 84.7842C26.5178 85.1941 26.5753 85.5454 26.6903 85.9553C26.8054 86.3651 26.978 86.7165 27.208 87.0092C27.4381 87.3605 27.7257 87.5947 28.0134 87.829C28.6461 88.2974 29.3939 88.5901 30.1992 88.5901C30.947 88.5316 31.6372 88.2974 32.27 87.829L38.4824 83.2619C38.6549 83.1447 38.885 83.0862 39.1151 83.0276C39.3452 83.0276 39.5753 83.0862 39.7479 83.2619L45.9603 87.829C46.3054 88.0632 46.6505 88.2388 46.9957 88.3559C47.3408 88.473 47.7434 88.5316 48.1461 88.5316C48.5487 88.5316 48.8939 88.473 49.2965 88.3559C49.6417 88.2388 49.9868 88.0632 50.3319 87.829C50.6771 87.5947 50.9072 87.302 51.1372 87.0092C51.3673 86.7165 51.5399 86.3651 51.6549 85.9553C51.77 85.604 51.8275 85.1941 51.8275 84.7842C51.8275 84.3744 51.77 84.023 51.6549 83.6132L49.2965 76.177C49.239 75.9428 49.239 75.7086 49.2965 75.4744C49.3541 75.2401 49.4691 75.0645 49.6992 74.8888L54.5311 71.3171H54.8762C55.5664 71.3171 56.1992 71.0829 56.7744 70.673L61.9514 66.8671C62.0664 66.75 62.239 66.75 62.3541 66.75C62.5266 66.75 62.6417 66.8086 62.7567 66.8671L67.9337 70.673C68.5089 71.0829 69.1417 71.3171 69.8319 71.3171C70.5222 71.3171 71.1549 71.0829 71.7302 70.673C72.0178 70.4388 72.2479 70.2046 72.478 69.9119C72.708 69.6191 72.8231 69.3263 72.9381 68.975C73.0532 68.6237 73.1107 68.2724 73.1107 67.9211C73.1107 67.5698 73.0532 67.2184 72.9381 66.8671L70.9824 60.6605C70.9249 60.4849 70.9249 60.3678 70.9824 60.2507C71.0399 60.1336 71.0974 60.0165 71.2125 59.8994L76.3895 56.0934C76.6771 55.9178 76.9647 55.6836 77.1948 55.3908C77.4249 55.098 77.5974 54.8053 77.77 54.454C77.885 54.1026 78.0001 53.7513 78.0001 53.4C77.885 53.1073 77.8275 52.7559 77.77 52.4046ZM69.8319 57.7915C69.5443 58.0257 69.3142 58.2599 69.0841 58.5526C68.8541 58.8454 68.739 59.1382 68.624 59.4895C68.5089 59.8408 68.4514 60.1921 68.4514 60.5434C68.4514 60.8948 68.5089 61.2461 68.624 61.5974L70.5222 67.7454C70.5222 67.8625 70.5797 67.9796 70.5222 68.0967C70.5222 68.2138 70.4647 68.3309 70.4072 68.3895C70.3496 68.5066 70.2346 68.5651 70.1771 68.6237C70.062 68.6823 70.0045 68.6823 69.8895 68.7408C69.7169 68.7408 69.6018 68.6823 69.4868 68.5651L64.3098 64.7592C63.7346 64.3494 63.1018 64.1151 62.4116 64.1151C61.7213 64.1151 61.0886 64.3494 60.5133 64.7592L57.5222 66.9842C57.5222 66.9257 57.5222 66.9257 57.5222 66.8671C57.5222 66.6329 57.4647 66.3987 57.4072 66.223C57.3496 65.9888 57.2346 65.8132 57.1195 65.6375C57.062 65.579 57.062 65.5204 57.0045 65.4619L56.7169 65.052L56.5443 64.7592C56.4293 64.6421 56.3142 64.525 56.1992 64.4079L56.0841 64.2908C55.9116 64.1737 55.739 64.0566 55.5089 63.9395L56.2567 61.6559C56.3718 61.3046 56.4293 60.9533 56.4293 60.602C56.4293 60.2507 56.3718 59.8994 56.2567 59.548C56.1417 59.1967 55.9691 58.904 55.7965 58.6112C55.5664 58.3184 55.3364 58.0842 55.0487 57.85L49.8718 54.0441C49.7567 53.927 49.6417 53.8099 49.6417 53.6928C49.5842 53.5757 49.5842 53.4 49.6417 53.2829C49.6992 53.1073 49.7567 52.9901 49.8718 52.9316C49.9868 52.8145 50.1018 52.8145 50.2744 52.8145H56.5443C56.8895 52.8145 57.2346 52.7559 57.5797 52.6388C57.9249 52.5217 58.2125 52.3461 58.5001 52.1704C58.7877 51.9362 59.0178 51.702 59.2479 51.4092C59.478 51.1165 59.593 50.8237 59.708 50.4724L61.7213 44.3244C61.7788 44.1487 61.8364 44.0316 61.9514 43.973C62.0664 43.8559 62.239 43.8559 62.3541 43.8559C62.5266 43.8559 62.6417 43.9145 62.7567 43.973C62.8718 44.0901 62.9868 44.2073 62.9868 44.3244L64.9426 50.4724C65.0576 50.8237 65.2302 51.1165 65.4027 51.4092C65.6328 51.702 65.8629 51.9362 66.1505 52.1704C66.4381 52.4046 66.7257 52.5217 67.0709 52.6388C67.416 52.7559 67.7611 52.8145 68.1063 52.8145H74.4912C74.6638 52.8145 74.7788 52.873 74.8939 52.9316C75.0089 53.0487 75.124 53.1658 75.124 53.2829C75.1815 53.4 75.1815 53.5757 75.124 53.7513C75.0664 53.927 75.0089 53.9855 74.8364 54.1026L69.8319 57.7915ZM53.4957 68.8579L48.2036 72.8395C47.8585 73.0737 47.6284 73.3665 47.3983 73.6592C47.1682 74.0105 46.9957 74.3619 46.8806 74.7132C46.7656 75.123 46.708 75.4744 46.708 75.8842C46.708 76.2941 46.7656 76.6454 46.8806 77.0553L49.239 84.4915C49.3541 84.7257 49.3541 84.9599 49.239 85.1941C49.1815 85.4283 49.0089 85.604 48.8364 85.7796C48.6638 85.8967 48.4337 85.9553 48.2036 86.0138C47.9735 86.0138 47.7434 85.9553 47.5709 85.7796L41.3585 81.2125C41.0134 80.9783 40.6682 80.8026 40.3231 80.6855C39.9204 80.5684 39.5753 80.5099 39.1726 80.5099C38.77 80.5099 38.4249 80.5684 38.0222 80.6855C37.6195 80.8026 37.2744 80.9783 36.9868 81.2125L30.7744 85.7796C30.6019 85.8967 30.3718 85.9553 30.1417 86.0138C29.9116 86.0138 29.6815 85.9553 29.5089 85.7796C29.3364 85.6625 29.1638 85.4283 29.1063 85.1941C29.0488 84.9599 29.0488 84.7257 29.1063 84.4915L31.4647 77.0553C31.5797 76.6454 31.6372 76.2941 31.6372 75.8842C31.6372 75.4744 31.5797 75.123 31.4647 74.7132C31.3496 74.3619 31.1771 73.952 30.947 73.6592C30.7169 73.3079 30.4293 73.0737 30.1417 72.8395L23.9293 68.2138C23.8142 68.0967 23.6992 68.0382 23.5842 67.8625C23.5842 67.804 23.5842 67.6869 23.5842 67.6283C23.5842 67.5698 23.5842 67.5112 23.5842 67.5112C23.5842 67.4526 23.5842 67.3355 23.5842 67.277C23.5842 67.277 23.5842 67.277 23.5842 67.1599C23.5842 67.1013 23.5842 67.0428 23.5842 66.9842C23.6417 66.8086 23.6992 66.6329 23.8718 66.5158C23.9293 66.4573 24.0443 66.3401 24.1594 66.2816C24.2744 66.2816 24.447 66.2816 24.562 66.2816H32.2125C32.6151 66.2816 32.9603 66.223 33.3629 66.1059C33.708 65.9888 34.0532 65.8132 34.3983 65.579C34.7434 65.3448 34.9735 65.052 35.2036 64.7592C35.4337 64.4079 35.6063 64.0566 35.7213 63.7053L38.0797 56.2691C38.1372 56.0349 38.3098 55.8592 38.4824 55.6836C38.6549 55.5665 38.885 55.4494 39.1151 55.4494C39.3452 55.4494 39.5753 55.5079 39.7479 55.6836C39.9204 55.8007 40.093 56.0349 40.1505 56.2691L42.5089 63.7053C42.624 64.0566 42.7965 64.4079 43.0266 64.7592C43.2567 65.1105 43.5443 65.3448 43.8319 65.579C44.1771 65.8132 44.5222 65.9888 44.8673 66.1059C45.27 66.223 45.6151 66.2816 46.0178 66.2816H53.7257C53.7833 66.2816 53.8983 66.2816 53.9558 66.2816C54.0134 66.2816 54.1284 66.2816 54.1859 66.2816C54.2434 66.2816 54.301 66.3401 54.3585 66.3987L54.5311 66.5158C54.5311 66.5744 54.5311 66.6329 54.5311 66.6329L54.6461 66.75C54.6461 66.8086 54.6461 66.8671 54.6461 66.8671C54.6461 66.8671 54.6461 66.8671 54.6461 66.9842V67.1013C54.6461 67.277 54.6461 67.4526 54.5311 67.6283C54.4735 67.804 54.3585 67.9211 54.1859 68.0382L53.2656 68.6823L53.4957 68.8579ZM21.6284 64.7592L21.5134 64.8763C21.3983 65.052 21.2833 65.1691 21.1682 65.3448V65.4619C21.0532 65.6961 20.9957 65.8717 20.8806 66.1059C20.8231 66.3401 20.7656 66.5744 20.708 66.8086V66.9257L17.7169 64.8178C17.1417 64.4079 16.5089 64.1737 15.8187 64.1737C15.1284 64.1737 14.4957 64.4079 13.9204 64.8178L8.74344 68.6237C8.6284 68.7408 8.51336 68.7994 8.34079 68.7994C8.1107 68.7994 7.88061 68.7994 7.70805 68.6237C7.593 68.5066 7.47796 68.3895 7.47796 68.2724C7.42043 68.0967 7.42043 67.9796 7.47796 67.804L9.60628 61.6559C9.72132 61.3046 9.77884 60.9533 9.77884 60.602C9.77884 60.2507 9.72132 59.8994 9.60628 59.548C9.49123 59.1967 9.31866 58.904 9.1461 58.6112C8.97353 58.3184 8.68592 58.0842 8.39831 57.85L3.22132 54.0441C3.10628 53.927 2.99123 53.8099 2.99123 53.6928C2.93371 53.5757 2.93371 53.4 2.99123 53.2829C3.04875 53.1073 3.10628 52.9901 3.22132 52.9316C3.50893 52.7559 3.62398 52.6974 3.79654 52.6974H10.1815C10.5266 52.6974 10.8718 52.6388 11.2169 52.5217C11.562 52.4046 11.8496 52.229 12.1372 52.0533C12.4249 51.8191 12.6549 51.5849 12.885 51.2921C13.1151 50.9994 13.2302 50.7066 13.3452 50.3553L15.2434 44.2073C15.301 44.0901 15.3585 43.973 15.4735 43.8559C15.5886 43.7388 15.7036 43.7388 15.8762 43.7388C16.0488 43.7388 16.1638 43.7974 16.2788 43.8559C16.3939 43.973 16.5089 44.0316 16.5089 44.2073L18.4647 50.3553C18.5797 50.7066 18.7523 50.9994 18.9249 51.2921C19.1549 51.5849 19.385 51.8191 19.6726 52.0533C19.9603 52.2875 20.2479 52.4046 20.593 52.5217C20.9381 52.6388 21.2833 52.6974 21.6284 52.6974H28.0134C28.1859 52.6974 28.301 52.7559 28.416 52.8145C28.5311 52.873 28.6461 53.0487 28.6461 53.1658C28.7036 53.3415 28.7036 53.4586 28.6461 53.6342C28.5886 53.7513 28.5311 53.8684 28.3585 53.9855L23.1815 57.7915C22.8939 58.0257 22.6638 58.2599 22.4337 58.5526C22.2036 58.8454 22.0886 59.1382 21.9735 59.4895C21.8585 59.8408 21.801 60.1921 21.801 60.5434C21.801 60.8948 21.8585 61.2461 21.9735 61.5974L22.7213 63.8809C22.4912 63.998 22.3187 64.1151 22.1461 64.2908H22.0311L21.6284 64.7592Z" fill="#445439"/>
</g>
<path d="M49.9292 36.7711C50.0443 36.7711 50.1593 36.7711 50.3319 36.7711C50.6195 36.7711 50.9071 36.654 51.1372 36.4783C51.3673 36.3027 51.5399 36.0685 51.5974 35.7757L59.6505 8.43163C59.708 8.25597 59.708 8.08031 59.708 7.90465C59.708 7.729 59.6505 7.55334 59.5929 7.37768C59.5354 7.20202 59.4204 7.08492 59.2478 6.96781C59.1328 6.85071 58.9602 6.79215 58.7876 6.7336C58.6151 6.67505 58.4425 6.67505 58.2699 6.67505C58.0974 6.67505 57.9248 6.7336 57.7522 6.85071C57.5797 6.96781 57.4646 7.08492 57.3496 7.20202C57.2345 7.31913 57.177 7.49479 57.1195 7.67044L49.1239 35.0731C49.0664 35.2487 49.0664 35.4244 49.0664 35.6001C49.0664 35.7757 49.1239 35.9514 49.1814 36.0685C49.239 36.2441 49.354 36.3612 49.4691 36.4783C49.6416 36.5954 49.7567 36.7126 49.9292 36.7711Z" fill="#445439"/>
<mask id="mask1_60_713" style="mask-type:luminance" maskUnits="userSpaceOnUse" x="37" y="0" width="5" height="43">
<path d="M41.186 0H37.332V42.5092H41.186V0Z" fill="white"/>
</mask>
<g mask="url(#mask1_60_713)">
<path d="M39.1726 41.9236C39.3452 41.9236 39.5177 41.865 39.6903 41.8065C39.8629 41.7479 39.9779 41.6308 40.093 41.5137C40.208 41.3966 40.3231 41.2209 40.3806 41.1038C40.4381 40.9282 40.4956 40.7525 40.4956 40.5769V1.69791C40.4956 1.52225 40.4956 1.34659 40.4381 1.11238C40.3806 0.936721 40.2655 0.761063 40.1505 0.643958C40.0354 0.526853 39.8629 0.409748 39.6903 0.292642C39.5177 0.23409 39.3452 0.175537 39.1726 0.175537C39 0.175537 38.8275 0.23409 38.6549 0.292642C38.4823 0.351195 38.3098 0.4683 38.1947 0.643958C38.0797 0.761063 37.9647 0.936721 37.9071 1.11238C37.8496 1.28804 37.8496 1.4637 37.8496 1.69791V40.6354C37.8496 40.8111 37.9071 40.9867 37.9647 41.1624C38.0222 41.338 38.1372 41.4551 38.2523 41.5722C38.3673 41.6894 38.5399 41.8065 38.6549 41.865C38.8275 41.865 39 41.9236 39.1726 41.9236Z" fill="#445439"/>
</g>
</g>
<defs>
<clipPath id="clip0_60_713">
<rect width="78" height="89" fill="white"/>
</clipPath>
</defs>
</svg>
