<svg width="83" height="80" viewBox="0 0 83 80" fill="none" xmlns="http://www.w3.org/2000/svg">
<g clip-path="url(#clip0_60_642)">
<path d="M66.7747 79.5114L41.4998 66.0515L16.225 79.5114L21.0444 50.9633L0.588867 30.719L28.8624 26.5942L41.4998 0.596924L54.1373 26.5942L82.4108 30.7733L61.9553 51.0176L66.7747 79.5114ZM5.24758 32.293L23.3469 50.2034L19.0631 75.4952L41.4463 63.5549L63.8295 75.4952L59.5456 50.2034L77.645 32.293L52.6379 28.6024L41.4998 5.64441L30.3082 28.6024L5.24758 32.293Z" fill="#445439"/>
<path d="M67.1497 80L41.5 66.3229L15.8503 80L20.7232 51.0719L0 30.5563L28.6484 26.3229L41.5 0L54.3516 26.3229L83 30.5563L62.2768 51.0719L67.1497 80ZM1.12452 30.9362L21.3123 50.8548V51.0176L16.6 79.0231L41.5536 65.7259L41.6606 65.7802L66.4536 78.9688L61.6877 50.8548L81.8219 30.9362L53.9768 26.8114L41.5 1.2483L29.0232 26.8114L1.12452 30.9362ZM64.2045 75.9294L41.5 63.8263L18.7419 75.9294L23.0794 50.2578L4.71226 32.1303L30.1477 28.3853L41.5 5.04749L52.8523 28.3853L78.2877 32.1303L59.8671 50.3121L64.2045 75.9294ZM5.83677 32.5102L23.6684 50.095V50.2578L19.4916 75.0068L41.5536 63.2836L63.5619 75.0068L59.3316 50.1493L77.1632 32.5645L52.531 28.9281L41.5 6.24152L30.469 28.8738L5.83677 32.5102Z" fill="#445439"/>
</g>
<defs>
<clipPath id="clip0_60_642">
<rect width="83" height="80" fill="white"/>
</clipPath>
</defs>
</svg>
