<svg width="83" height="80" viewBox="0 0 83 80" fill="none" xmlns="http://www.w3.org/2000/svg">
<g clip-path="url(#clip0_60_600)">
<path d="M28.0294 69.4018C27.7572 69.4018 27.4851 69.2651 27.281 69.0599C26.8728 68.6497 26.8728 67.9659 27.281 67.5557L31.2949 63.5215C31.499 63.3164 31.7712 63.1796 32.0433 63.1796C36.2613 63.248 40.2072 61.607 43.1326 58.6668L56.8752 44.8548C57.7597 43.9659 57.7597 42.53 56.8752 41.7095C56.467 41.2309 55.9228 41.0258 55.3105 41.0258C54.6982 41.0258 54.1539 41.2309 53.7457 41.6411C53.3375 42.0514 52.6572 42.0514 52.249 41.6411C51.8408 41.2309 51.8408 40.5471 52.249 40.1369L57.3515 35.0087C57.7597 34.5984 57.9638 34.0514 57.9638 33.436C57.9638 32.8206 57.7597 32.2736 57.3515 31.8634C56.4671 30.9745 55.0384 30.9745 54.222 31.8634C53.8138 32.2736 53.1334 32.2736 52.7252 31.8634C52.3171 31.4531 52.3171 30.7694 52.7252 30.3591L55.1744 27.8976C55.5826 27.4873 55.8548 26.9403 55.8548 26.3249C55.8548 25.7095 55.6507 25.1625 55.1744 24.7523C54.29 23.8634 52.8613 23.8634 52.0449 24.7523L49.7318 27.077C49.3236 27.4873 48.6433 27.4873 48.2351 27.077C47.6228 26.6668 47.6228 25.983 48.031 25.5044C48.4392 25.0941 48.7113 24.5471 48.7113 23.9317C48.7113 23.3164 48.5072 22.7694 48.031 22.3591C47.6228 21.9488 47.0785 21.6753 46.4662 21.6753C45.8539 21.6753 45.3097 21.8805 44.9015 22.3591L35.581 31.7266C35.1728 32.1369 34.4925 32.1369 34.0843 31.7266C33.8802 31.5215 33.7441 31.248 33.7441 30.9745C33.7441 30.701 33.8802 30.4275 34.0843 30.2223C34.4925 29.8121 34.7646 29.2651 34.7646 28.6497C34.7646 28.0343 34.5605 27.4873 34.0843 27.077L32.5195 25.5044L21.2941 36.6497C18.3687 39.6582 16.7359 43.6241 16.8039 47.8634C16.8039 48.1369 16.6679 48.4104 16.4638 48.6155L12.4498 52.6497C12.0416 53.0599 11.3613 53.0599 10.9531 52.6497C10.5449 52.2394 10.5449 51.5557 10.9531 51.1454L14.6949 47.3847C14.763 42.7352 16.5998 38.4275 19.7974 35.1454L31.2269 23.6582C31.5671 23.3164 31.9753 23.1112 32.4515 23.1112C32.9277 23.1112 33.3359 23.3164 33.6761 23.6582L35.513 25.5044C36.0572 26.0514 36.4654 26.7352 36.6695 27.4873L43.3367 20.7864C45.0375 19.077 47.8269 19.077 49.5277 20.7864C50.072 21.3335 50.4802 22.0856 50.6843 22.8377C52.3851 21.4018 54.9703 21.5386 56.5351 23.1112C58.1679 24.7523 58.2359 27.4189 56.7392 29.1283C57.4875 29.3335 58.1679 29.6753 58.7802 30.2907C60.481 32.0001 60.481 34.8035 58.7802 36.5129L56.399 38.9745C57.1474 39.1796 57.8277 39.5899 58.44 40.1369C60.1408 41.8463 60.1408 44.6497 58.44 46.3591L44.6974 60.1711C41.4318 63.4531 37.1457 65.2309 32.5195 65.2993L28.7777 69.0599C28.5736 69.2651 28.3015 69.4018 28.0294 69.4018Z" fill="#445439"/>
<path d="M46.8065 48.2052C46.5343 48.2052 46.2622 48.0684 46.0581 47.8633C45.6499 47.453 45.6499 46.7693 46.0581 46.359L52.1811 40.2052C52.5892 39.7949 53.2696 39.7949 53.6778 40.2052C54.086 40.6154 54.086 41.2992 53.6778 41.7094L47.5548 47.8633C47.3507 48.0684 47.0786 48.2052 46.8065 48.2052Z" fill="#445439"/>
<path d="M42.1802 43.4872C41.9081 43.4872 41.636 43.3504 41.4319 43.1453C41.0237 42.735 41.0237 42.0513 41.4319 41.641L52.5893 30.4273C52.9975 30.0171 53.6778 30.0171 54.086 30.4273C54.4942 30.8376 54.4942 31.5213 54.086 31.9316L42.9286 43.1453C42.7245 43.3504 42.4524 43.4872 42.1802 43.4872Z" fill="#445439"/>
<path d="M37.6903 38.5641C37.4181 38.5641 37.146 38.4273 36.9419 38.2222C36.5337 37.8119 36.5337 37.1282 36.9419 36.7179L48.0993 25.5042C48.5075 25.094 49.1878 25.094 49.596 25.5042C50.0042 25.9145 50.0042 26.5982 49.596 27.0085L38.4386 38.2906C38.2345 38.4957 37.9624 38.5641 37.6903 38.5641Z" fill="#445439"/>
<path d="M28.6419 38.2906C28.3698 38.2906 28.0976 38.1539 27.8935 37.9487C27.4854 37.5385 27.4854 36.8547 27.8935 36.4444L34.0165 30.2906C34.4247 29.8803 35.105 29.8803 35.5132 30.2906C35.9214 30.7009 35.9214 31.3846 35.5132 31.7949L29.3903 37.9487C29.1862 38.1539 28.914 38.2906 28.6419 38.2906Z" fill="#445439"/>
<mask id="mask0_60_600" style="mask-type:luminance" maskUnits="userSpaceOnUse" x="0" y="48" width="31" height="32">
<path d="M30.8189 48.8206H0V80H30.8189V48.8206Z" fill="white"/>
</mask>
<g mask="url(#mask0_60_600)">
<path d="M23.7434 79.9318C23.4713 79.9318 23.1992 79.795 22.9951 79.5899L0.408198 56.9574C1.59442e-06 56.5471 1.59442e-06 55.8634 0.408198 55.3847L4.69426 51.077C6.80328 48.9574 10.273 48.9574 12.382 51.077L28.7779 67.5557C30.8869 69.6753 30.8869 73.1625 28.7779 75.2822L24.4918 79.5899C24.2877 79.8634 24.0156 79.9318 23.7434 79.9318ZM2.72131 56.2053L23.7434 77.4018L27.2811 73.8463C28.5738 72.5471 28.5738 70.4275 27.2811 69.1283L10.8852 52.6497C9.59263 51.3506 7.48361 51.3506 6.19099 52.6497L2.72131 56.2053Z" fill="#445439"/>
</g>
<mask id="mask1_60_600" style="mask-type:luminance" maskUnits="userSpaceOnUse" x="14" y="0" width="70" height="69">
<path d="M83.0002 0H14.4912V68.9231H83.0002V0Z" fill="white"/>
</mask>
<g mask="url(#mask1_60_600)">
<path d="M49.0519 68.1026C48.7797 68.1026 48.5076 67.9658 48.3035 67.7607C46.1945 65.641 44.0174 63.453 41.9084 61.265C41.5002 60.8547 41.5002 60.1709 41.9084 59.7607C42.3166 59.3504 42.997 59.3504 43.4052 59.7607C45.242 61.6752 47.147 63.5897 49.0519 65.4359C56.8076 57.641 64.8355 49.5726 70.7543 41.641C77.4896 32.6154 80.8232 24.6838 80.8232 17.5726C80.8232 9.09402 73.9519 2.18803 65.5158 2.18803C58.4404 2.18803 54.4265 5.26496 50.0724 13.9487C49.8683 14.2906 49.5281 14.5641 49.1199 14.5641C48.7117 14.5641 48.3715 14.359 48.1674 13.9487C43.7453 5.26496 39.7314 2.18803 32.656 2.18803C24.2199 2.18803 17.3486 9.09402 17.3486 17.5726C17.3486 22.7692 19.0494 28.3077 22.5191 34.3248C22.7912 34.8718 22.6552 35.4872 22.1109 35.8291C21.5666 36.1026 20.9543 35.9658 20.6142 35.4188C16.9404 28.9915 15.1035 23.1795 15.1035 17.5726C15.1715 7.93162 22.9953 0 32.656 0C41.024 0 45.3101 4.17094 49.0519 11.0769C52.7937 4.23932 57.0797 0 65.4478 0C75.1084 0 82.9322 7.86325 82.9322 17.5726C82.9322 25.2308 79.5306 33.5043 72.4552 42.9402C66.2642 51.282 57.8961 59.6923 49.8002 67.8291C49.5961 68.0342 49.324 68.1026 49.0519 68.1026Z" fill="#445439"/>
</g>
</g>
<defs>
<clipPath id="clip0_60_600">
<rect width="83" height="80" fill="white"/>
</clipPath>
</defs>
</svg>
