<svg width="80" height="80" viewBox="0 0 80 80" fill="none" xmlns="http://www.w3.org/2000/svg">
<g clip-path="url(#clip0_60_619)">
<mask id="mask0_60_619" style="mask-type:luminance" maskUnits="userSpaceOnUse" x="0" y="0" width="80" height="80">
<path d="M80 0H0V80H80V0Z" fill="white"/>
</mask>
<g mask="url(#mask0_60_619)">
<path d="M40 80C39.5 80 39.0625 79.8125 38.6875 79.4375L31.375 72.125L21.375 74.8125C21.125 74.875 20.875 74.875 20.6875 74.875C20.4375 74.875 20.25 74.75 20 74.625C19.8125 74.5 19.625 74.375 19.4375 74.1875C19.3125 74 19.1875 73.8125 19.125 73.5625L16.4375 63.5625L6.4375 60.875C6.1875 60.8125 6 60.6875 5.8125 60.5625C5.625 60.375 5.5 60.1875 5.375 60C5.25 59.8125 5.1875 59.5625 5.125 59.3125C5.0625 59.0625 5.125 58.8125 5.1875 58.625L7.875 48.625L0.5625 41.3125C0.375 41.125 0.25 40.9375 0.1875 40.75C0.0625 40.5 0 40.25 0 40C0 39.75 0.0625 39.5 0.125 39.3125C0.1875 39.0625 0.375 38.875 0.5 38.75L7.8125 31.4375L5.125 21.4375C5.0625 21.1875 5.0625 20.9375 5.0625 20.75C5.0625 20.5 5.1875 20.3125 5.3125 20.0625C5.4375 19.875 5.5625 19.6875 5.75 19.5C5.9375 19.375 6.125 19.25 6.375 19.1875L16.375 16.5L19.0625 6.5C19.125 6.25 19.25 6.0625 19.375 5.875C19.625 5.625 19.8125 5.5 20 5.375C20.1875 5.25 20.4375 5.1875 20.6875 5.125C20.9375 5.0625 21.1875 5.125 21.375 5.1875L31.375 7.875L38.6875 0.5625C38.875 0.375 39.0625 0.25 39.25 0.1875C39.5 0.0625 39.75 0 40 0C40.25 0 40.5 0.0625 40.6875 0.125C40.9375 0.1875 41.125 0.375 41.25 0.5L48.5625 7.8125L58.5625 5.125C58.8125 5.0625 59.0625 5.0625 59.25 5.0625C59.5 5.0625 59.6875 5.1875 59.9375 5.3125C60.125 5.4375 60.3125 5.5625 60.4375 5.75C60.5625 5.9375 60.6875 6.125 60.75 6.375L63.4375 16.375L73.4375 19.0625C73.6875 19.125 73.875 19.25 74.0625 19.375C74.25 19.5 74.4375 19.6875 74.5625 19.9375C74.6875 20.125 74.75 20.375 74.8125 20.625C74.875 20.875 74.8125 21.125 74.75 21.3125L72.0625 31.3125L79.375 38.625C79.5625 38.8125 79.6875 39 79.75 39.1875C79.8125 39.4375 79.875 39.625 79.875 39.875C79.875 40.125 79.8125 40.375 79.75 40.5625C79.6875 40.8125 79.5 41 79.375 41.125L72.0625 48.4375L74.75 58.4375C74.8125 58.6875 74.8125 58.9375 74.8125 59.125C74.75 59.375 74.6875 59.5625 74.5625 59.8125C74.4375 60.0625 74.3125 60.1875 74.0625 60.375C73.875 60.5 73.6875 60.625 73.4375 60.6875L63.4375 63.375L60.75 73.375C60.6875 73.625 60.5625 73.8125 60.4375 74C60.3125 74.1875 60.125 74.375 59.9375 74.5C59.75 74.625 59.5 74.6875 59.25 74.75C59 74.75 58.75 74.75 58.5625 74.6875L48.5625 72L41.25 79.3125C40.9375 79.8125 40.5 80 40 80ZM31.9375 68.3125C32.4375 68.3125 32.875 68.5 33.25 68.8125L40 75.625L46.8125 68.8125C47.0625 68.5625 47.3125 68.4375 47.625 68.3125C47.9375 68.25 48.25 68.25 48.5625 68.3125L57.8125 70.8125L60.3125 61.5625C60.375 61.25 60.5625 61 60.8125 60.75C61.0625 60.5 61.3125 60.375 61.625 60.25L70.875 57.75L68.375 48.5C68.3125 48.1875 68.3125 47.875 68.375 47.5625C68.4375 47.25 68.625 47 68.875 46.75L75.625 40L68.8125 33.1875C68.5625 32.9375 68.4375 32.6875 68.3125 32.375C68.25 32.0625 68.25 31.75 68.3125 31.4375L70.8125 22.1875L61.5625 19.6875C61.25 19.625 61 19.4375 60.75 19.1875C60.5 18.9375 60.375 18.6875 60.25 18.375L57.75 9.125L48.5 11.625C48.1875 11.6875 47.875 11.6875 47.5625 11.625C47.25 11.5625 47 11.375 46.75 11.125L40 4.375L33.1875 11.1875C32.9375 11.4375 32.6875 11.5625 32.375 11.6875C32.0625 11.75 31.75 11.75 31.4375 11.6875L22.1875 9.1875L19.6875 18.4375C19.625 18.75 19.4375 19 19.1875 19.25C18.9375 19.5 18.6875 19.625 18.375 19.75L9.125 22.25L11.625 31.5C11.6875 31.8125 11.6875 32.125 11.625 32.4375C11.5625 32.75 11.375 33 11.125 33.25L4.375 40L11.1875 46.75C11.4375 47 11.5625 47.25 11.6875 47.5625C11.75 47.875 11.75 48.1875 11.6875 48.5L9.1875 57.75L18.4375 60.25C18.75 60.3125 19 60.5 19.25 60.75C19.5 61 19.625 61.25 19.75 61.5625L22.25 70.8125L31.5 68.3125C31.625 68.3125 31.75 68.3125 31.9375 68.3125Z" fill="#445439"/>
</g>
<path d="M30.9375 38.1875C30.4375 38.1875 30 38.125 29.5 38.0625C29 38 28.5625 37.8125 28.125 37.625C27.6875 37.4375 27.25 37.1875 26.875 36.9375C26.5 36.6875 26.125 36.375 25.75 36.0625C25.4375 35.75 25.125 35.375 24.875 34.9375C24.625 34.5625 24.375 34.125 24.1875 33.6875C24 33.25 23.875 32.8125 23.75 32.3125C23.6875 31.8125 23.625 31.375 23.625 30.875C23.625 30.375 23.6875 29.9375 23.75 29.4375C23.875 28.9375 24 28.5 24.1875 28.0625C24.375 27.625 24.625 27.1875 24.875 26.8125C25.125 26.4375 25.4375 26.0625 25.75 25.6875C26.0625 25.375 26.4375 25.0625 26.875 24.8125C27.25 24.5625 27.6875 24.3125 28.125 24.125C28.5625 23.9375 29 23.8125 29.5 23.6875C30 23.5625 30.4375 23.5625 30.9375 23.5625C31.4375 23.5625 31.875 23.625 32.375 23.6875C32.875 23.75 33.3125 23.9375 33.75 24.125C34.1875 24.3125 34.625 24.5625 35 24.8125C35.375 25.0625 35.75 25.375 36.125 25.6875C36.4375 26 36.75 26.375 37 26.8125C37.25 27.1875 37.5 27.625 37.6875 28.0625C37.875 28.5 38 28.9375 38.125 29.4375C38.1875 29.9375 38.25 30.375 38.25 30.875C38.25 31.375 38.1875 31.8125 38.125 32.3125C38.0625 32.75 37.875 33.25 37.6875 33.6875C37.5 34.125 37.25 34.5625 37 34.9375C36.75 35.3125 36.4375 35.6875 36.125 36.0625C35.8125 36.375 35.4375 36.6875 35 36.9375C34.625 37.1875 34.1875 37.4375 33.75 37.625C33.3125 37.8125 32.875 37.9375 32.375 38.0625C31.875 38.125 31.375 38.1875 30.9375 38.1875ZM30.9375 27.25C30.6875 27.25 30.4375 27.25 30.25 27.3125C30 27.375 29.8125 27.4375 29.5625 27.5C29.3125 27.5625 29.125 27.6875 28.9375 27.8125C28.75 27.9375 28.5625 28.125 28.375 28.25C28.1875 28.4375 28.0625 28.625 27.9375 28.8125C27.8125 29 27.6875 29.25 27.625 29.4375C27.5625 29.6875 27.4375 29.875 27.4375 30.125C27.375 30.375 27.375 30.625 27.375 30.8125C27.375 31.0625 27.375 31.3125 27.4375 31.5C27.5 31.75 27.5625 31.9375 27.625 32.1875C27.75 32.4375 27.8125 32.625 27.9375 32.8125C28.0625 33 28.25 33.1875 28.375 33.375C28.5625 33.5625 28.75 33.6875 28.9375 33.8125C29.125 33.9375 29.375 34.0625 29.5625 34.125C29.8125 34.1875 30 34.3125 30.25 34.3125C30.5 34.375 30.75 34.375 30.9375 34.375C31.1875 34.375 31.4375 34.375 31.625 34.3125C31.875 34.25 32.0625 34.1875 32.3125 34.125C32.5625 34.0625 32.75 33.9375 32.9375 33.8125C33.125 33.6875 33.3125 33.5 33.5 33.375C33.6875 33.1875 33.8125 33 33.9375 32.8125C34.0625 32.625 34.1875 32.375 34.25 32.1875C34.3125 32 34.4375 31.75 34.4375 31.5C34.5 31.25 34.5 31 34.5 30.8125C34.5 30.5625 34.5 30.3125 34.4375 30.125C34.375 29.875 34.3125 29.6875 34.25 29.4375C34.1875 29.1875 34.0625 29 33.9375 28.8125C33.8125 28.625 33.625 28.4375 33.5 28.25C33.3125 28.0625 33.125 27.9375 32.9375 27.8125C32.75 27.6875 32.5 27.5625 32.3125 27.5C32.0625 27.4375 31.875 27.3125 31.625 27.3125C31.375 27.3125 31.125 27.25 30.9375 27.25Z" fill="#445439"/>
<path d="M49.0625 56.375C48.5625 56.375 48.125 56.3125 47.625 56.25C47.125 56.125 46.6875 56 46.25 55.8125C45.8125 55.625 45.375 55.375 45 55.125C44.625 54.875 44.25 54.5625 43.875 54.25C43.5625 53.9375 43.25 53.5625 43 53.125C42.75 52.75 42.5 52.3125 42.3125 51.875C42.125 51.4375 42 51 41.875 50.5C41.75 50 41.75 49.5625 41.75 49.0625C41.75 48.5625 41.8125 48.125 41.875 47.625C41.9375 47.1875 42.125 46.6875 42.3125 46.25C42.5 45.8125 42.75 45.375 43 45C43.25 44.625 43.5625 44.25 43.875 43.875C44.1875 43.5625 44.5625 43.25 45 43C45.375 42.75 45.8125 42.5 46.25 42.3125C46.6875 42.125 47.125 42 47.625 41.875C48.125 41.75 48.5625 41.75 49.0625 41.75C49.5625 41.75 50 41.8125 50.5 41.875C51 42 51.4375 42.125 51.875 42.3125C52.3125 42.5 52.75 42.75 53.125 43C53.5 43.25 53.875 43.5625 54.25 43.875C54.5625 44.1875 54.875 44.5625 55.125 45C55.375 45.375 55.625 45.8125 55.8125 46.25C56 46.6875 56.125 47.125 56.25 47.625C56.375 48.125 56.375 48.5625 56.375 49.0625C56.375 49.5625 56.3125 50 56.25 50.5C56.1875 51 56 51.4375 55.8125 51.875C55.625 52.3125 55.375 52.75 55.125 53.125C54.875 53.5 54.5625 53.875 54.25 54.25C53.9375 54.5625 53.5625 54.875 53.125 55.125C52.75 55.375 52.3125 55.625 51.875 55.8125C51.4375 56 51 56.125 50.5 56.25C50 56.375 49.5625 56.375 49.0625 56.375ZM49.0625 45.4375C48.8125 45.4375 48.5625 45.4375 48.375 45.5C48.125 45.5625 47.9375 45.625 47.6875 45.6875C47.4375 45.75 47.25 45.875 47.0625 46C46.875 46.125 46.6875 46.3125 46.5 46.4375C46.3125 46.625 46.1875 46.8125 46.0625 47C45.9375 47.1875 45.8125 47.4375 45.75 47.625C45.6875 47.875 45.5625 48.0625 45.5625 48.3125C45.5 48.5625 45.5 48.8125 45.5 49C45.5 49.25 45.5 49.5 45.5625 49.6875C45.625 49.9375 45.6875 50.125 45.75 50.375C45.8125 50.625 45.9375 50.8125 46.0625 51C46.1875 51.1875 46.375 51.375 46.5 51.5625C46.6875 51.75 46.875 51.875 47.0625 52C47.25 52.125 47.5 52.25 47.6875 52.3125C47.875 52.375 48.125 52.5 48.375 52.5C48.625 52.5 48.875 52.5625 49.0625 52.5625C49.3125 52.5625 49.5625 52.5625 49.75 52.5C49.9375 52.4375 50.1875 52.375 50.4375 52.3125C50.6875 52.25 50.875 52.125 51.0625 52C51.25 51.875 51.4375 51.6875 51.625 51.5625C51.8125 51.4375 51.9375 51.1875 52.0625 51C52.1875 50.8125 52.3125 50.5625 52.375 50.375C52.4375 50.125 52.5625 49.9375 52.5625 49.6875C52.625 49.4375 52.625 49.1875 52.625 49C52.625 48.75 52.625 48.5 52.5625 48.3125C52.5 48.0625 52.4375 47.875 52.375 47.625C52.3125 47.375 52.1875 47.1875 52.0625 47C51.9375 46.8125 51.75 46.625 51.625 46.4375C51.4375 46.25 51.25 46.125 51.0625 46C50.875 45.875 50.625 45.75 50.4375 45.6875C50.25 45.5625 50 45.5 49.75 45.5C49.5625 45.5 49.3125 45.4375 49.0625 45.4375Z" fill="#445439"/>
<path d="M29.0625 56.375C28.75 56.375 28.375 56.3125 28.125 56.125C27.8125 55.9375 27.625 55.6875 27.4375 55.375C27.3125 55.0625 27.25 54.75 27.25 54.375C27.25 54 27.375 53.75 27.625 53.4375L49.4375 24.375C49.5625 24.1875 49.75 24 49.9375 23.875C50.125 23.75 50.375 23.6875 50.625 23.625C50.875 23.5625 51.125 23.625 51.3125 23.6875C51.5625 23.75 51.75 23.875 51.9375 24C52.125 24.125 52.3125 24.3125 52.4375 24.5C52.5625 24.6875 52.625 24.9375 52.6875 25.1875C52.75 25.4375 52.6875 25.6875 52.625 25.875C52.5625 26.125 52.4375 26.3125 52.3125 26.5L30.5625 55.625C30.1875 56.125 29.6875 56.375 29.0625 56.375Z" fill="#445439"/>
</g>
<defs>
<clipPath id="clip0_60_619">
<rect width="80" height="80" fill="white"/>
</clipPath>
</defs>
</svg>
