<svg width="80" height="80" viewBox="0 0 80 80" fill="none" xmlns="http://www.w3.org/2000/svg">
<g clip-path="url(#clip0_60_662)">
<path d="M48.1229 0.204834C41.6383 0.204834 36.3823 5.46081 36.3823 11.9454C36.3823 13.5837 36.7919 15.0854 37.4062 16.4506H17.3379C17.2014 16.4506 17.1332 16.4506 16.9966 16.5188C16.8601 16.5871 16.7919 16.6553 16.7236 16.7236C16.6553 16.7919 16.5871 16.9284 16.5188 16.9966C16.4506 17.1332 16.4506 17.2014 16.4506 17.3379V37.3379C15.0171 36.7236 13.5154 36.3141 11.9454 36.3141C5.46081 36.3823 0.204834 41.6383 0.204834 48.1229C0.204834 54.6076 5.46081 59.9318 11.9454 59.9318C13.5837 59.9318 15.0854 59.5222 16.4506 58.9079V78.9079C16.4506 79.0444 16.4506 79.1127 16.5188 79.2492C16.5871 79.3857 16.6553 79.454 16.7236 79.5222C16.7919 79.5905 16.9284 79.6588 16.9966 79.727C17.1332 79.7953 17.2014 79.7953 17.3379 79.7953H40.0001C40.2048 79.7953 40.3414 79.727 40.4779 79.6588C40.6144 79.5905 40.7509 79.454 40.8192 79.2492C40.8874 79.1127 40.8874 78.9079 40.8874 78.7031C40.8874 78.4984 40.7509 78.3618 40.6827 78.2253C39.1127 76.4506 38.1571 74.1298 38.1571 71.6042C38.1571 66.0751 42.5939 61.6383 48.1229 61.6383C53.6519 61.6383 58.0888 66.0751 58.0888 71.6042C58.0888 74.1298 57.1332 76.4506 55.5632 78.2253C55.4267 78.3618 55.3584 78.4984 55.3584 78.7031C55.3584 78.9079 55.3584 79.0444 55.4267 79.2492C55.4949 79.3857 55.6315 79.5222 55.768 79.6588C55.9045 79.727 56.1093 79.7953 56.2458 79.7953H78.9079C79.0444 79.7953 79.1127 79.7953 79.2492 79.727C79.3857 79.6588 79.454 79.5905 79.5222 79.5222C79.5905 79.454 79.6588 79.3175 79.727 79.2492C79.7953 79.1127 79.7953 79.0444 79.7953 78.9079V56.2458C79.7953 55.8362 79.5905 55.5632 79.2492 55.4267C78.9079 55.2902 78.5666 55.2902 78.2936 55.5632C76.5188 57.1332 74.198 58.0888 71.6724 58.0888C66.1434 58.0888 61.7065 53.6519 61.7065 48.1229C61.7065 42.5939 66.1434 38.1571 71.6724 38.1571C74.198 38.1571 76.5871 39.1127 78.2936 40.6827C78.5666 40.9557 78.9079 40.9557 79.2492 40.8192C79.5905 40.6827 79.7953 40.4096 79.7953 40.0001V17.3379C79.7953 17.2014 79.7953 17.1332 79.727 16.9966C79.6588 16.8601 79.5905 16.7919 79.5222 16.7236C79.454 16.6553 79.3175 16.5871 79.2492 16.5188C79.1127 16.4506 79.0444 16.4506 78.9079 16.4506H58.9079C59.5222 15.0171 59.9318 13.5837 59.9318 11.9454C59.9318 5.46081 54.6076 0.204834 48.1229 0.204834ZM48.1229 1.97958C53.6519 1.97958 58.0888 6.41644 58.0888 11.9454C58.0888 13.7885 57.611 15.4267 56.7236 16.9284C56.5188 17.2014 56.5188 17.5427 56.7236 17.8158C56.9284 18.0888 57.1332 18.2936 57.5427 18.2936H78.0205V38.4301C76.1775 37.2014 74.0615 36.3823 71.6724 36.3823C65.1878 36.3823 59.9318 41.6383 59.9318 48.1229C59.9318 54.6076 65.1878 59.8635 71.6724 59.8635C74.0615 59.8635 76.1775 58.9762 78.0205 57.7475V77.9523H57.884C59.1127 76.1093 59.9318 73.9932 59.9318 71.6042C59.9318 65.1195 54.6758 59.8635 48.1912 59.8635C41.7065 59.8635 36.3823 65.1878 36.3823 71.6724C36.3823 74.0615 37.2014 76.1775 38.4301 78.0205H18.2936V57.5427C18.2936 57.2014 18.1571 56.9284 17.8158 56.7236C17.5427 56.5188 17.2014 56.5188 16.9284 56.7236C15.4267 57.611 13.7885 58.0888 11.9454 58.0888C6.41644 58.0888 1.97958 53.6519 1.97958 48.1229C1.97958 42.5939 6.41644 38.1571 11.9454 38.1571C13.7885 38.1571 15.4267 38.6349 16.9284 39.454C17.0649 39.5222 17.2014 39.5905 17.4062 39.5905C17.5427 39.5905 17.7475 39.5222 17.884 39.454C18.0205 39.3857 18.1571 39.2492 18.2253 39.1127C18.2936 38.9762 18.3618 38.8396 18.3618 38.6349V18.1571H38.8396C39.1809 18.1571 39.454 18.0205 39.6588 17.6792C39.8635 17.4062 39.8635 17.0649 39.6588 16.7919C38.8396 15.2902 38.2936 13.6519 38.2936 11.8089C38.1571 6.41644 42.6622 1.97958 48.1229 1.97958Z" fill="#445439"/>
<path d="M56.2457 80C56.041 80 55.8362 79.9317 55.6997 79.8635C55.4949 79.727 55.3584 79.5904 55.2901 79.3857C55.2219 79.1809 55.1536 78.9761 55.2219 78.7713C55.2901 78.5666 55.3584 78.3618 55.4949 78.2253C57.1331 76.4505 58.0205 74.1297 58.0205 71.7406C58.0205 66.3481 53.6519 61.9795 48.2594 61.9795C42.8669 61.9795 38.3618 66.2799 38.3618 71.6724C38.3618 74.0614 39.2492 76.3823 40.8874 78.157C41.0239 78.2935 41.0922 78.4983 41.1604 78.7031C41.2287 78.9079 41.1604 79.1126 41.0922 79.3174C41.0239 79.5222 40.8874 79.6587 40.6826 79.7952C40.4778 79.9317 40.273 79.9317 40.0683 79.9317H17.3379C17.2014 79.9317 17.0648 79.9317 16.9283 79.8635C16.7918 79.7952 16.6553 79.727 16.587 79.6587C16.5188 79.5904 16.3823 79.4539 16.3823 79.3174C16.314 79.1809 16.314 79.0444 16.314 78.9079V59.1126C14.744 59.727 13.3106 60.0683 11.9454 60.0683C5.32423 60.0683 0 54.744 0 48.1229C0 41.57 5.32423 36.1775 11.9454 36.1775C13.3788 36.1775 14.8123 36.4505 16.314 37.0648V17.3379C16.314 17.2014 16.314 17.0648 16.3823 16.9283C16.4505 16.7918 16.5188 16.6553 16.587 16.587C16.6553 16.5188 16.7918 16.3823 16.9283 16.3823C17.0648 16.314 17.2014 16.314 17.3379 16.314H37.1331C36.5188 14.744 36.1775 13.3788 36.1775 11.9454C36.1775 5.32423 41.57 0 48.1229 0C54.744 0 60.0683 5.32423 60.0683 11.9454C60.0683 13.3106 59.7952 14.744 59.1126 16.314H78.9079C79.0444 16.314 79.1809 16.314 79.3174 16.3823C79.4539 16.4505 79.5905 16.5188 79.6587 16.587C79.727 16.6553 79.8635 16.7918 79.8635 16.9283C79.9317 17.0648 79.9317 17.2014 79.9317 17.3379V40C79.9317 40.4778 79.6587 40.7509 79.3174 40.9556C78.9079 41.1604 78.4983 41.0922 78.157 40.7509C76.3823 39.1809 74.0614 38.2935 71.6041 38.2935C66.2116 38.2935 61.843 42.6621 61.843 48.0546C61.843 53.4471 66.2116 57.8157 71.6041 57.8157C73.9932 57.8157 76.314 56.9283 78.157 55.2901C78.4983 55.0171 78.9079 54.9488 79.3174 55.1536C79.727 55.3584 79.9317 55.6997 79.9317 56.1092V78.7713C79.9317 78.9079 79.9317 79.0444 79.8635 79.1809C79.7952 79.3174 79.727 79.4539 79.6587 79.5222C79.5905 79.5904 79.4539 79.727 79.3174 79.727C79.1809 79.7952 79.0444 79.7952 78.9079 79.7952H56.2457C56.2457 80 56.2457 80 56.2457 80ZM48.1229 61.57C53.7201 61.57 58.2253 66.1433 58.2253 71.6724C58.2253 74.1297 57.3379 76.5188 55.6314 78.43C55.4949 78.5666 55.4949 78.6348 55.4266 78.8396C55.4266 78.9761 55.4266 79.1126 55.4949 79.2491C55.5631 79.3857 55.6314 79.5222 55.7679 79.5904C55.9044 79.6587 56.041 79.727 56.1775 79.727H78.8396C78.9079 79.727 79.0444 79.727 79.1126 79.6587C79.1809 79.5904 79.3174 79.5904 79.3857 79.5222C79.4539 79.4539 79.5222 79.3857 79.5222 79.3174C79.5905 79.2491 79.5905 79.1126 79.5905 79.0444V56.2457C79.5905 55.9044 79.4539 55.6997 79.1809 55.5631C78.9079 55.4266 78.6348 55.4949 78.43 55.6997C76.587 57.3379 74.1297 58.2935 71.6724 58.2935C66.0751 58.2935 61.57 53.7201 61.57 48.1911C61.57 42.5939 66.1434 38.0887 71.6724 38.0887C74.198 38.0887 76.587 38.9761 78.43 40.6826C78.6348 40.8874 78.9079 40.9556 79.1809 40.8191C79.4539 40.6826 79.5905 40.4778 79.5905 40.1365V17.3379C79.5905 17.2696 79.5905 17.1331 79.5222 17.0648C79.4539 16.9966 79.4539 16.9283 79.3857 16.8601C79.3174 16.7918 79.2492 16.7236 79.1126 16.7236C79.0444 16.6553 78.9079 16.6553 78.8396 16.6553H58.6348L58.7031 16.4505C59.3857 14.8805 59.727 13.4471 59.727 12.0137C59.727 5.59727 54.5393 0.409556 48.1229 0.409556C41.7065 0.409556 36.5188 5.59727 36.5188 12.0137C36.5188 13.4471 36.8601 14.8805 37.5427 16.4505L37.6109 16.6553H17.3379C17.2696 16.6553 17.1331 16.6553 17.0648 16.7236C16.9966 16.7918 16.9283 16.7918 16.7918 16.8601C16.7236 16.9283 16.6553 16.9966 16.6553 17.0648C16.587 17.1331 16.587 17.2696 16.587 17.3379V37.6109L16.3823 37.5427C14.8123 36.8601 13.3788 36.587 11.9454 36.587C5.52901 36.587 0.341297 41.7747 0.341297 48.1911C0.341297 54.6075 5.52901 59.7952 11.9454 59.7952C13.3788 59.7952 14.8123 59.4539 16.3823 58.7713L16.587 58.7031V78.9761C16.587 79.0444 16.587 79.1809 16.6553 79.2491C16.7236 79.3174 16.7236 79.4539 16.7918 79.4539C16.8601 79.5222 16.9283 79.5904 17.0648 79.5904C17.1331 79.6587 17.2696 79.6587 17.3379 79.6587H40C40.1365 79.6587 40.273 79.5904 40.4096 79.5222C40.5461 79.4539 40.6143 79.3174 40.6826 79.1809C40.7509 79.0444 40.7509 78.9079 40.7509 78.7713C40.7509 78.6348 40.6826 78.4983 40.5461 78.3618C38.8396 76.5188 37.9522 74.1297 37.9522 71.6041C38.0205 66.0751 42.5939 61.57 48.1229 61.57ZM78.2253 78.2253H57.5427L57.7474 77.9522C59.1126 75.8362 59.7952 73.8567 59.7952 71.7406C59.7952 65.3242 54.6075 60.1365 48.1911 60.1365C41.7747 60.1365 36.587 65.3242 36.587 71.7406C36.587 73.8567 37.2696 75.9044 38.6348 77.9522L38.8396 78.2253H18.0887V57.5427C18.0887 57.2696 17.9522 57.0648 17.7474 56.9283C17.4744 56.7918 17.2696 56.7918 16.9966 56.9283C15.4266 57.8157 13.7201 58.2935 11.9454 58.2935C6.34812 58.2935 1.843 53.7201 1.843 48.1911C1.843 42.5939 6.41638 38.0887 11.9454 38.0887C13.7884 38.0887 15.4949 38.5666 16.9966 39.4539C17.1331 39.5222 17.2696 39.5222 17.4061 39.5222C17.5427 39.5222 17.6109 39.5222 17.7474 39.4539C17.884 39.3857 17.9522 39.3174 18.0205 39.1809C18.0887 39.0444 18.0887 38.9761 18.0887 38.8396V18.0887H38.7713C39.0444 18.0887 39.2492 17.9522 39.3857 17.7474C39.5222 17.4744 39.5222 17.2696 39.3857 16.9966C38.4983 15.4266 38.0205 13.6519 38.0205 11.9454C38.0205 6.34812 42.5939 1.843 48.1229 1.843C53.6519 1.843 58.2253 6.41638 58.2253 11.9454C58.2253 13.7201 57.7474 15.4266 56.8601 16.9966C56.7236 17.2696 56.7236 17.4744 56.8601 17.7474C56.9966 18.0205 57.2014 18.0887 57.4744 18.0887H78.157V38.7713L77.884 38.5666C75.7679 37.2014 73.7201 36.5188 71.6724 36.5188C65.256 36.5188 60.0683 41.7065 60.0683 48.1229C60.0683 54.5392 65.256 59.727 71.6724 59.727C73.7201 59.727 75.7679 59.0444 77.884 57.6792L78.157 57.4744V78.2253H78.2253ZM58.157 77.884H77.8157V58.157C75.6997 59.4539 73.7201 60.1365 71.6724 60.1365C65.1195 60.1365 59.727 54.8123 59.727 48.1911C59.727 41.6382 65.0512 36.2457 71.6724 36.2457C73.7884 36.2457 75.7679 36.8601 77.8157 38.157V18.43H57.5427C57.1331 18.43 56.7918 18.2253 56.587 17.884C56.3823 17.5427 56.3823 17.1331 56.587 16.7918C57.4744 15.2901 57.9522 13.5836 57.9522 11.8771C57.9522 6.48464 53.5836 2.11604 48.1911 2.11604C42.7986 2.11604 38.3618 6.5529 38.3618 11.9454C38.3618 13.6519 38.8396 15.2901 39.727 16.8601C39.9317 17.2014 39.9317 17.5427 39.727 17.9522C39.5222 18.2935 39.1809 18.4983 38.7713 18.4983H18.43V38.8396C18.43 39.0444 18.3618 39.1809 18.2935 39.3857C18.157 39.5222 18.0205 39.6587 17.884 39.7952C17.7474 39.8635 17.5427 39.9317 17.3379 39.9317C17.1331 39.9317 16.9966 39.8635 16.7918 39.7952C15.2901 38.9079 13.6519 38.4983 11.8771 38.4983C6.48464 38.4983 2.11604 42.8669 2.11604 48.2594C2.11604 53.6519 6.48464 58.0205 11.8771 58.0205C13.5836 58.0205 15.2901 57.5427 16.7918 56.6553C17.1331 56.4505 17.5427 56.4505 17.884 56.6553C18.2253 56.8601 18.43 57.2014 18.43 57.6109V77.9522H38.0887C36.7918 75.9044 36.1775 73.8567 36.1775 71.8089C36.1775 65.256 41.5017 59.8635 48.1229 59.8635C54.6758 59.8635 60.0683 65.1877 60.0683 71.8089C60.0683 73.7884 59.4539 75.7679 58.157 77.884Z" fill="#445439"/>
</g>
<defs>
<clipPath id="clip0_60_662">
<rect width="80" height="80" fill="white"/>
</clipPath>
</defs>
</svg>
