<svg width="80" height="80" viewBox="0 0 80 80" fill="none" xmlns="http://www.w3.org/2000/svg">
<g clip-path="url(#clip0_60_680)">
<mask id="mask0_60_680" style="mask-type:luminance" maskUnits="userSpaceOnUse" x="0" y="49" width="80" height="31">
<path d="M80 49.6013H0V80H80V49.6013Z" fill="white"/>
</mask>
<g mask="url(#mask0_60_680)">
<path fill-rule="evenodd" clip-rule="evenodd" d="M79.7399 51.4891C79.935 51.0986 79.87 50.6429 79.6098 50.2523C79.3496 49.8618 78.9594 49.6665 78.5041 49.6665H1.36589C0.91061 49.6665 0.520366 49.8618 0.260204 50.2523C4.08888e-05 50.6429 4.08888e-05 51.0335 0.130122 51.4891L11.122 79.0237C11.3171 79.5445 11.8374 79.8699 12.3578 79.8699H67.4472C67.9675 79.8699 68.4879 79.5445 68.683 79.0237L79.7399 51.4891ZM3.31711 52.3353L13.2683 77.2011H66.5366L76.4879 52.3353H3.31711Z" fill="#445439"/>
</g>
<path fill-rule="evenodd" clip-rule="evenodd" d="M47.8699 62.4247C48 62.0341 47.9349 61.5785 47.6748 61.1879C47.4146 60.8624 47.0243 60.6021 46.5691 60.6021H33.2357C32.7804 60.6021 32.3902 60.7973 32.13 61.1879C31.8699 61.5134 31.8048 61.969 31.9349 62.4247L33.8211 67.9576C34.0162 68.4784 34.5365 68.8689 35.0569 68.8689H44.6178C45.2032 68.8689 45.7235 68.4784 45.8536 67.9576L47.8699 62.4247ZM35.1219 63.336L36.0975 66.2001H43.7073L44.6829 63.336H35.1219Z" fill="#445439"/>
<path fill-rule="evenodd" clip-rule="evenodd" d="M68.813 50.9682C68.813 39.5768 59.5772 30.3335 48.1951 30.3335C42.8618 30.3335 37.0081 30.3335 31.6748 30.3335C20.2927 30.3335 11.0569 39.5768 11.0569 50.9682C11.0569 51.6842 11.6423 52.27 12.4227 52.27H67.5122C68.1626 52.3351 68.813 51.6842 68.813 50.9682ZM66.0813 49.6663C65.4309 40.3579 57.626 33.0674 48.1951 33.0674C42.8618 33.0674 37.0081 33.0674 31.6748 33.0674C22.2439 33.0674 14.439 40.423 13.7886 49.6663H66.0813Z" fill="#445439"/>
<mask id="mask1_60_680" style="mask-type:luminance" maskUnits="userSpaceOnUse" x="23" y="0" width="35" height="34">
<path d="M57.1707 0H23.3496V33.1326H57.1707V0Z" fill="white"/>
</mask>
<g mask="url(#mask1_60_680)">
<path fill-rule="evenodd" clip-rule="evenodd" d="M39.935 0.0651855C30.8293 0.0651855 23.4797 7.42076 23.4797 16.5339C23.4797 25.647 30.8293 33.0025 39.935 33.0025C49.0407 33.0025 56.3903 25.647 56.3903 16.5339C56.3903 7.42076 49.0407 0.0651855 39.935 0.0651855ZM39.935 2.73402C47.5448 2.73402 53.7236 8.91791 53.7236 16.5339C53.7236 24.1498 47.5448 30.3337 39.935 30.3337C32.3253 30.3337 26.1464 24.1498 26.1464 16.5339C26.1464 8.91791 32.3253 2.73402 39.935 2.73402Z" fill="#445439"/>
</g>
</g>
<defs>
<clipPath id="clip0_60_680">
<rect width="80" height="80" fill="white"/>
</clipPath>
</defs>
</svg>
