<svg width="61" height="80" viewBox="0 0 61 80" fill="none" xmlns="http://www.w3.org/2000/svg">
<g clip-path="url(#clip0_60_731)">
<path d="M36.9403 40.1349C37.2364 40.1349 37.5326 40.2698 37.6806 40.4722C37.9767 40.8094 38.0508 41.3491 37.6806 41.6863C35.2377 44.3845 33.9051 48.7015 34.3493 52.5464C34.5714 54.5025 34.9415 55.9865 35.5338 57.2681C36.052 58.4148 36.7923 59.4266 37.5326 60.5059C38.0508 61.2479 38.643 62.0573 39.1612 62.8668C41.7522 67.3187 42.1224 73.0523 40.1236 77.6391C43.2328 76.8297 46.268 75.2108 48.785 73.0523C51.5981 70.6239 53.893 67.5211 55.6697 63.8111C60.0374 54.6374 59.6673 43.3052 54.9294 34.199C54.4852 37.1669 53.6709 40.1349 52.7085 43.0354C52.5605 43.4401 52.1163 43.7099 51.6721 43.6425C51.2279 43.575 50.7838 43.2378 50.7838 42.833C49.5993 33.2546 46.6381 24.0135 41.9743 15.3794C40.1236 11.9393 38.4209 9.44349 36.4961 7.41988C34.9415 5.73354 32.9427 4.31701 30.4998 3.1703C31.9063 7.01516 31.9804 11.7369 30.7219 17.2007C28.7231 25.4975 24.4294 33.5919 17.7668 41.1467C17.5447 41.4165 17.1005 41.5514 16.7304 41.484C16.3602 41.4165 16.0641 41.1467 15.9901 40.742C15.0277 36.1551 12.5847 32.0405 8.73523 28.6678C8.88328 32.5126 7.77285 36.2226 6.58838 39.4604C6.21824 40.4047 5.84809 41.3491 5.47794 42.2934C4.29348 45.3288 3.03498 48.4991 2.59081 51.6695C1.77649 57.1332 3.10901 62.9342 6.29226 67.656C9.03134 71.7032 13.251 75.0084 18.0629 76.9646C16.4343 73.457 15.768 69.3423 16.0641 65.0253C16.3602 60.7082 17.6928 56.1214 20.0617 51.0624C20.2838 50.6576 20.7279 50.4553 21.2461 50.5227C21.6903 50.6577 22.0605 50.9949 22.0605 51.4671C21.9124 53.4233 22.2826 55.5818 22.9488 57.6728C23.0228 56.8634 23.2449 56.1214 23.393 55.4469C24.0593 53.1534 25.2437 50.86 27.1685 48.4991C29.6855 45.3288 32.7947 42.6307 36.4221 40.4722C36.4961 40.1349 36.7182 40.1349 36.9403 40.1349ZM38.2728 79.7976C37.9767 79.7976 37.6066 79.6627 37.4585 79.3929C37.2364 79.1231 37.2364 78.7184 37.3845 78.3811C39.9755 74.0641 39.9755 68.1281 37.3105 63.6087C36.8663 62.8668 36.3481 62.1248 35.8299 61.3828C35.0156 60.3035 34.2012 59.1568 33.609 57.8752C32.9427 56.4587 32.4986 54.7723 32.2765 52.6138C31.9804 49.9157 32.4986 46.9477 33.609 44.3845C31.7583 45.8685 30.1296 47.5548 28.6491 49.3086C26.8724 51.5345 25.7619 53.5582 25.2437 55.6492C24.7255 57.5379 24.3554 60.2361 25.3918 62.5295C25.6139 63.0017 25.3918 63.4738 24.9476 63.6762C24.5034 63.8786 23.9112 63.7437 23.6151 63.3389C21.9124 60.9106 20.7279 58.0776 20.2097 55.312C18.9512 58.6846 18.211 61.7875 17.9889 64.8229C17.6187 69.6796 18.6551 74.199 20.876 77.9089C21.0981 78.2462 21.0241 78.6509 20.802 78.9207C20.5059 79.1905 20.1357 79.3254 19.6915 79.1905C13.4731 77.3018 7.99493 73.3221 4.51557 68.3305C1.11023 63.4064 -0.370357 57.1332 0.517993 51.1973C1.0362 47.8246 2.29469 44.5868 3.47916 41.4165C3.8493 40.4722 4.21945 39.5278 4.58959 38.5835C5.92212 34.8735 7.18061 30.5565 6.36629 26.3069C6.29226 25.9022 6.51435 25.5649 6.8845 25.3625C7.25464 25.1602 7.69882 25.2276 8.06896 25.43C12.7328 28.8701 15.9161 33.2546 17.3966 38.1787C23.0969 31.2985 26.8724 24.0135 28.6491 16.5261C30.0556 10.4553 29.6855 5.26136 27.5386 1.48396C27.3165 1.14669 27.3906 0.741972 27.6867 0.472157C27.9828 0.202343 28.427 0.0674354 28.7971 0.269796C32.4986 1.61887 35.6078 3.57502 37.9027 6.00335C39.9755 8.22932 41.7522 10.7926 43.677 14.4351C47.7486 21.9224 50.5617 29.8145 52.0423 38.0438C52.6345 35.6829 53.0787 33.2546 53.2267 30.9612C53.3008 30.5565 53.5969 30.2192 54.041 30.1518C54.4852 30.0843 54.9294 30.2192 55.1515 30.5565C61.592 40.5396 62.5544 53.828 57.5204 64.4182C55.6697 68.398 53.1527 71.7032 50.1915 74.2664C46.7862 77.1669 42.7146 79.1231 38.4949 79.7302C38.4209 79.7976 38.3469 79.7976 38.2728 79.7976Z" fill="#445439"/>
<path d="M38.2729 79.9999C37.8287 79.9999 37.4586 79.7975 37.2365 79.5277C36.9404 79.1905 36.9404 78.6508 37.1624 78.2461C39.7535 73.9965 39.7535 68.1281 37.0884 63.7436C36.6442 63.0016 36.126 62.2596 35.6078 61.5176L35.5338 61.4502C34.7935 60.3709 33.9792 59.2242 33.387 58.01C32.7207 56.526 32.2765 54.8397 32.0544 52.6812C31.8323 50.3203 32.1285 47.7571 33.0168 45.3287C31.5362 46.6104 30.1297 48.0269 28.9452 49.5109C27.2425 51.6694 26.1321 53.7604 25.5399 55.784C25.0217 57.6053 24.6515 60.236 25.6879 62.5294C25.984 63.069 25.6879 63.7436 25.0957 64.0134C24.5035 64.2832 23.7632 64.1483 23.393 63.6087C21.9124 61.4502 20.802 59.0218 20.1357 56.4586C19.0993 59.4265 18.4331 62.2596 18.211 65.0252C17.8408 69.8144 18.8032 74.3338 21.0981 77.9763C21.3942 78.381 21.3202 78.9206 20.9501 79.3254C20.5799 79.7301 20.0617 79.865 19.5435 79.6626C13.251 77.7739 7.69885 73.7942 4.21948 68.6677C0.740114 63.5412 -0.740469 57.2006 0.22191 51.2647C0.740114 47.8245 1.99861 44.5867 3.2571 41.4164C3.62725 40.4721 3.9974 39.5277 4.36754 38.5834C5.70007 34.9409 6.95856 30.6238 6.14424 26.4417C6.07021 25.9695 6.2923 25.4974 6.73647 25.2276C7.18065 24.9577 7.77288 25.0252 8.21706 25.3625C12.7328 28.7351 15.9161 32.9847 17.5447 37.7739C23.0229 31.0286 26.6503 23.9459 28.427 16.6609C29.8336 10.6576 29.4634 5.53109 27.3906 1.82114C27.1685 1.41642 27.2425 0.876793 27.6127 0.472071C27.9828 0.134803 28.5751 -0.000104569 29.0192 0.202256C32.7947 1.55133 35.9039 3.57494 38.1988 6.00327C40.2717 8.22924 42.0484 10.7925 43.9731 14.435C47.8226 21.5176 50.5617 29.0724 52.1163 36.8296C52.5605 34.8734 52.8566 32.9173 53.0047 31.0286C53.0787 30.4889 53.4489 30.0842 53.9671 29.9493C54.4853 29.8144 55.0775 30.0842 55.3736 30.4889C61.8882 40.5395 62.7765 53.8954 57.7425 64.6205C55.8178 68.6002 53.3748 71.9729 50.3396 74.5362C46.8603 77.5041 42.7887 79.3928 38.495 80.0674C38.4209 79.9999 38.3469 79.9999 38.2729 79.9999ZM34.3493 43.5749L33.9052 44.5193C32.7947 47.15 32.3505 49.983 32.5726 52.6137C32.7947 54.7048 33.2389 56.3911 33.9052 57.8077C34.4974 59.0218 35.2377 60.1011 36.052 61.1803L36.126 61.2478C36.6442 61.9898 37.1624 62.7318 37.6806 63.5412C40.3457 68.1281 40.4197 74.1314 37.7547 78.5834C37.6066 78.7857 37.6066 79.0555 37.8287 79.3254C37.9768 79.5277 38.2729 79.6626 38.569 79.5952C42.7146 78.9206 46.7122 77.0319 50.1175 74.1989C53.0787 71.6357 55.5217 68.3979 57.4464 64.4181C62.4804 53.8953 61.518 40.6744 55.0775 30.7587C54.9294 30.4889 54.5593 30.354 54.2632 30.4215C53.9671 30.4889 53.745 30.7588 53.6709 31.0286C53.4489 33.3894 53.0787 35.7503 52.4124 38.1786L52.1163 39.4603L51.8942 38.1786C50.4137 30.0168 47.6005 22.0572 43.5289 14.6373C41.6042 11.0623 39.8275 8.49905 37.8287 6.34054C35.6078 3.97966 32.4986 2.0235 28.8712 0.674432C28.5751 0.606978 28.2789 0.674432 28.0569 0.876793C27.8348 1.07915 27.8348 1.34897 27.9828 1.61878C30.1297 5.46364 30.4998 10.725 29.0933 16.7958C27.3166 24.2832 23.5411 31.6356 17.7668 38.5159L17.3967 38.9206L17.2486 38.4485C15.768 33.5918 12.5848 29.2073 7.99497 25.8346C7.77288 25.6323 7.40273 25.6323 7.18065 25.7672C6.73647 25.7672 6.66244 26.037 6.66244 26.3068C7.47676 30.6238 6.21827 35.0083 4.88574 38.7183C4.5156 39.6626 4.14545 40.607 3.77531 41.5513C2.59084 44.6542 1.33235 47.892 0.814143 51.2647C-0.0742065 57.1331 1.33235 63.3389 4.73769 68.3304C8.14303 73.322 13.6212 77.2343 19.7656 79.123C20.0617 79.1905 20.3578 79.123 20.5799 78.9206C20.802 78.7183 20.802 78.381 20.6539 78.1787C18.359 74.4687 17.3967 69.8819 17.7668 64.9577C17.9889 61.9223 18.7292 58.752 19.9877 55.3793L20.3578 54.435L20.5059 55.3793C21.0241 58.1449 22.2086 60.978 23.8372 63.2714C24.0593 63.5412 24.4294 63.6761 24.7996 63.4738C25.1697 63.3389 25.3178 62.9341 25.1697 62.5969C24.0593 60.236 24.5035 57.4704 25.0217 55.5817C25.6139 53.4906 26.7243 51.3996 28.501 49.1736C29.9076 47.3523 31.6103 45.7335 33.461 44.182L34.3493 43.5749ZM39.6054 77.9088L39.8275 77.4367C41.8263 72.7824 41.4561 67.2512 38.8651 62.8667C38.3469 61.9898 37.8287 61.2478 37.3105 60.5058C36.4962 59.4265 35.8299 58.4147 35.2377 57.268C34.6455 55.9864 34.2753 54.435 34.0532 52.4788C33.6831 48.5665 35.0156 44.182 37.4586 41.4164C37.6806 41.1466 37.6806 40.8093 37.4586 40.5395C37.2365 40.2697 36.7923 40.2697 36.4962 40.4046C32.8688 42.4957 29.7595 45.1938 27.3166 48.3641C25.4658 50.725 24.2073 52.951 23.6151 55.2444C23.393 55.9864 23.245 56.7284 23.1709 57.4704L23.0229 58.6846L22.6527 57.5378C21.9124 55.3793 21.6163 53.2208 21.7644 51.2647C21.7644 50.9274 21.5423 50.6576 21.1722 50.5901C20.802 50.5227 20.5059 50.6576 20.3578 50.9948C17.9889 55.9864 16.6564 60.5058 16.3603 64.8228C16.0641 69.0724 16.7304 73.1871 18.359 76.6272L18.6552 77.2343L17.9889 76.9645C13.103 75.0083 8.88332 71.6357 6.14424 67.5884C2.88696 62.8667 1.55443 56.9308 2.36875 51.3996C2.88696 48.1618 4.07142 44.9915 5.25589 41.9561L5.40395 41.6188C5.62604 40.8093 5.92215 39.9999 6.2923 39.123C7.40273 36.0201 8.5872 32.3102 8.43914 28.4653V27.8582L8.95735 28.3304C12.8069 31.7031 15.3239 35.9527 16.2862 40.5395C16.3603 40.8093 16.5823 41.0117 16.8044 41.0792C17.1006 41.1466 17.3967 41.0792 17.5447 40.8768C24.1333 33.3894 28.501 25.3625 30.4258 17.0657C31.6843 11.6694 31.6103 7.01507 30.2037 3.17022L29.9816 2.56313L30.5738 2.83295C33.0168 3.97966 35.0156 5.46364 36.6442 7.14998C38.569 9.24104 40.2717 11.7368 42.1964 15.177C46.9343 23.811 49.8955 33.1196 51.0799 42.7655C51.0799 43.1028 51.376 43.3051 51.7462 43.3726C52.1163 43.3726 52.4124 43.2377 52.4865 42.9004C53.5229 40.0673 54.2632 37.0994 54.7073 34.1314L54.8554 33.322L55.2255 34.064C59.9634 43.1702 60.2595 54.6373 55.8918 63.811C54.1151 67.5884 51.7462 70.6913 48.9331 73.1196C46.3421 75.3456 43.3069 76.9645 40.1236 77.7739L39.6054 77.9088ZM36.9404 39.865C37.3105 39.865 37.6806 39.9999 37.9027 40.2697C38.3469 40.6744 38.3469 41.349 37.9768 41.8211C35.6078 44.4518 34.2753 48.7014 34.6455 52.4788C34.8675 54.3675 35.2377 55.8515 35.7559 57.1331C36.2741 58.2124 37.0144 59.2242 37.7547 60.3034C38.2729 61.0454 38.8651 61.8549 39.3833 62.7318C41.9003 67.0488 42.3445 72.58 40.5678 77.2343C43.4549 76.3574 46.194 74.8734 48.5629 72.8498C51.302 70.4889 53.5969 67.3861 55.3736 63.6761C59.5192 54.8397 59.3712 43.9797 55.0035 35.0083C54.5593 37.7065 53.819 40.4046 52.9306 43.0353C52.7086 43.5749 52.1904 43.9122 51.5981 43.8448C51.0059 43.7773 50.4877 43.3726 50.4137 42.833C49.2292 33.2545 46.268 24.0808 41.6042 15.4468C39.7535 12.0066 38.0508 9.57831 36.126 7.48725C34.7195 6.00327 32.9428 4.6542 30.87 3.57494C32.1285 7.35234 32.1285 11.8717 30.87 17.1331C28.8712 25.4974 24.5035 33.5918 17.9149 41.1466C17.6188 41.4839 17.1005 41.6862 16.5823 41.5513C16.1382 41.4164 15.694 41.0792 15.62 40.607C14.7316 36.3574 12.4367 32.3776 8.95735 29.1399C8.95735 32.8498 7.84691 36.3574 6.8105 39.3254C6.51439 40.1348 6.14424 41.0117 5.84812 41.8211L5.70007 42.1584C4.5156 45.1938 3.33113 48.2967 2.81293 51.5345C1.99861 56.9308 3.33113 62.7318 6.51439 67.3861C9.1054 71.1635 13.0289 74.3338 17.4707 76.2899C15.9901 72.8498 15.3979 68.9375 15.694 64.8228C15.9901 60.4383 17.3226 55.8515 19.7656 50.7925C19.9877 50.2529 20.6539 49.983 21.2462 50.1179C21.8384 50.2529 22.2826 50.725 22.2086 51.3321C22.1345 52.8835 22.2826 54.5699 22.7268 56.3237C22.8008 55.9864 22.8748 55.5817 23.0229 55.2444C23.6891 52.8835 24.9476 50.5901 26.7984 48.1618C29.3154 44.924 32.4986 42.2259 36.126 40.0674C36.4221 39.9324 36.6442 39.865 36.9404 39.865Z" fill="#445439"/>
</g>
<defs>
<clipPath id="clip0_60_731">
<rect width="61" height="80" fill="white"/>
</clipPath>
</defs>
</svg>
