<svg width="59" height="80" viewBox="0 0 59 80" fill="none" xmlns="http://www.w3.org/2000/svg">
<g clip-path="url(#clip0_60_501)">
<mask id="mask0_60_501" style="mask-type:luminance" maskUnits="userSpaceOnUse" x="0" y="0" width="59" height="80">
<path d="M59 0H0V80H59V0Z" fill="white"/>
</mask>
<g mask="url(#mask0_60_501)">
<path d="M42.2835 50.7438L38.8418 55.0964C38.514 55.5372 37.9677 55.7576 37.4761 55.7576C37.3122 55.7576 37.2029 55.7576 37.039 55.7025L31.6853 54.3802C31.3029 54.27 30.9752 54.27 30.5927 54.27C30.1011 54.27 29.5548 54.3802 29.1177 54.5455L23.9279 56.3636C23.764 56.4187 23.5455 56.4738 23.3816 56.4738C22.89 56.4738 22.3983 56.2534 22.0705 55.9229L18.3011 51.9008C17.7002 51.2397 16.9353 50.7989 16.0613 50.5785L10.7076 49.2562C10.052 49.0909 9.50571 48.5399 9.39645 47.8788L8.35849 42.4242C8.1946 41.5427 7.75756 40.7163 7.15664 40.0551L3.38719 36.0331C2.89553 35.427 2.73164 34.7107 3.00479 34.0496L5.08071 28.9256C5.40849 28.0992 5.51775 27.1625 5.35386 26.281L4.3159 20.8264C4.20664 20.1653 4.47979 19.449 5.02608 19.0083L9.50571 15.8127C10.2159 15.3168 10.8168 14.6006 11.1446 13.7741L13.2205 8.65014C13.4937 7.98898 14.0946 7.54821 14.8048 7.54821L20.2131 7.27273C21.0872 7.21763 21.9613 6.94215 22.6715 6.44628L27.1511 3.25069C27.4789 3.0303 27.8066 2.92011 28.189 2.92011C28.5168 2.92011 28.79 3.0303 29.0631 3.1405L33.8159 5.95041C34.5261 6.39118 35.3455 6.55647 36.165 6.55647C36.2196 6.55647 36.3289 6.55647 36.3835 6.55647L41.9011 6.28099H41.9557C42.6113 6.28099 43.2122 6.66667 43.54 7.27273L46.0529 12.2314C46.4353 13.0579 47.0909 13.719 47.8557 14.1598L52.6085 16.9697C53.2094 17.3003 53.5372 18.0165 53.4826 18.6777L52.9363 24.1873C52.827 25.0689 53.0455 25.9504 53.4279 26.7769L55.9409 31.7355C56.2687 32.3416 56.1594 33.1129 55.777 33.6639L52.3353 38.0165C51.789 38.7328 51.4613 39.5592 51.352 40.4408L50.8057 45.9504C50.7511 46.6667 50.2594 47.2176 49.6039 47.438L44.414 49.2562C43.5946 49.5317 42.8298 50.0275 42.2835 50.7438ZM31.2483 57.2452L36.3835 58.5124C36.7659 58.6226 37.0937 58.6226 37.4761 58.6226C38.1863 58.6226 38.8418 58.4573 39.4974 58.1818C40.1529 57.8512 40.6992 57.4105 41.1363 56.8595L44.5779 52.5069C44.7418 52.3416 44.9057 52.1763 45.0696 52.0661L53.9196 68.8705L46.4353 69.3664C45.9983 69.3664 45.6159 69.5868 45.3974 69.9174L40.8631 75.9229L31.139 57.4656L31.2483 57.2452ZM15.2965 53.2782C15.6242 53.3333 15.952 53.5537 16.1705 53.7741L19.94 57.7961C20.814 58.7328 22.0159 59.2286 23.327 59.2286C23.8187 59.2286 24.365 59.1185 24.802 58.9532L27.5335 58.0165L18.1372 75.8127L13.6029 69.8072C13.3298 69.4766 12.9474 69.2562 12.565 69.2562L5.08071 68.8154L13.5483 52.7824L15.2965 53.2782ZM53.6465 46.1708L54.1927 40.6612C54.2474 40.3306 54.3566 40 54.5752 39.7245L58.0168 35.3719C59.164 33.9394 59.3279 31.9559 58.5085 30.3581L55.9955 25.3994C55.8316 25.0689 55.777 24.7383 55.8316 24.4077L56.3779 18.8981C56.5418 17.0799 55.6677 15.3168 54.0835 14.3802L49.3307 11.5702C49.0576 11.405 48.7844 11.1295 48.6205 10.854L46.1076 5.89532C45.7252 5.12397 45.1242 4.46281 44.414 4.02204C43.7039 3.58127 42.8298 3.36088 42.0103 3.36088C41.9557 3.36088 41.8465 3.36088 41.7918 3.36088L36.2742 3.63636H36.2196C35.8918 3.63636 35.6187 3.52617 35.3455 3.41598L30.5927 0.606061C29.8279 0.220386 29.0085 0 28.189 0C27.2057 0 26.277 0.275482 25.5122 0.881543L21.0326 4.07714C20.7594 4.24242 20.4316 4.35262 20.1039 4.40771L14.5863 4.6281C12.7835 4.73829 11.1992 5.84022 10.489 7.54821L8.46775 12.6722C8.35849 13.0028 8.13997 13.2782 7.86682 13.4435L3.38719 16.6391C1.91219 17.686 1.14738 19.5041 1.52979 21.3223L2.56775 26.7769C2.62238 27.1074 2.62238 27.438 2.45849 27.7686L0.382564 32.8926C-0.272992 34.6006 0.0547864 36.5289 1.31127 37.8512L5.08071 41.8733C5.29923 42.1488 5.46312 42.4242 5.51775 42.7548L6.55571 48.2094C6.88349 50.0275 8.24923 51.4601 9.99738 51.9008L10.7076 52.0661L1.52979 69.5317C1.31127 69.9725 1.31127 70.4683 1.52979 70.9091C1.7483 71.3499 2.18534 71.6253 2.67701 71.6253L11.6909 72.1763L17.2085 79.449C17.4816 79.7796 17.9187 80 18.3557 80C18.4103 80 18.4103 80 18.465 80C18.9566 79.9449 19.3937 79.6694 19.6122 79.2287L29.5002 60.551L39.3335 79.2287C39.552 79.6694 39.989 79.9449 40.4807 80C40.5353 80 40.5353 80 40.59 80C41.027 80 41.464 79.7796 41.7372 79.449L47.2548 72.1763L56.2687 71.6253C56.7603 71.5702 57.1974 71.2948 57.4159 70.9091C57.6344 70.4683 57.6344 69.9725 57.4159 69.5317L47.7465 51.1295L50.5326 50.1377C52.2807 49.5317 53.4826 47.989 53.6465 46.1708Z" fill="#445439"/>
</g>
<path d="M29.4999 46.281C20.8137 46.281 13.7665 39.1735 13.7665 30.4132C13.7665 21.6529 20.8137 14.5454 29.4999 14.5454C38.186 14.5454 45.2332 21.6529 45.2332 30.4132C45.1786 39.1735 38.1313 46.281 29.4999 46.281ZM29.4999 11.6804C19.2295 11.6804 10.9258 20.1102 10.9258 30.4132C10.9258 40.7162 19.2841 49.146 29.4999 49.146C39.7156 49.146 48.0739 40.7162 48.0739 30.4132C48.0739 20.1102 39.7156 11.6804 29.4999 11.6804Z" fill="#445439"/>
<path d="M38.1317 23.1956C38.0771 23.1405 37.9678 23.0854 37.8586 23.0854C37.7493 23.0854 37.6947 23.1405 37.6401 23.1956L27.0965 33.8293L21.3058 28.0441C21.2512 27.989 21.1419 27.9339 21.0326 27.9339C20.9234 27.9339 20.8688 27.989 20.7595 28.0441L19.2299 29.5868C19.1752 29.6419 19.1206 29.7521 19.1206 29.8623C19.1206 29.9725 19.1752 30.0276 19.2299 30.1378L26.7688 37.7411C26.8234 37.7962 26.9326 37.8513 27.0419 37.8513C27.1512 37.8513 27.2058 37.7962 27.3151 37.7411L39.6613 25.2893C39.8252 25.124 39.8252 24.9036 39.6613 24.7934L38.1317 23.1956Z" fill="#445439"/>
</g>
<defs>
<clipPath id="clip0_60_501">
<rect width="59" height="80" fill="white"/>
</clipPath>
</defs>
</svg>
