<svg width="20" height="17" viewBox="0 0 20 17" fill="none" xmlns="http://www.w3.org/2000/svg">
<path d="M17.7385 0.140831C15.1897 1.20051 4.20609 5.78363 1.18428 7.02875C-0.839021 7.82351 0.343427 8.56529 0.343427 8.56529C0.343427 8.56529 2.07768 9.1746 3.57545 9.62497C5.07322 10.0753 5.86152 9.57198 5.86152 9.57198L12.8511 4.82992C15.3211 3.13443 14.743 4.5385 14.1386 5.12133C12.8511 6.41943 10.7227 8.45932 8.93588 10.1283C8.14758 10.8171 8.54173 11.4264 8.88333 11.7178C10.1709 12.8305 13.6919 15.0558 13.9022 15.2148C14.9532 15.9566 17.0028 17.0427 17.3181 14.7644L18.5531 6.92278C18.9473 4.27358 19.3414 1.83632 19.394 1.12104C19.5254 -0.547961 17.7385 0.140831 17.7385 0.140831Z" fill="#445439"/>
</svg>
