<svg width="20" height="19" viewBox="0 0 20 19" fill="none" xmlns="http://www.w3.org/2000/svg">
<path d="M9.75677 0.00521851C5.0002 0.160149 1.07254 4.01018 0.840139 8.75882C0.754924 10.4708 1.13452 12.0898 1.87047 13.4997L0.832392 18.1244C0.785911 18.3336 0.971836 18.5195 1.181 18.473L5.80588 17.4427C7.20031 18.1709 8.80391 18.5505 10.5082 18.473C15.257 18.2561 19.1227 14.3518 19.3009 9.60319C19.5101 4.23483 15.1331 -0.172952 9.75677 0.00521851ZM10.0666 16.5751C8.71869 16.5751 7.4637 16.211 6.37914 15.5758C6.27843 15.5216 6.17772 15.4596 6.08476 15.3976L3.13321 16.1878L3.92339 13.2363C3.17969 12.0898 2.74587 10.7187 2.74587 9.2546C2.74587 5.2109 6.03828 1.92636 10.0744 1.92636C14.1105 1.92636 17.4029 5.19541 17.4029 9.23911C17.4029 13.2828 14.1105 16.5751 10.0666 16.5751Z" fill="#445439"/>
<path d="M14.1412 12.2274C14.0128 12.4162 13.8844 12.5899 13.6805 12.7938C13.2198 13.2545 12.5854 13.481 11.9434 13.4206C10.7879 13.2998 9.14905 12.6654 7.73675 11.2532C6.32444 9.841 5.69004 8.20225 5.5692 7.04681C5.50123 6.4049 5.73535 5.76299 6.19605 5.30988C6.40752 5.09843 6.58122 4.97004 6.76248 4.84166C7.10989 4.60755 7.57814 4.76614 7.70654 5.15884L8.18234 6.57859C8.31073 6.97129 8.25031 7.21295 8.08416 7.37909L7.70654 7.75669C7.51772 7.94548 7.48751 8.23245 7.63101 8.45901C7.84248 8.78374 8.23521 9.31237 8.95269 10.0298C9.67772 10.7548 10.1988 11.1475 10.5236 11.3514C10.7502 11.4949 11.0372 11.4647 11.226 11.2759L11.6036 10.8983C11.7697 10.7321 12.0114 10.6717 12.4041 10.8001L13.824 11.2759C14.2243 11.4118 14.3829 11.88 14.1412 12.2274Z" fill="#445439"/>
</svg>
